<svg width="522" height="486" viewBox="0 0 522 486" fill="none" xmlns="http://www.w3.org/2000/svg">
<path d="M261.016 486C404.756 486 521.281 418.723 521.281 335.733C521.281 252.743 404.756 185.467 261.016 185.467C117.275 185.467 0.75 252.743 0.75 335.733C0.75 418.723 117.275 486 261.016 486Z" fill="#F0F0F0"/>
<path d="M207.158 449.599C256.725 449.599 296.907 426.402 296.907 397.787C296.907 369.172 256.725 345.975 207.158 345.975C157.591 345.975 117.409 369.172 117.409 397.787C117.409 426.402 157.591 449.599 207.158 449.599Z" fill="#E0E0E0"/>
<path d="M462.388 332.961L451.86 326.885C451.86 326.885 449.286 304.348 450.998 286.893C453.406 262.368 469.248 232.849 488.139 239.787C507.03 246.725 479.478 271.692 473.347 292.494C467.215 313.296 462.388 332.961 462.388 332.961Z" fill="#F68B1E"/>
<path opacity="0.15" d="M462.388 332.961L451.86 326.885C451.86 326.885 449.286 304.348 450.998 286.893C453.406 262.368 469.248 232.849 488.139 239.787C507.03 246.725 479.478 271.692 473.347 292.494C467.215 313.296 462.388 332.961 462.388 332.961Z" fill="black"/>
<path d="M456.855 330.408C457.023 330.399 457.18 330.325 457.294 330.201C457.408 330.077 457.468 329.913 457.462 329.745C455.617 275.248 482.75 247.828 483.015 247.563C483.135 247.443 483.202 247.28 483.202 247.11C483.202 246.94 483.135 246.777 483.015 246.657C482.956 246.598 482.887 246.551 482.81 246.519C482.733 246.487 482.651 246.471 482.567 246.471C482.484 246.471 482.402 246.487 482.325 246.519C482.248 246.551 482.179 246.598 482.12 246.657C481.833 246.922 454.314 274.74 456.181 329.789C456.184 329.874 456.203 329.958 456.239 330.035C456.274 330.113 456.325 330.182 456.388 330.24C456.451 330.297 456.524 330.342 456.604 330.371C456.684 330.4 456.77 330.412 456.855 330.408Z" fill="white"/>
<path d="M469.004 336.75L461.514 332.431C461.514 332.431 460.233 316.965 467.822 298.184C474.451 281.834 490.801 268.257 499.042 271.107C507.284 273.957 507.074 279.801 503.052 285.932C499.031 292.064 474.605 306.657 469.004 336.75Z" fill="#F68B1E"/>
<path d="M465.049 335.114C465.218 335.111 465.38 335.042 465.499 334.923C465.619 334.803 465.687 334.642 465.69 334.473C465.536 300.005 497.893 276.717 498.225 276.485C498.294 276.438 498.353 276.377 498.397 276.306C498.442 276.236 498.472 276.157 498.486 276.074C498.499 275.991 498.496 275.907 498.476 275.826C498.455 275.744 498.419 275.668 498.368 275.601C498.271 275.465 498.123 275.372 497.958 275.344C497.793 275.315 497.623 275.352 497.485 275.447C497.153 275.679 464.265 299.364 464.409 334.473C464.409 334.643 464.476 334.806 464.596 334.926C464.717 335.046 464.88 335.114 465.049 335.114Z" fill="white"/>
<path d="M72.8357 319.427L82.5574 312.865C82.5574 312.865 86.8328 287.456 82.8557 265.041C77.2657 233.6 55.5355 223.149 47.8023 226.463C40.0691 229.778 38.412 239.135 52.851 257.076C61.4127 267.626 72.5374 290.152 72.8357 319.427Z" fill="#F68B1E"/>
<g opacity="0.15">
<path d="M72.8338 319.427L82.5555 312.865C82.5555 312.865 86.8308 287.456 82.8538 265.041C77.2638 233.6 55.5335 223.149 47.8004 226.463C40.0672 229.778 38.4101 239.135 52.849 257.076C61.4108 267.626 72.5355 290.152 72.8338 319.427Z" fill="black"/>
</g>
<path d="M76.1702 306.834H76.0707C75.9714 306.828 75.8746 306.801 75.7865 306.755C75.6984 306.708 75.621 306.644 75.5595 306.566C75.498 306.487 75.4537 306.397 75.4294 306.301C75.4052 306.204 75.4016 306.104 75.4189 306.006C78.932 276.41 66.4374 244.284 52.8381 231.502C52.7072 231.37 52.6338 231.191 52.6338 231.005C52.6338 230.819 52.7072 230.64 52.8381 230.508C52.9029 230.442 52.9802 230.389 53.0656 230.353C53.1509 230.317 53.2426 230.299 53.3352 230.299C53.4278 230.299 53.5195 230.317 53.6048 230.353C53.6902 230.389 53.7675 230.442 53.8323 230.508C67.6858 243.522 80.4124 276.178 76.8551 306.204C76.8343 306.374 76.7539 306.53 76.6284 306.645C76.5029 306.761 76.3405 306.828 76.1702 306.834Z" fill="white"/>
<path d="M47.3816 336.595C45.835 337.523 41.3276 334.176 40.0793 333.37C37.9398 331.973 36.197 330.047 35.0196 327.78C33.6986 325.208 33.2084 322.29 33.6165 319.428C33.8428 317.934 34.1713 316.458 34.5998 315.009C34.9864 313.562 35.3731 312.114 35.7045 310.656C36.1944 309.238 36.3826 307.733 36.2569 306.237C35.826 303.288 33.1636 301.266 30.7332 299.532C28.0597 297.598 25.2095 295.046 25.2095 291.489C25.3458 288.694 26.4155 286.026 28.2475 283.91C29.9046 281.701 31.8931 279.779 33.3845 277.47C34.5508 275.87 35.146 273.925 35.0748 271.946C34.8827 270.726 34.4469 269.558 33.7933 268.51C32.4897 266.213 30.7995 264.091 29.8825 261.65C28.9656 259.208 29.0319 256.071 30.9873 254.248C32.5449 252.757 34.9201 252.514 37.0744 252.613C39.1043 252.815 41.0653 253.46 42.819 254.502C48.5305 257.54 51.8889 264.169 57.9319 266.478C60.2629 267.361 62.8038 267.516 65.2231 268.113C67.6425 268.709 70.1392 269.891 71.2992 272.09C73.586 276.453 69.5979 281.955 71.2329 286.584C72.6912 290.694 76.7566 292.196 79.0545 295.875C79.9871 297.508 80.3741 299.397 80.1592 301.266C80.0296 304.421 79.3219 307.525 78.0713 310.424C76.6329 313.431 75.0095 316.346 73.2104 319.152C73.2104 319.152 47.6136 336.452 47.3816 336.595Z" fill="#F68B1E"/>
<path d="M62.3182 327.437C62.2253 327.436 62.1336 327.416 62.0484 327.379C61.9632 327.342 61.8861 327.289 61.8214 327.222C61.7568 327.156 61.7059 327.077 61.6717 326.991C61.6376 326.904 61.6207 326.812 61.6222 326.719C62.2408 298.747 48.4758 268.168 38.732 259.33C38.5935 259.205 38.51 259.031 38.4996 258.844C38.4893 258.658 38.5529 258.475 38.6767 258.336C38.7415 258.27 38.8189 258.217 38.9042 258.181C38.9896 258.145 39.0813 258.127 39.1739 258.127C39.2665 258.127 39.3581 258.145 39.4435 258.181C39.5288 258.217 39.6062 258.27 39.671 258.336C49.6137 267.284 63.6549 298.394 63.0252 326.752C63.0238 326.844 63.0043 326.934 62.968 327.018C62.9317 327.102 62.8792 327.178 62.8136 327.241C62.7479 327.305 62.6704 327.355 62.5854 327.389C62.5004 327.422 62.4096 327.439 62.3182 327.437Z" fill="white"/>
<path d="M57.1583 293.356C57.093 293.373 57.0247 293.373 56.9594 293.356C47.9226 290.749 36.7206 290.484 36.6101 290.473C36.5177 290.471 36.4266 290.452 36.342 290.415C36.2573 290.378 36.1809 290.324 36.1172 290.257C36.0534 290.19 36.0036 290.112 35.9706 290.025C35.9377 289.939 35.9222 289.847 35.9252 289.755C35.9234 289.661 35.9411 289.569 35.977 289.483C36.0129 289.397 36.0663 289.319 36.1338 289.255C36.2013 289.19 36.2814 289.141 36.3691 289.109C36.4568 289.077 36.5502 289.064 36.6432 289.07C36.7537 289.07 48.1325 289.346 57.3461 291.997C57.5241 292.051 57.6738 292.173 57.7627 292.336C57.8517 292.5 57.8726 292.691 57.8211 292.87C57.7781 293.012 57.6902 293.136 57.5707 293.224C57.4512 293.311 57.3065 293.358 57.1583 293.356Z" fill="white"/>
<path d="M317.533 300.194L313.346 297.775C312.649 297.322 312.068 296.71 311.652 295.99C311.235 295.271 310.994 294.462 310.949 293.632V119.613C310.995 118.784 311.234 117.977 311.649 117.258C312.063 116.538 312.641 115.926 313.335 115.471L429.72 48.2803C430.461 47.9047 431.28 47.709 432.112 47.709C432.943 47.709 433.762 47.9047 434.503 48.2803L438.69 50.6997C439.388 51.1527 439.969 51.764 440.385 52.4839C440.802 53.2038 441.042 54.012 441.088 54.8425V228.861C441.042 229.69 440.802 230.497 440.388 231.217C439.973 231.936 439.396 232.548 438.701 233.004L322.317 300.205C321.576 300.582 320.755 300.777 319.924 300.775C319.092 300.773 318.273 300.574 317.533 300.194Z" fill="#455A64"/>
<path d="M441.089 54.4558C440.923 53.2185 439.918 52.7656 438.714 53.4616L322.318 120.663C321.614 121.104 321.033 121.716 320.628 122.441L311.646 117.26C312.048 116.529 312.63 115.913 313.337 115.471L429.721 48.2803C430.462 47.9047 431.282 47.709 432.113 47.709C432.944 47.709 433.763 47.9047 434.505 48.2803L438.692 50.6997C439.338 51.116 439.887 51.6672 440.301 52.3156C440.715 52.9639 440.984 53.694 441.089 54.4558Z" fill="#455A64"/>
<path d="M321.907 300.392C321.2 300.679 320.44 300.81 319.678 300.778C318.915 300.746 318.169 300.55 317.489 300.205L313.291 297.774C312.596 297.319 312.019 296.707 311.604 295.987C311.19 295.267 310.95 294.461 310.904 293.631V119.613C310.933 118.782 311.172 117.972 311.6 117.26L320.582 122.441C320.145 123.154 319.902 123.969 319.875 124.805V298.824C319.919 300.194 320.781 300.823 321.907 300.392Z" fill="#263238"/>
<path d="M319.921 124.829V298.826C319.921 300.35 321.026 300.969 322.318 300.207L438.702 233.005C439.397 232.55 439.974 231.938 440.389 231.218C440.803 230.499 441.043 229.692 441.089 228.863V54.844C441.089 53.3195 439.984 52.7008 438.702 53.4631L322.318 120.664C321.618 121.119 321.035 121.734 320.618 122.458C320.202 123.182 319.963 123.995 319.921 124.829Z" fill="#37474F"/>
<path d="M292.743 191.112C291.241 190.218 284.27 186.252 283.906 186.042C283.621 185.872 283.379 185.641 283.196 185.365C283.013 185.09 282.895 184.776 282.849 184.449C282.804 184.121 282.832 183.787 282.933 183.472C283.033 183.157 283.203 182.869 283.43 182.628L310.95 153.109L319.92 158.257L292.412 187.798C292.196 188.028 292.032 188.302 291.93 188.601C291.829 188.9 291.793 189.217 291.824 189.531C291.855 189.845 291.954 190.148 292.112 190.421C292.271 190.694 292.486 190.93 292.743 191.112Z" fill="#455A64"/>
<path d="M319.92 158.291L292.412 187.799C292.107 188.125 291.907 188.536 291.84 188.978C291.773 189.42 291.842 189.871 292.037 190.273C292.232 190.676 292.544 191.009 292.933 191.23C293.321 191.451 293.768 191.549 294.213 191.511L319.92 189.389V158.291Z" fill="#37474F"/>
<path d="M380.503 105.163C394.069 97.3304 405.061 103.683 405.061 119.348C405.061 135.013 394.069 154.048 380.503 161.88C366.937 169.713 355.944 163.361 355.944 147.706C355.944 132.052 366.937 112.996 380.503 105.163Z" fill="#F68B1E"/>
<path d="M380.328 117.492C384.747 114.951 388.293 117.006 388.293 122.087C388.142 124.85 387.343 127.538 385.959 129.933C384.575 132.329 382.646 134.364 380.328 135.875C375.909 138.415 372.352 136.361 372.352 131.279C372.503 128.515 373.305 125.827 374.691 123.431C376.076 121.036 378.008 119.001 380.328 117.492Z" fill="white"/>
<path d="M396.037 144.58C396.037 136.24 390.17 132.848 382.945 137.024L378.427 139.631C371.202 143.807 365.336 153.993 365.336 162.311V164.598C366.7 165.034 368.124 165.254 369.556 165.25C373.432 165.118 377.206 163.976 380.504 161.936C386.784 158.068 392.097 152.815 396.037 146.58V144.58Z" fill="white"/>
<path d="M364.949 239.422L396.058 221.459C397.384 220.697 398.456 221.316 398.456 222.84V232.86C398.411 233.691 398.17 234.499 397.753 235.219C397.337 235.939 396.756 236.55 396.058 237.003L364.949 254.966C363.623 255.728 362.552 255.11 362.552 253.585V243.565C362.597 242.734 362.837 241.926 363.254 241.206C363.671 240.487 364.251 239.875 364.949 239.422Z" fill="#F68B1E"/>
<path d="M349.715 217.04L411.26 181.489C412.84 180.572 414.132 181.312 414.132 183.146V186.869C414.078 187.865 413.79 188.835 413.291 189.699C412.792 190.562 412.096 191.296 411.26 191.841L349.682 227.391C348.102 228.308 346.82 227.568 346.82 225.734V222.044C346.871 221.04 347.159 220.062 347.663 219.192C348.166 218.322 348.87 217.584 349.715 217.04Z" fill="#FAFAFA"/>
<path d="M356.917 191.31C357.756 190.824 358.408 190.747 358.872 191.089C359.336 191.432 359.568 192.194 359.568 193.365C359.591 194.434 359.352 195.492 358.872 196.447C358.438 197.311 357.757 198.026 356.917 198.502L355.259 199.463V203.031C355.256 203.154 355.226 203.275 355.171 203.385C355.132 203.485 355.063 203.57 354.972 203.628L354.133 204.114C354.104 204.136 354.069 204.147 354.033 204.147C353.997 204.147 353.962 204.136 353.934 204.114C353.874 204.039 353.846 203.944 353.856 203.849V193.52C353.856 193.397 353.882 193.277 353.934 193.166C353.976 193.068 354.045 192.984 354.133 192.923L356.917 191.31ZM355.259 197.464L356.861 196.536C357.248 196.317 357.575 196.006 357.811 195.63C358.063 195.186 358.185 194.681 358.165 194.171C358.165 193.575 358.043 193.232 357.811 193.133C357.648 193.093 357.477 193.091 357.312 193.128C357.147 193.164 356.993 193.238 356.861 193.343L355.259 194.271V197.464Z" fill="#FAFAFA"/>
<path d="M364.198 187.102C364.308 187.036 364.397 187.036 364.452 187.102C364.523 187.202 364.572 187.314 364.596 187.434L367.147 196.073C367.147 196.073 367.147 196.139 367.147 196.172C367.146 196.295 367.115 196.416 367.059 196.526C367.02 196.626 366.95 196.711 366.86 196.769L366.109 197.2C365.976 197.277 365.877 197.288 365.822 197.2C365.768 197.144 365.73 197.076 365.711 197.001L365.258 195.487L361.944 197.388L361.502 199.42C361.471 199.53 361.43 199.638 361.381 199.741C361.326 199.875 361.224 199.985 361.093 200.05L360.342 200.481C360.314 200.504 360.279 200.517 360.243 200.517C360.206 200.517 360.171 200.504 360.143 200.481C360.086 200.409 360.058 200.318 360.066 200.227C360.06 200.186 360.06 200.146 360.066 200.105L362.607 188.528C362.638 188.357 362.686 188.191 362.751 188.03C362.805 187.914 362.893 187.818 363.005 187.754L364.198 187.102ZM364.772 193.797L363.668 189.897L362.563 195.112L364.772 193.797Z" fill="#FAFAFA"/>
<path d="M371.014 183.005C371.384 182.771 371.804 182.631 372.24 182.596C372.548 182.568 372.857 182.638 373.124 182.795C373.366 182.952 373.555 183.179 373.665 183.446C373.786 183.718 373.853 184.011 373.864 184.308C373.872 184.431 373.845 184.553 373.787 184.662C373.748 184.762 373.678 184.847 373.588 184.905L372.859 185.324C372.737 185.391 372.649 185.402 372.594 185.324C372.525 185.279 372.468 185.219 372.428 185.148C372.384 185.048 372.32 184.959 372.24 184.885C372.16 184.811 372.066 184.754 371.964 184.717C371.628 184.669 371.286 184.756 371.014 184.96C370.835 185.075 370.665 185.205 370.506 185.347C370.342 185.498 370.197 185.668 370.075 185.855C369.957 186.035 369.861 186.227 369.788 186.429C369.722 186.621 369.689 186.823 369.688 187.026C369.675 187.212 369.709 187.398 369.788 187.567C369.822 187.626 369.87 187.677 369.927 187.713C369.985 187.75 370.051 187.772 370.119 187.777C370.324 187.812 370.533 187.812 370.738 187.777L371.699 187.567C372.057 187.461 372.43 187.416 372.804 187.435C373.07 187.434 373.33 187.519 373.544 187.678C373.746 187.848 373.892 188.075 373.964 188.329C374.072 188.687 374.12 189.06 374.107 189.434C374.106 189.928 374.036 190.419 373.897 190.892C373.762 191.38 373.566 191.847 373.312 192.284C373.044 192.732 372.725 193.148 372.362 193.522C371.99 193.907 371.566 194.238 371.102 194.505C370.762 194.712 370.388 194.858 369.998 194.936C369.68 194.997 369.351 194.97 369.047 194.858C368.771 194.73 368.543 194.517 368.396 194.251C368.215 193.91 368.117 193.532 368.108 193.146C368.107 193.02 368.134 192.896 368.186 192.781C368.235 192.687 368.307 192.608 368.396 192.55L369.125 192.13C369.235 192.063 369.324 192.041 369.39 192.074C369.456 192.108 369.5 192.163 369.545 192.262C369.59 192.376 369.649 192.484 369.721 192.583C369.79 192.679 369.886 192.752 369.998 192.793C370.143 192.826 370.294 192.826 370.439 192.793C370.674 192.737 370.898 192.644 371.102 192.516C371.317 192.394 371.52 192.254 371.71 192.097C372.081 191.803 372.377 191.424 372.572 190.992C372.66 190.77 372.705 190.534 372.704 190.296C372.715 190.209 372.707 190.122 372.682 190.038C372.658 189.954 372.616 189.877 372.561 189.81C372.501 189.757 372.43 189.718 372.354 189.695C372.278 189.672 372.198 189.666 372.119 189.677C371.868 189.688 371.619 189.728 371.378 189.799C371.091 189.865 370.76 189.942 370.373 190.009C370.077 190.083 369.771 190.105 369.467 190.075C369.228 190.059 369.002 189.962 368.827 189.799C368.635 189.612 368.501 189.374 368.44 189.114C368.351 188.73 368.31 188.337 368.318 187.943C368.318 187.456 368.388 186.972 368.528 186.507C368.66 186.027 368.853 185.567 369.103 185.137C369.342 184.71 369.631 184.313 369.964 183.955C370.267 183.59 370.621 183.27 371.014 183.005Z" fill="#FAFAFA"/>
<path d="M378.273 178.828C378.64 178.587 379.061 178.443 379.499 178.408C379.807 178.382 380.116 178.451 380.383 178.607C380.619 178.768 380.803 178.994 380.913 179.258C381.034 179.53 381.101 179.823 381.112 180.12C381.125 180.243 381.098 180.367 381.034 180.474C380.995 180.574 380.926 180.659 380.836 180.717L380.106 181.136C379.996 181.203 379.908 181.225 379.841 181.136C379.771 181.092 379.717 181.026 379.687 180.949C379.586 180.755 379.416 180.605 379.212 180.529C379.047 180.505 378.879 180.514 378.718 180.555C378.556 180.597 378.405 180.671 378.273 180.772C378.088 180.885 377.914 181.014 377.753 181.159C377.593 181.31 377.452 181.48 377.334 181.667C377.212 181.844 377.115 182.037 377.046 182.241C376.978 182.433 376.94 182.634 376.936 182.838C376.923 183.024 376.957 183.21 377.035 183.379C377.069 183.438 377.117 183.489 377.175 183.525C377.233 183.562 377.299 183.584 377.367 183.589C377.571 183.625 377.781 183.625 377.985 183.589L378.946 183.379C379.306 183.279 379.678 183.234 380.051 183.247C380.318 183.244 380.578 183.33 380.791 183.49C380.993 183.662 381.143 183.888 381.222 184.141C381.32 184.501 381.364 184.873 381.355 185.246C381.354 185.74 381.283 186.231 381.145 186.704C381.01 187.191 380.813 187.659 380.559 188.096C380.293 188.549 379.974 188.968 379.609 189.345C379.236 189.721 378.817 190.047 378.361 190.317C378.02 190.523 377.647 190.669 377.256 190.748C376.942 190.808 376.617 190.781 376.317 190.67C376.036 190.546 375.803 190.333 375.654 190.063C375.473 189.723 375.378 189.343 375.378 188.958C375.365 188.835 375.392 188.711 375.456 188.604C375.494 188.505 375.564 188.419 375.654 188.361L376.383 187.942C376.494 187.875 376.593 187.853 376.649 187.886C376.687 187.904 376.721 187.93 376.748 187.962C376.775 187.995 376.794 188.033 376.803 188.074C376.853 188.186 376.912 188.293 376.98 188.395C377.053 188.492 377.153 188.565 377.267 188.604C377.413 188.638 377.564 188.638 377.709 188.604C377.944 188.549 378.168 188.456 378.372 188.328C378.581 188.203 378.78 188.063 378.969 187.909C379.163 187.757 379.334 187.578 379.477 187.378C379.62 187.187 379.738 186.98 379.83 186.76C379.919 186.538 379.964 186.302 379.963 186.064C379.973 185.977 379.966 185.889 379.941 185.806C379.916 185.722 379.875 185.645 379.819 185.578C379.759 185.525 379.689 185.486 379.613 185.463C379.537 185.44 379.456 185.434 379.377 185.445C379.131 185.46 378.886 185.501 378.648 185.566C378.361 185.633 378.019 185.71 377.643 185.776C377.343 185.85 377.033 185.873 376.726 185.843C376.486 185.83 376.259 185.732 376.085 185.566C375.898 185.378 375.767 185.141 375.71 184.882C375.611 184.503 375.567 184.113 375.577 183.722C375.581 183.232 375.652 182.745 375.787 182.274C375.924 181.797 376.116 181.337 376.361 180.904C376.6 180.475 376.894 180.077 377.234 179.722C377.532 179.372 377.882 179.07 378.273 178.828Z" fill="#FAFAFA"/>
<path d="M386.326 180.209L385.432 185.5C385.405 185.66 385.361 185.815 385.299 185.964C385.256 186.083 385.174 186.185 385.067 186.252L384.227 186.738C384.117 186.804 384.04 186.804 383.984 186.738C383.91 186.647 383.868 186.534 383.863 186.417L382.537 177.082C382.537 177.082 382.537 176.994 382.537 176.961C382.54 176.838 382.57 176.717 382.625 176.607C382.667 176.509 382.736 176.425 382.824 176.364L383.587 175.922C383.65 175.897 383.722 175.897 383.785 175.922C383.852 175.922 383.896 176.011 383.918 176.187L384.791 182.473L385.553 177.756C385.573 177.639 385.606 177.524 385.652 177.414C385.696 177.274 385.791 177.156 385.918 177.082L386.768 176.585C386.89 176.519 386.978 176.53 387.033 176.585C387.081 176.655 387.115 176.734 387.133 176.817L387.906 180.651L388.779 173.359C388.789 173.216 388.831 173.076 388.9 172.951C388.952 172.868 389.02 172.797 389.099 172.741L389.862 172.299C389.89 172.277 389.925 172.266 389.961 172.266C389.997 172.266 390.032 172.277 390.06 172.299C390.092 172.335 390.116 172.377 390.131 172.423C390.146 172.468 390.152 172.516 390.149 172.564C390.153 172.608 390.153 172.652 390.149 172.696L388.823 183.556C388.801 183.715 388.76 183.871 388.702 184.02C388.651 184.138 388.566 184.238 388.458 184.307L387.608 184.793C387.508 184.849 387.431 184.849 387.376 184.793C387.32 184.692 387.275 184.584 387.243 184.473L386.326 180.209Z" fill="#FAFAFA"/>
<path d="M391.495 175.523C391.52 174.911 391.594 174.301 391.716 173.7C391.842 173.113 392.035 172.542 392.291 171.999C392.534 171.471 392.846 170.977 393.219 170.53C393.596 170.086 394.049 169.712 394.555 169.425C394.944 169.161 395.4 169.012 395.87 168.994C396.221 168.998 396.557 169.136 396.809 169.381C397.077 169.682 397.27 170.041 397.372 170.43C397.515 170.938 397.593 171.461 397.604 171.988C397.604 172.187 397.604 172.408 397.604 172.651C397.604 172.894 397.604 173.148 397.604 173.413C397.604 173.678 397.604 173.932 397.604 174.175C397.604 174.418 397.604 174.65 397.604 174.86C397.58 175.469 397.507 176.075 397.383 176.672C397.256 177.257 397.067 177.828 396.82 178.373C396.569 178.9 396.253 179.394 395.881 179.843C395.503 180.282 395.055 180.655 394.555 180.947C394.157 181.21 393.695 181.359 393.219 181.378C393.047 181.382 392.876 181.35 392.716 181.286C392.556 181.221 392.412 181.125 392.291 181.003C392.002 180.693 391.804 180.311 391.716 179.898C391.585 179.389 391.51 178.866 391.495 178.34C391.495 178.141 391.495 177.92 391.495 177.677C391.495 177.434 391.495 177.18 391.495 176.915C391.495 176.65 391.495 176.407 391.495 176.153C391.495 175.899 391.484 175.722 391.495 175.523ZM396.201 172.883C396.226 172.613 396.196 172.34 396.112 172.082C396.028 171.824 395.893 171.585 395.715 171.38C395.428 171.126 395.03 171.137 394.555 171.38C394.04 171.683 393.631 172.139 393.384 172.684C393.071 173.328 392.905 174.034 392.898 174.75C392.898 175.159 392.898 175.612 392.898 176.109C392.898 176.606 392.898 177.048 392.898 177.445C392.874 177.716 392.904 177.988 392.988 178.246C393.071 178.505 393.206 178.743 393.384 178.948C393.672 179.191 394.069 179.169 394.555 178.893C395.062 178.587 395.466 178.137 395.715 177.6C396.029 176.96 396.195 176.258 396.201 175.545C396.201 175.125 396.201 174.673 396.201 174.175C396.201 173.678 396.212 173.281 396.201 172.883Z" fill="#FAFAFA"/>
<path d="M402.422 165.019C403.295 164.522 403.947 164.445 404.4 164.809C404.668 165.105 404.868 165.456 404.984 165.838C405.101 166.22 405.131 166.623 405.074 167.019C405.083 167.769 404.967 168.516 404.731 169.228C404.507 169.892 404.158 170.507 403.704 171.04L405.14 174.166C405.145 174.218 405.145 174.27 405.14 174.321C405.141 174.421 405.118 174.519 405.074 174.608C405.043 174.688 404.989 174.758 404.919 174.807L404.035 175.315C403.892 175.393 403.792 175.404 403.726 175.315C403.668 175.257 403.619 175.19 403.582 175.116L402.224 172.167L400.843 172.962V176.696C400.844 176.818 400.817 176.939 400.765 177.05C400.72 177.146 400.652 177.229 400.566 177.293L399.727 177.779C399.699 177.802 399.664 177.815 399.627 177.815C399.591 177.815 399.556 177.802 399.528 177.779C399.496 177.745 399.472 177.705 399.457 177.661C399.442 177.617 399.436 177.571 399.44 177.525V167.195C399.443 167.073 399.473 166.952 399.528 166.842C399.567 166.742 399.637 166.657 399.727 166.599L402.422 165.019ZM400.865 170.963L402.422 170.123C402.803 169.91 403.129 169.612 403.372 169.25C403.628 168.825 403.751 168.332 403.726 167.836C403.726 167.24 403.604 166.908 403.372 166.842C403.036 166.796 402.695 166.883 402.422 167.085L400.92 167.947L400.865 170.963Z" fill="#FAFAFA"/>
<path d="M409.823 160.766C410.224 160.504 410.683 160.345 411.16 160.302C411.506 160.289 411.843 160.412 412.099 160.644C412.392 160.952 412.594 161.334 412.685 161.749C412.833 162.297 412.915 162.861 412.928 163.428C412.928 164.201 412.928 164.997 412.928 165.803C412.905 166.461 412.824 167.115 412.685 167.759C412.558 168.356 412.366 168.938 412.11 169.493C411.864 170.003 411.552 170.478 411.182 170.907C410.813 171.346 410.372 171.72 409.879 172.012L407.26 173.437C407.233 173.46 407.197 173.473 407.161 173.473C407.125 173.473 407.089 173.46 407.062 173.437C407.029 173.404 407.005 173.364 406.989 173.32C406.974 173.276 406.969 173.229 406.973 173.183V162.854C406.976 162.731 407.007 162.61 407.062 162.5C407.101 162.4 407.17 162.315 407.26 162.257L409.823 160.766ZM411.525 164.201C411.52 163.902 411.475 163.605 411.392 163.318C411.341 163.1 411.23 162.901 411.072 162.743C411.002 162.674 410.92 162.619 410.828 162.583C410.737 162.547 410.64 162.53 410.542 162.533C410.265 162.552 409.998 162.643 409.768 162.798L408.376 163.594V170.797L409.823 169.968C410.103 169.805 410.354 169.596 410.564 169.349C410.769 169.107 410.944 168.84 411.083 168.554C411.221 168.25 411.324 167.931 411.392 167.604C411.469 167.263 411.514 166.915 411.525 166.566C411.558 165.759 411.558 164.975 411.525 164.201Z" fill="#FAFAFA"/>
<path d="M258.121 0.423429C260.028 0.847737 261.865 1.53952 263.578 2.47824C265.219 3.36014 266.689 4.52731 267.92 5.92503C269.097 7.26956 269.972 8.85212 270.483 10.5649C271.004 12.3984 271.042 14.3355 270.593 16.1881C270.297 17.6568 269.715 19.0531 268.881 20.2977C268.119 21.362 267.212 22.314 266.185 23.1258C265.177 23.9086 264.101 24.5999 262.97 25.1917L259.789 26.8819C258.83 27.3818 257.92 27.9699 257.071 28.6385C256.303 29.228 255.714 30.0198 255.37 30.9253C255.202 31.339 254.922 31.6983 254.563 31.9637C254.393 32.0957 254.196 32.1872 253.985 32.2313C253.775 32.2753 253.557 32.2707 253.348 32.2178L248.664 31.1794C248.438 31.1321 248.225 31.0403 248.035 30.9094C247.845 30.7786 247.684 30.6112 247.559 30.4171C247.427 30.2367 247.339 30.0277 247.303 29.8069C247.266 29.5862 247.282 29.36 247.349 29.1467C247.727 27.696 248.391 26.336 249.305 25.1475C250.138 24.0962 251.103 23.1568 252.177 22.3525C253.223 21.5868 254.332 20.9105 255.491 20.3308C256.596 19.7674 257.701 19.2261 258.662 18.6848C259.556 18.2042 260.397 17.6302 261.17 16.9724C261.848 16.4046 262.318 15.6273 262.506 14.7629C262.682 14.0124 262.673 13.2304 262.481 12.4839C262.289 11.7375 261.918 11.0487 261.402 10.4766C260.11 9.06614 258.383 8.12884 256.497 7.81414C253.006 7.04082 250.06 8.21553 247.659 11.3383C247.427 11.6791 247.135 11.9749 246.797 12.211C246.416 12.4 245.975 12.4318 245.571 12.2994L240.588 11.1946C240.233 11.126 239.919 10.9194 239.716 10.6202C239.607 10.4603 239.534 10.2789 239.501 10.0882C239.469 9.89763 239.478 9.70227 239.528 9.51543C239.951 7.98034 240.74 6.5704 241.826 5.40581C243.051 4.05521 244.506 2.93303 246.123 2.09159C247.892 1.16625 249.798 0.532099 251.768 0.21353C253.879 -0.129835 256.037 -0.0585406 258.121 0.423429ZM252.829 35.9739C253.267 36.0768 253.648 36.3471 253.889 36.727C254.131 37.1068 254.214 37.5662 254.121 38.0067L252.928 43.4199C252.888 43.6465 252.8 43.8621 252.671 44.0525C252.541 44.2429 252.373 44.4038 252.177 44.5246C251.992 44.6521 251.783 44.7396 251.562 44.7815C251.341 44.8233 251.114 44.8186 250.896 44.7677L245.549 43.5414C245.321 43.5031 245.105 43.4161 244.914 43.2865C244.724 43.1568 244.563 42.9875 244.444 42.7902C244.32 42.6036 244.236 42.3937 244.196 42.1734C244.156 41.953 244.161 41.7268 244.212 41.5087L245.416 36.0955C245.519 35.6566 245.789 35.2751 246.168 35.0318C246.548 34.7885 247.007 34.7024 247.449 34.7919L252.829 35.9739Z" fill="#F68B1E"/>
<path d="M264.02 52.2466C265.35 52.0332 266.704 52.0072 268.041 52.1693C269.319 52.3211 270.56 52.695 271.709 53.274C272.803 53.8416 273.766 54.6319 274.537 55.594C275.23 56.5355 275.718 57.6119 275.969 58.7536C276.22 59.8953 276.229 61.077 275.995 62.2224C275.785 63.103 275.446 63.948 274.99 64.7301C274.55 65.491 274.04 66.2085 273.465 66.8733C272.902 67.5362 272.361 68.1659 271.864 68.7735C271.377 69.3396 270.944 69.9498 270.571 70.5963C270.221 71.163 270.044 71.8196 270.063 72.4854C270.053 72.7966 269.966 73.1004 269.809 73.3692C269.729 73.4931 269.623 73.5985 269.5 73.6785C269.376 73.7585 269.236 73.8113 269.091 73.8332L265.776 74.3635C265.622 74.3916 265.463 74.3885 265.309 74.3543C265.155 74.3202 265.01 74.2557 264.882 74.1646C264.751 74.0826 264.642 73.9707 264.563 73.8381C264.484 73.7056 264.438 73.5562 264.429 73.4023C264.29 72.3743 264.365 71.3287 264.65 70.3312C264.909 69.4481 265.281 68.6016 265.754 67.8124C266.219 67.0549 266.751 66.3413 267.345 65.6802C267.931 65.0174 268.45 64.3987 268.958 63.8022C269.412 63.2694 269.805 62.6877 270.129 62.0677C270.417 61.5341 270.521 60.921 270.427 60.3222C270.344 59.7952 270.135 59.296 269.818 58.8671C269.5 58.4382 269.084 58.0923 268.605 57.8587C267.417 57.2849 266.073 57.1218 264.782 57.3947C263.614 57.5655 262.527 58.0936 261.671 58.9065C260.814 59.7194 260.23 60.7773 259.999 61.9352C259.934 62.2137 259.822 62.479 259.667 62.7195C259.47 62.9292 259.203 63.059 258.916 63.0841L255.425 63.6475C255.18 63.6945 254.926 63.6429 254.718 63.5039C254.612 63.4308 254.522 63.3358 254.455 63.2253C254.389 63.1148 254.346 62.9913 254.331 62.8631C254.227 61.7669 254.398 60.662 254.828 59.6483C255.265 58.4688 255.909 57.3765 256.729 56.4225C257.627 55.3779 258.686 54.483 259.866 53.7711C261.139 52.9991 262.55 52.4814 264.02 52.2466ZM269.72 76.3851C269.872 76.361 270.028 76.3671 270.178 76.4032C270.327 76.4392 270.469 76.5044 270.593 76.595C270.723 76.6806 270.834 76.7928 270.918 76.9242C271.001 77.0556 271.056 77.2032 271.079 77.3573L271.698 81.1466C271.746 81.454 271.671 81.7678 271.489 82.0201C271.307 82.2724 271.032 82.4428 270.726 82.4944L267.025 83.102C266.718 83.1495 266.404 83.0741 266.152 82.8921C266.024 82.8054 265.915 82.6927 265.834 82.5614C265.752 82.4301 265.698 82.283 265.677 82.1298L265.058 78.3405C265.03 78.1885 265.035 78.0322 265.071 77.8819C265.107 77.7315 265.174 77.5905 265.268 77.4678C265.355 77.3396 265.468 77.2311 265.599 77.1493C265.73 77.0675 265.877 77.0141 266.031 76.9928L269.72 76.3851Z" fill="#F68B1E"/>
<g opacity="0.2">
<path d="M264.021 52.2466C265.351 52.0332 266.705 52.0072 268.042 52.1693C269.32 52.3211 270.561 52.695 271.71 53.274C272.804 53.8416 273.767 54.6319 274.538 55.594C275.231 56.5355 275.719 57.6119 275.97 58.7536C276.221 59.8953 276.23 61.077 275.996 62.2224C275.786 63.103 275.447 63.948 274.991 64.7301C274.551 65.491 274.041 66.2085 273.466 66.8733C272.903 67.5362 272.362 68.1659 271.865 68.7735C271.378 69.3396 270.945 69.9498 270.572 70.5963C270.222 71.163 270.045 71.8196 270.064 72.4854C270.054 72.7966 269.967 73.1004 269.81 73.3692C269.73 73.4931 269.624 73.5985 269.501 73.6785C269.377 73.7585 269.237 73.8113 269.092 73.8332L265.777 74.3635C265.623 74.3916 265.464 74.3885 265.31 74.3543C265.156 74.3202 265.011 74.2557 264.883 74.1646C264.752 74.0826 264.643 73.9707 264.564 73.8381C264.485 73.7056 264.439 73.5562 264.43 73.4023C264.291 72.3743 264.366 71.3287 264.651 70.3312C264.91 69.4481 265.282 68.6016 265.755 67.8124C266.22 67.0549 266.752 66.3413 267.346 65.6802C267.932 65.0174 268.451 64.3987 268.959 63.8022C269.413 63.2694 269.806 62.6877 270.13 62.0677C270.418 61.5341 270.522 60.921 270.428 60.3222C270.345 59.7952 270.136 59.296 269.819 58.8671C269.501 58.4382 269.085 58.0923 268.606 57.8587C267.418 57.2849 266.074 57.1218 264.783 57.3947C263.615 57.5655 262.528 58.0936 261.671 58.9065C260.815 59.7194 260.231 60.7773 260 61.9352C259.935 62.2137 259.823 62.479 259.668 62.7195C259.471 62.9292 259.204 63.059 258.917 63.0841L255.426 63.6475C255.181 63.6945 254.927 63.6429 254.719 63.5039C254.613 63.4308 254.523 63.3358 254.456 63.2253C254.39 63.1148 254.347 62.9913 254.332 62.8631C254.228 61.7669 254.399 60.662 254.829 59.6483C255.266 58.4688 255.91 57.3765 256.73 56.4225C257.628 55.3779 258.687 54.483 259.867 53.7711C261.14 52.9991 262.551 52.4814 264.021 52.2466ZM269.721 76.3851C269.873 76.361 270.029 76.3671 270.179 76.4032C270.328 76.4392 270.47 76.5044 270.594 76.595C270.724 76.6806 270.835 76.7928 270.919 76.9242C271.002 77.0556 271.057 77.2032 271.08 77.3573L271.699 81.1466C271.747 81.454 271.672 81.7678 271.49 82.0201C271.308 82.2724 271.033 82.4428 270.727 82.4944L267.026 83.102C266.719 83.1495 266.405 83.0741 266.153 82.8921C266.025 82.8054 265.916 82.6927 265.835 82.5614C265.753 82.4301 265.699 82.283 265.678 82.1298L265.059 78.3405C265.031 78.1885 265.035 78.0322 265.072 77.8819C265.108 77.7315 265.175 77.5905 265.269 77.4678C265.356 77.3396 265.469 77.2311 265.6 77.1493C265.731 77.0675 265.878 77.0141 266.031 76.9928L269.721 76.3851Z" fill="black"/>
</g>
<path d="M295.262 58.2013C295.413 58.306 295.54 58.4403 295.637 58.5961C295.734 58.7519 295.798 58.9258 295.826 59.1072C295.861 59.2869 295.858 59.4719 295.818 59.6507C295.778 59.8294 295.702 59.9979 295.594 60.1456L292.964 63.8465C292.86 63.9971 292.725 64.1248 292.569 64.2216C292.414 64.3185 292.24 64.3826 292.058 64.4099C291.879 64.4451 291.694 64.4426 291.515 64.4027C291.336 64.3627 291.168 64.2862 291.02 64.1779L287.396 61.6039C287.245 61.5005 287.118 61.3664 287.023 61.2102C286.928 61.0541 286.867 60.8795 286.844 60.698C286.809 60.5182 286.811 60.3332 286.851 60.1545C286.891 59.9757 286.968 59.8072 287.076 59.6595L289.738 55.9587C289.954 55.6587 290.279 55.4557 290.643 55.3936C291.006 55.3316 291.38 55.4155 291.683 55.6272L295.262 58.2013ZM310.552 33.1347C311.873 34.0607 313.049 35.1776 314.043 36.449C315.011 37.6316 315.76 38.9787 316.252 40.426C316.711 41.813 316.865 43.2825 316.705 44.7345C316.518 46.2829 315.932 47.7561 315.004 49.0098C314.314 50.0235 313.428 50.8877 312.397 51.5507C311.489 52.1197 310.503 52.5515 309.469 52.8322C308.462 53.0954 307.435 53.2728 306.398 53.3625L303.459 53.6277C302.578 53.6981 301.705 53.8497 300.852 54.0806C300.065 54.2593 299.345 54.6577 298.775 55.2295C298.518 55.4908 298.193 55.6746 297.836 55.7598C297.667 55.8084 297.488 55.8158 297.315 55.7812C297.142 55.7466 296.98 55.6711 296.842 55.5609L293.638 53.2852C293.332 53.0665 293.122 52.738 293.053 52.3683C293.011 52.1891 293.013 52.0027 293.057 51.8242C293.101 51.6457 293.187 51.4801 293.307 51.3408C294.055 50.3697 294.99 49.5583 296.058 48.9546C297.018 48.43 298.043 48.0326 299.107 47.7725C300.133 47.5235 301.179 47.3646 302.233 47.2975C303.271 47.2312 304.244 47.1539 305.15 47.0655C305.979 46.9923 306.797 46.8293 307.591 46.5794C308.285 46.3482 308.883 45.8937 309.292 45.2869C309.662 44.7744 309.902 44.1804 309.992 43.5553C310.082 42.9302 310.02 42.2925 309.812 41.6965C309.289 40.224 308.29 38.9682 306.972 38.1282C304.586 36.4269 301.983 36.3716 299.162 37.9624C298.878 38.1431 298.563 38.2704 298.234 38.3381C298.062 38.35 297.89 38.3278 297.727 38.2729C297.564 38.2179 297.413 38.1311 297.284 38.0177L293.881 35.5983C293.758 35.5165 293.652 35.4108 293.571 35.2874C293.489 35.1641 293.433 35.0256 293.406 34.8802C293.38 34.7299 293.385 34.5757 293.421 34.4274C293.457 34.2791 293.523 34.1399 293.616 34.0185C294.419 32.9899 295.462 32.1743 296.654 31.6433C298.008 31.0299 299.459 30.6561 300.94 30.5386C302.571 30.4023 304.213 30.5329 305.801 30.9253C307.516 31.3384 309.131 32.0896 310.552 33.1347Z" fill="#F68B1E"/>
<g opacity="0.6">
<path d="M295.262 58.2013C295.413 58.306 295.54 58.4403 295.637 58.5961C295.734 58.7519 295.798 58.9258 295.826 59.1072C295.861 59.2869 295.858 59.4719 295.818 59.6507C295.778 59.8294 295.702 59.9979 295.594 60.1456L292.964 63.8465C292.86 63.9971 292.725 64.1248 292.569 64.2216C292.414 64.3185 292.24 64.3826 292.058 64.4099C291.879 64.4451 291.694 64.4426 291.515 64.4027C291.336 64.3627 291.168 64.2862 291.02 64.1779L287.396 61.6039C287.245 61.5005 287.118 61.3664 287.023 61.2102C286.928 61.0541 286.867 60.8795 286.844 60.698C286.809 60.5182 286.811 60.3332 286.851 60.1545C286.891 59.9757 286.968 59.8072 287.076 59.6595L289.738 55.9587C289.954 55.6587 290.279 55.4557 290.643 55.3936C291.006 55.3316 291.38 55.4155 291.683 55.6272L295.262 58.2013ZM310.552 33.1347C311.873 34.0607 313.049 35.1776 314.043 36.449C315.011 37.6316 315.76 38.9787 316.252 40.426C316.711 41.813 316.865 43.2825 316.705 44.7345C316.518 46.2829 315.932 47.7561 315.004 49.0098C314.314 50.0235 313.428 50.8877 312.397 51.5507C311.489 52.1197 310.503 52.5515 309.469 52.8322C308.462 53.0954 307.435 53.2728 306.398 53.3625L303.459 53.6277C302.578 53.6981 301.705 53.8497 300.852 54.0806C300.065 54.2593 299.345 54.6577 298.775 55.2295C298.518 55.4908 298.193 55.6746 297.836 55.7598C297.667 55.8084 297.488 55.8158 297.315 55.7812C297.142 55.7466 296.98 55.6711 296.842 55.5609L293.638 53.2852C293.332 53.0665 293.122 52.738 293.053 52.3683C293.011 52.1891 293.013 52.0027 293.057 51.8242C293.101 51.6457 293.187 51.4801 293.307 51.3408C294.055 50.3697 294.99 49.5583 296.058 48.9546C297.018 48.43 298.043 48.0326 299.107 47.7725C300.133 47.5235 301.179 47.3646 302.233 47.2975C303.271 47.2312 304.244 47.1539 305.15 47.0655C305.979 46.9923 306.797 46.8293 307.591 46.5794C308.285 46.3482 308.883 45.8937 309.292 45.2869C309.662 44.7744 309.902 44.1804 309.992 43.5553C310.082 42.9302 310.02 42.2925 309.812 41.6965C309.289 40.224 308.29 38.9682 306.972 38.1282C304.586 36.4269 301.983 36.3716 299.162 37.9624C298.878 38.1431 298.563 38.2704 298.234 38.3381C298.062 38.35 297.89 38.3278 297.727 38.2729C297.564 38.2179 297.413 38.1311 297.284 38.0177L293.881 35.5983C293.758 35.5165 293.652 35.4108 293.571 35.2874C293.489 35.1641 293.433 35.0256 293.406 34.8802C293.38 34.7299 293.385 34.5757 293.421 34.4274C293.457 34.2791 293.523 34.1399 293.616 34.0185C294.419 32.9899 295.462 32.1743 296.654 31.6433C298.008 31.0299 299.459 30.6561 300.94 30.5386C302.571 30.4023 304.213 30.5329 305.801 30.9253C307.516 31.3384 309.131 32.0896 310.552 33.1347Z" fill="white"/>
</g>
<path d="M212.993 155.994H173.741V60.8985C173.741 52.6389 177.022 44.7177 182.863 38.8773C188.703 33.0369 196.624 29.7559 204.884 29.7559H208.507C216.767 29.7559 224.688 33.0369 230.529 38.8773C236.369 44.7177 239.65 52.6389 239.65 60.8985V129.392C239.635 136.453 236.82 143.219 231.823 148.206C226.825 153.193 220.053 155.994 212.993 155.994Z" fill="#263238"/>
<path d="M169.918 384.93C169.224 388.87 168.854 392.86 168.813 396.861C168.67 404.108 167.344 406.682 167.167 412.626C166.957 419.42 168.139 421.961 170.89 425.783C173.641 429.605 180.833 433.063 183.948 426.612C187.064 420.16 186.611 415.929 185.627 409.267C184.622 402.374 184.523 398.562 183.904 393.315C183.396 388.686 182.799 385.162 182.799 385.162L169.918 384.93Z" fill="#263238"/>
<path d="M190.49 336.796L166.628 336.365C166.981 352.296 169.511 369.982 169.942 384.974C170.031 387.791 169.876 406.837 170.936 412.592C172.538 421.298 182.857 420.116 183.409 414.912C183.961 409.709 182.746 387.47 182.779 385.173C182.68 375.583 187.198 359.399 189.529 342.187C189.629 341.359 190.38 337.625 190.49 336.796Z" fill="#FFA8A7"/>
<path d="M221.146 372.535C221.146 372.535 220.207 372.027 220.041 373.032C219.809 374.225 219.456 376.689 218.937 378.655C218.252 381.384 217.677 385.88 218.086 388.112C218.495 390.343 223.687 393.193 227.056 394.232C231.209 395.513 234.996 397.767 238.104 400.805C241.418 403.942 248.632 406.903 253.57 406.87C259.37 406.87 263.413 404.937 265.324 401.832C267.236 398.728 263.579 398.352 256.951 394.099L251.814 390.785C241.307 383.925 237.452 380.257 234.502 373.396L221.146 372.535Z" fill="#263238"/>
<path d="M234.59 368.282C234.413 363.355 237.815 321.475 237.815 321.475L215.157 331.804C220.007 360.77 221.045 367.609 221.123 372.348C221.023 372.745 220.983 373.154 221.001 373.563C221.001 379.186 227.376 382.224 232.325 385.98C236.532 389.276 241.016 392.204 245.725 394.73C249.327 396.531 256.64 396.696 257.546 394.387C251.514 389.781 242.743 382.887 237.948 377.628C235.606 375.154 234.766 373.221 234.59 368.282Z" fill="#FFA8A7"/>
<path d="M176.403 181.35C167.698 200.451 167.698 215.232 169.145 239.614C170.426 261.985 172.559 281.704 172.559 281.704C172.227 285.67 166.714 293.414 165.996 310.958C165.334 327.352 167.101 348.198 167.101 348.198C167.101 348.198 179.485 355.059 188.644 348.132C188.644 348.132 197.481 305.942 200.067 285.416C202.276 267.508 206.253 244.629 206.253 244.629L214.616 285.295C212.811 291.064 211.503 296.978 210.705 302.97C209.534 315.045 216.295 338.753 216.295 338.753C216.295 338.753 229.088 342.564 236.899 335.638C236.899 335.638 239.815 297.093 240.909 282.555C242.367 263.078 239.296 210.36 236.899 182.443L176.403 181.35Z" fill="#455A64"/>
<path d="M206.276 244.594L209.712 213.949C209.712 213.949 225.112 211.894 232.094 205.332C230.096 208.459 227.434 211.107 224.297 213.089C221.16 215.07 217.625 216.337 213.943 216.799L208.972 245.313L214.617 285.293L206.276 244.594Z" fill="#263238"/>
<path d="M268.637 173.814C269.273 168.222 269.554 162.595 269.477 156.967C269.134 152.106 268.262 151.311 261.467 142.705C252.298 131.072 244.466 120.61 236.18 110.214C230.259 102.791 224.028 101.653 217.974 101.984C213.732 102.216 222.017 122.621 226.182 134.695L249.967 160.303C250.704 161.314 251.042 162.561 250.917 163.805L249.481 185.591L256.607 195.136C256.607 195.136 267.4 185.834 268.637 173.814Z" fill="#FFA8A7"/>
<path d="M195.041 102.648C190.434 102.968 182.06 103.752 182.06 103.752C177.233 106.448 176.006 108.669 175.112 115.076C174.725 117.816 176.956 125.096 178.868 135.447L182.491 154.637L182.093 164.16C180.215 169.97 175.962 177.184 172.206 187.823C190.655 198.119 206.122 198.506 220.152 196.661C230.846 195.28 236.513 192.695 238.402 190.132C238.004 179.626 237.297 173.13 237.076 162.149C236.999 157.542 237.275 152.88 237.463 147.577C244.633 141.678 244.721 131.868 240.777 125.483C231.685 110.756 222.836 101.488 216.981 101.963L195.041 102.648Z" fill="#F68B1E"/>
<path opacity="0.6" d="M195.041 102.648C190.434 102.968 182.06 103.752 182.06 103.752C177.233 106.448 176.006 108.669 175.112 115.076C174.725 117.816 176.956 125.096 178.868 135.447L182.491 154.637L182.093 164.16C180.215 169.97 175.962 177.184 172.206 187.823C190.655 198.119 206.122 198.506 220.152 196.661C230.846 195.28 236.513 192.695 238.402 190.132C238.004 179.626 237.297 173.13 237.076 162.149C236.999 157.542 237.275 152.88 237.463 147.577C244.633 141.678 244.721 131.868 240.777 125.483C231.685 110.756 222.836 101.488 216.981 101.963L195.041 102.648Z" fill="white"/>
<path opacity="0.1" d="M223.177 147.72C223.177 147.72 214.759 154.26 205.137 150.847C202.435 149.995 199.998 148.461 198.063 146.392C196.127 144.323 194.759 141.79 194.089 139.037C194.089 139.037 193.073 150.029 205.192 153.774C216.935 157.387 223.177 147.72 223.177 147.72Z" fill="black"/>
<path d="M234.602 72.4771C234.237 88.4296 229.078 92.3624 226.471 93.4672C223.864 94.5719 218.87 93.9091 214.009 93.1026V102.736C214.009 102.736 219.621 108.613 219.202 112.999C218.782 117.385 210.364 117.882 204.089 113.584C200.626 111.206 197.495 108.379 194.776 105.177C194.254 104.56 193.968 103.777 193.969 102.968V80.4312C193.969 80.4312 191.307 83.2483 186.601 80.0225C185.585 79.3744 184.716 78.5222 184.048 77.5199C183.379 76.5177 182.927 75.3873 182.719 74.2008C182.511 73.0142 182.553 71.7974 182.84 70.6277C183.128 69.458 183.656 68.3609 184.391 67.4064C186.446 64.987 191.66 64.8213 194.157 68.5111C195.571 71.2619 195.759 74.0348 197.339 72.9301C201.537 69.9031 199.283 62.9874 204.354 59.6732C206.018 58.8047 207.746 58.066 209.524 57.4637C218.572 54.3373 226.416 51.708 228.305 45.5215C231.862 47.5542 235.044 53.6634 234.602 72.4771Z" fill="#FFA8A7"/>
<path d="M216.76 86.7273C217.919 86.7273 218.859 85.7876 218.859 84.6283C218.859 83.4691 217.919 82.5293 216.76 82.5293C215.601 82.5293 214.661 83.4691 214.661 84.6283C214.661 85.7876 215.601 86.7273 216.76 86.7273Z" fill="#B16668"/>
<path d="M215.367 70.0579C215.367 70.4901 215.239 70.9126 215.001 71.2732C214.763 71.6338 214.424 71.9166 214.027 72.0866C213.629 72.2565 213.191 72.3063 212.766 72.2296C212.34 72.1529 211.947 71.9532 211.634 71.6552C211.321 71.3571 211.102 70.9738 211.005 70.5527C210.908 70.1317 210.936 69.6913 211.086 69.2862C211.237 68.881 211.503 68.5289 211.851 68.2733C212.2 68.0178 212.616 67.8701 213.047 67.8485C213.347 67.8335 213.646 67.8795 213.927 67.9839C214.208 68.0882 214.464 68.2485 214.682 68.4552C214.899 68.6619 215.071 68.9106 215.189 69.1861C215.307 69.4616 215.368 69.7583 215.367 70.0579Z" fill="#263238"/>
<path d="M232.105 70.2784C232.128 70.5487 232.096 70.8207 232.013 71.0788C231.929 71.3368 231.795 71.5756 231.618 71.7813C231.441 71.9869 231.225 72.1553 230.983 72.2766C230.74 72.3979 230.476 72.4697 230.205 72.4878C229.932 72.5131 229.657 72.4799 229.397 72.3906C229.138 72.3012 228.901 72.1578 228.701 71.9697C228.502 71.7816 228.344 71.5533 228.24 71.2997C228.135 71.0462 228.086 70.7734 228.095 70.4993C228.066 70.227 228.094 69.9518 228.175 69.6905C228.257 69.4291 228.391 69.1872 228.57 68.9796C228.748 68.7719 228.967 68.6029 229.213 68.4829C229.459 68.3628 229.727 68.2943 230.001 68.2815C230.274 68.2687 230.547 68.3119 230.803 68.4084C231.06 68.5049 231.293 68.6527 231.49 68.8428C231.688 69.0329 231.844 69.2612 231.949 69.5137C232.055 69.7663 232.108 70.0377 232.105 70.3115V70.2784Z" fill="#263238"/>
<path d="M212.528 75.7356C210.622 75.7356 208.795 74.9794 207.446 73.6331C206.098 72.2867 205.339 70.4603 205.336 68.5548C205.336 63.6719 210.374 63.6719 212.528 63.6719C214.682 63.6719 219.709 63.6719 219.709 68.5548C219.706 70.4584 218.948 72.2832 217.602 73.6292C216.256 74.9752 214.431 75.7327 212.528 75.7356ZM212.528 64.7987C208.109 64.7987 206.474 65.9034 206.474 68.5548C206.474 70.1663 207.114 71.7118 208.253 72.8513C209.393 73.9907 210.938 74.6309 212.55 74.6309C214.161 74.6309 215.707 73.9907 216.846 72.8513C217.986 71.7118 218.626 70.1663 218.626 68.5548C218.582 65.8482 216.88 64.7987 212.528 64.7987Z" fill="#455A64"/>
<path d="M230.768 75.7356C228.863 75.7356 227.035 74.9794 225.687 73.6331C224.338 72.2867 223.579 70.4603 223.576 68.5548C223.576 63.6719 228.614 63.6719 230.768 63.6719C232.922 63.6719 237.949 63.6719 237.949 68.5548C237.946 70.4584 237.188 72.2832 235.842 73.6292C234.496 74.9752 232.672 75.7327 230.768 75.7356ZM230.768 64.7987C226.415 64.7987 224.714 65.9034 224.714 68.5548C224.714 70.1663 225.354 71.7118 226.494 72.8513C227.633 73.9907 229.179 74.6309 230.79 74.6309C232.402 74.6309 233.947 73.9907 235.087 72.8513C236.226 71.7118 236.866 70.1663 236.866 68.5548C236.822 65.8482 235.121 64.7987 230.768 64.7987Z" fill="#455A64"/>
<path d="M220.826 66.2344L221.18 79.657L228.239 77.4696L220.826 66.2344Z" fill="#F28F8F"/>
<path d="M213.998 93.1346C208.872 92.4607 198.322 89.4337 196.676 85.2578C197.338 87.3683 198.63 89.226 200.377 90.5827C203.525 93.2893 213.998 96.3273 213.998 96.3273V93.1346Z" fill="#F28F8F"/>
<path d="M214.251 59.7175L209.567 62.5787C209.198 61.9357 209.091 61.1752 209.268 60.4551C209.445 59.7351 209.892 59.1109 210.517 58.7122C210.826 58.5246 211.17 58.4017 211.528 58.3508C211.886 58.3 212.25 58.3222 212.599 58.4161C212.949 58.5101 213.275 58.6739 213.559 58.8976C213.843 59.1212 214.078 59.4001 214.251 59.7175Z" fill="#263238"/>
<path d="M233.309 62.8987L228.095 61.0759C228.196 60.7303 228.366 60.409 228.596 60.1318C228.826 59.8545 229.109 59.6272 229.43 59.4637C229.751 59.3002 230.102 59.2041 230.461 59.1811C230.82 59.1582 231.18 59.209 231.519 59.3304C232.219 59.5817 232.795 60.0924 233.128 60.7567C233.461 61.4209 233.526 62.1879 233.309 62.8987Z" fill="#263238"/>
<path d="M219.146 69.129C219.071 69.129 218.996 69.1141 218.927 69.0851C218.858 69.056 218.796 69.0136 218.743 68.9601C218.691 68.9066 218.649 68.8431 218.622 68.7735C218.594 68.7039 218.581 68.6294 218.582 68.5545C218.582 67.6376 220.394 67.041 222.029 67.041C223.664 67.041 224.713 67.6376 224.713 68.5545C224.679 68.6745 224.607 68.7802 224.507 68.8553C224.407 68.9305 224.286 68.9712 224.161 68.9712C224.036 68.9712 223.915 68.9305 223.815 68.8553C223.715 68.7802 223.643 68.6745 223.609 68.5545C223.609 68.444 223.045 68.1678 222.062 68.1678C221.27 68.151 220.483 68.286 219.742 68.5656C219.742 68.6424 219.727 68.7185 219.696 68.7891C219.666 68.8597 219.621 68.9234 219.566 68.9761C219.51 69.0289 219.444 69.0697 219.371 69.096C219.299 69.1223 219.222 69.1335 219.146 69.129Z" fill="#455A64"/>
<path d="M205.921 68.642H205.855L193.228 67.5372C192.638 66.9524 191.935 66.4939 191.162 66.1895L205.988 67.5593C206.136 67.5787 206.272 67.6554 206.364 67.773C206.457 67.8907 206.501 68.04 206.485 68.189C206.459 68.3186 206.388 68.435 206.285 68.5178C206.182 68.6006 206.054 68.6445 205.921 68.642Z" fill="#455A64"/>
<path d="M154.076 81.8114C158.208 76.2877 161.025 72.1228 164.792 67.4498C166.936 64.7653 168.305 62.843 170.316 60.0922C171.73 58.1921 172.526 56.5902 174.139 56.0047C175.881 55.2906 177.452 54.2136 178.745 52.8451C179.541 51.9653 180.279 51.0354 180.955 50.0612C183.323 46.8741 186.135 44.0429 189.307 41.6541C192.621 39.1574 196.322 37.2352 199.735 34.86C201.768 33.4348 203.944 31.0707 201.47 28.8612C200.711 28.222 199.803 27.785 198.829 27.5908C192.809 26.2872 187.572 28.353 181.684 29.8555C179.126 30.4939 176.625 31.34 174.205 32.3853C173.014 32.8561 171.898 33.4961 170.891 34.2855C169.482 35.7059 168.327 37.3575 167.477 39.1684C164.903 43.7642 159.379 47.8738 155.513 51.5084C150.994 55.7616 146.951 59.6614 141.792 64.3455C137.152 68.5766 132.611 72.4653 128.358 77.0831C124.834 80.8945 126.149 83.8773 126.613 84.9157C129.485 90.815 132.7 92.9361 136.555 96.5928C143.184 102.923 166.107 121.14 173.697 127.161C175.327 128.442 176.608 130.114 177.42 132.022L178.878 135.391C187.539 136.982 193.317 123.979 186.147 108.325C184.96 105.794 183.146 103.607 180.877 101.973C171.819 95.3776 154.076 81.8114 154.076 81.8114Z" fill="#FFA8A7"/>
<path d="M154.077 81.8105C151.32 85.2019 147.646 87.729 143.493 89.0908C143.493 89.0908 149.017 90.5048 156.584 83.7107L154.077 81.8105Z" fill="#F28F8F"/>
<path d="M266.384 162.292L264.97 161.077C264.759 160.937 264.518 160.85 264.266 160.821C264.015 160.792 263.76 160.823 263.523 160.911L248.178 165.087C247.405 165.344 246.697 165.766 246.102 166.323C245.507 166.88 245.04 167.558 244.731 168.313L233.684 200.162C233.551 200.422 233.499 200.715 233.534 201.005C233.57 201.294 233.691 201.566 233.883 201.786L235.341 203.046C235.553 203.192 235.798 203.284 236.054 203.315C236.31 203.346 236.57 203.314 236.81 203.222L252.177 199.046C252.95 198.789 253.658 198.367 254.253 197.81C254.848 197.254 255.316 196.575 255.624 195.821C257.834 189.557 264.462 170.235 266.672 163.971C266.937 163.187 266.804 162.59 266.384 162.292Z" fill="#455A64"/>
<path d="M235.132 201.389L246.18 169.539C246.487 168.786 246.954 168.108 247.549 167.553C248.145 166.997 248.853 166.578 249.627 166.325L264.96 162.149C266.386 161.762 267.17 162.579 266.662 163.971C264.452 170.235 257.824 189.557 255.614 195.821C255.306 196.575 254.838 197.254 254.244 197.811C253.649 198.368 252.94 198.789 252.168 199.047L236.834 203.267C235.42 203.598 234.657 202.781 235.132 201.389Z" fill="#F68B1E"/>
<path d="M247.958 167.208C247.161 167.812 246.542 168.621 246.169 169.55L235.121 201.388C234.995 201.641 234.942 201.925 234.97 202.206C234.997 202.487 235.103 202.755 235.276 202.979L233.906 201.808C233.71 201.591 233.585 201.319 233.547 201.029C233.509 200.739 233.562 200.444 233.696 200.184L244.744 168.334C245.093 167.469 245.66 166.708 246.39 166.125L247.958 167.208Z" fill="#37474F"/>
<path d="M262.177 176.809C261.072 180.046 257.238 182.211 250.897 183.713C244.556 185.216 241.054 191.944 242.059 193.988C243.065 196.031 253.317 197.942 257.415 197.357C261.514 196.771 265.623 190.85 266.872 189.016C268.12 187.182 269.556 174.389 268.242 172.633C266.927 170.876 264.154 171.153 264.154 171.153L262.177 176.809Z" fill="#F28F8F"/>
</svg>
