<svg width="564" height="554" viewBox="0 0 564 554" fill="none" xmlns="http://www.w3.org/2000/svg">
<path d="M480.639 552.921C480.639 553.106 389.022 553.264 276.044 553.264C163.067 553.264 71.4102 553.106 71.4102 552.921C71.4102 552.736 163.014 552.578 276.044 552.578C389.075 552.578 480.639 552.75 480.639 552.921Z" fill="#263238"/>
<path d="M391.37 391.404C370.986 377.168 366.368 350.741 367.173 326.98C367.305 323.021 366.869 318.826 368.756 315.356C370.643 311.886 375.049 309.498 378.598 311.16C381.541 312.546 382.82 315.976 384.47 318.813C386.67 322.591 389.895 325.669 393.771 327.692C396.291 329.011 399.418 329.803 401.912 328.431C405.342 326.544 405.738 321.834 405.711 317.876C405.711 310.514 405.668 303.161 405.58 295.816C405.342 291.872 405.743 287.916 406.767 284.1C407.994 280.353 410.725 276.883 414.459 275.828C418.193 274.772 422.85 276.949 423.694 280.802C423.84 282.433 423.879 284.073 423.813 285.71C423.919 287.359 424.684 289.166 426.228 289.668C427.771 290.169 429.381 289.021 430.568 287.86C434.632 283.902 437.403 278.743 439.975 273.651C442.548 268.558 445.068 263.32 448.762 258.979C452.457 254.639 457.563 251.195 463.276 250.865C468.988 250.535 474.939 254.045 476.364 259.586C477.789 265.128 474.556 270.788 471.086 275.287C465.85 281.965 459.678 287.853 452.76 292.768C451.41 293.506 450.332 294.657 449.686 296.054C448.828 298.692 451.322 301.331 453.921 302.162C456.863 303.139 460.056 302.835 463.157 303.205C466.257 303.574 469.556 304.92 470.73 307.822C472.34 311.86 468.962 316.082 465.65 318.852C459.001 324.394 451.45 328.754 443.327 331.742C440.424 332.798 437.376 333.735 435.028 335.767C432.679 337.798 431.281 341.348 432.693 344.131C434.104 346.915 437.733 347.799 440.78 347.232C443.828 346.665 446.533 345.029 449.435 343.933C454.858 341.888 461.851 342.258 465.268 346.942C466.326 348.555 466.997 350.392 467.225 352.308C467.454 354.224 467.236 356.167 466.587 357.985C465.267 361.602 463.234 364.917 460.61 367.735C451.969 378.059 440.741 385.904 428.075 390.468C415.501 394.822 403.851 396.009 391.357 391.431" fill="#F68B1E"/>
<path d="M470.558 254.123C470.558 254.123 470.44 254.255 470.176 254.492L469.001 255.535C467.972 256.458 466.455 257.804 464.542 259.585C459.118 264.621 454.081 270.059 449.475 275.853C446.533 279.508 443.485 283.651 440.239 288.15C436.994 292.649 433.642 297.504 430.318 302.663C426.773 308.103 423.527 313.731 420.594 319.524C419.063 322.546 417.718 325.699 416.332 328.918L412.242 338.747C406.851 351.128 402.155 363.801 398.178 376.706C394.974 387.264 392.765 398.1 391.581 409.07C390.813 416.473 390.69 423.929 391.211 431.354C391.422 433.993 391.62 436.011 391.805 437.383C391.884 438.043 391.937 438.571 391.99 438.954V439.495C391.933 439.323 391.893 439.146 391.871 438.967C391.805 438.584 391.726 438.07 391.62 437.41C391.383 436.09 391.132 434.006 390.895 431.367C390.258 423.929 390.302 416.448 391.027 409.017C392.137 398 394.298 387.114 397.478 376.508C401.423 363.567 406.105 350.862 411.503 338.457L415.699 328.667C417.084 325.461 418.443 322.282 419.987 319.247C422.94 313.437 426.213 307.795 429.79 302.346C433.167 297.069 436.571 292.292 439.777 287.833C442.983 283.373 446.084 279.204 449.013 275.563C453.666 269.785 458.771 264.385 464.278 259.414C466.231 257.659 467.788 256.34 468.843 255.456L470.07 254.466C470.22 254.335 470.384 254.22 470.558 254.123Z" fill="#263238"/>
<path d="M420.158 319.222C419.972 318.679 419.843 318.117 419.775 317.547C419.564 316.452 419.327 314.908 419.049 312.902C418.482 308.944 417.902 303.522 417.281 297.519C416.661 291.515 415.962 286.08 415.382 282.161C415.078 280.208 414.814 278.638 414.63 277.543C414.485 276.983 414.41 276.407 414.405 275.828C414.632 276.357 414.796 276.91 414.893 277.477C415.184 278.559 415.514 280.116 415.883 282.082C416.635 286.04 417.374 291.423 417.994 297.439C418.614 303.456 419.142 308.733 419.551 312.836C419.749 314.684 419.92 316.254 420.052 317.507C420.155 318.073 420.19 318.648 420.158 319.222Z" fill="#263238"/>
<path d="M470.929 309.75C470.287 309.889 469.634 309.969 468.977 309.987C467.657 310.106 465.784 310.264 463.462 310.528C458.818 311.029 452.432 311.953 445.426 313.272C438.42 314.592 432.127 316.082 427.601 317.23C425.345 317.811 423.524 318.339 422.324 318.695C421.683 318.923 421.019 319.082 420.345 319.17C420.954 318.863 421.59 318.612 422.245 318.418C423.485 317.982 425.279 317.375 427.522 316.729C432.021 315.41 438.315 313.84 445.347 312.494C451.304 311.355 457.315 310.518 463.356 309.987C465.691 309.789 467.578 309.71 468.898 309.684C469.575 309.637 470.256 309.66 470.929 309.75Z" fill="#263238"/>
<path d="M398.124 375.586C397.983 375.395 397.868 375.186 397.781 374.966L396.91 373.132C396.158 371.535 395.142 369.174 393.928 366.284C391.474 360.479 388.347 352.352 385.023 343.327C381.698 334.303 378.637 326.175 376.315 320.304C375.18 317.454 374.243 315.119 373.544 313.377L372.805 311.491C372.703 311.273 372.632 311.042 372.594 310.805C372.735 310.996 372.85 311.204 372.937 311.425L373.808 313.259C374.547 314.855 375.576 317.217 376.79 320.106C379.244 325.911 382.371 334.039 385.696 343.063C389.02 352.088 392.081 360.215 394.403 366.086C395.538 368.936 396.475 371.271 397.161 373.013C397.464 373.765 397.715 374.332 397.913 374.9C398.015 375.117 398.086 375.348 398.124 375.586Z" fill="#263238"/>
<path d="M465.519 353.855C465.308 353.977 465.082 354.07 464.846 354.133L462.894 354.792L455.677 357.128C449.581 359.107 441.164 361.93 431.928 365.044C422.693 368.157 414.235 370.928 408.1 372.775C405.039 373.712 402.546 374.424 400.817 374.899L398.825 375.414C398.594 375.488 398.355 375.536 398.113 375.559C398.324 375.438 398.55 375.345 398.786 375.282L400.738 374.622L407.955 372.287C414.051 370.308 422.468 367.485 431.704 364.371C440.94 361.257 449.383 358.486 455.519 356.639C458.593 355.703 461.073 354.99 462.815 354.515L464.807 354.001C465.039 353.927 465.277 353.878 465.519 353.855Z" fill="#263238"/>
<path d="M438.024 33.8148L431.229 36.2425L428.313 27.3631C422.956 10.9897 405.884 2.2951 390.197 7.82326C374.509 13.3514 366.158 31.308 371.514 47.6814L374.43 56.5608L367.609 59.0016C365.008 60.0105 362.896 61.9829 361.711 64.5088C360.527 67.0348 360.362 69.92 361.25 72.5647L380.156 130.34C380.549 131.649 381.2 132.866 382.072 133.919C382.944 134.971 384.019 135.837 385.233 136.466C386.446 137.095 387.774 137.474 389.136 137.58C390.499 137.685 391.869 137.516 393.165 137.082L463.58 111.895C466.215 110.888 468.357 108.898 469.556 106.344C470.754 103.79 470.915 100.871 470.005 98.2001L451.085 40.4249C450.683 39.1193 450.021 37.9082 449.14 36.8639C448.259 35.8196 447.177 34.9634 445.958 34.3465C444.739 33.7296 443.408 33.3646 442.045 33.2732C440.682 33.1819 439.314 33.3661 438.024 33.8148ZM384.352 43.0504C382.907 38.7931 383.167 34.142 385.075 30.0716C386.984 26.0012 390.393 22.8273 394.59 21.2149C396.662 20.5059 398.856 20.2216 401.04 20.3789C403.225 20.5362 405.355 21.132 407.305 22.1306C409.254 23.1292 410.982 24.5102 412.386 26.1913C413.79 27.8723 414.841 29.8189 415.476 31.9149L418.378 40.7943L387.254 51.9298L384.352 43.0504ZM423.933 94.3211L428.762 109.072C428.85 109.367 428.822 109.686 428.682 109.961C428.542 110.236 428.301 110.447 428.01 110.549L421.241 112.964C420.972 113.039 420.684 113.006 420.438 112.873C420.192 112.74 420.007 112.518 419.922 112.251L415.053 97.5668C412.369 97.4205 409.793 96.4577 407.671 94.8071C405.549 93.1565 403.982 90.8971 403.179 88.3312C402.032 84.939 402.241 81.2344 403.763 77.9931C405.286 74.7517 408.003 72.225 411.346 70.9419C412.997 70.3779 414.744 70.152 416.484 70.2777C418.224 70.4034 419.921 70.878 421.473 71.6733C423.026 72.4687 424.402 73.5685 425.521 74.9071C426.639 76.2457 427.477 77.7958 427.983 79.465C428.832 82.0715 428.902 84.869 428.185 87.5147C427.468 90.1605 425.995 92.5396 423.946 94.3607L423.933 94.3211Z" fill="#F68B1E"/>
<path d="M430.926 36.0848C430.926 36.2695 418.326 41.006 402.652 46.6397C386.978 52.2734 374.193 56.7989 374.127 56.6669C374.061 56.535 386.727 51.7589 402.415 46.112C418.102 40.4651 430.86 35.9133 430.926 36.0848Z" fill="#263238"/>
<path d="M445.887 38.5117C445.945 38.6262 445.993 38.7454 446.032 38.8679C446.137 39.1318 446.256 39.4749 446.414 39.8971C446.757 40.8602 447.232 42.1928 447.826 43.8552L452.892 58.6057C455.003 64.8595 457.523 72.2744 460.32 80.5073C461.64 84.6369 463.197 88.938 464.648 93.4635C465.425 95.7955 465.76 98.2519 465.637 100.707C465.526 101.984 465.162 103.226 464.569 104.361C463.935 105.494 463.088 106.493 462.075 107.304C460.037 108.792 457.774 109.945 455.373 110.721L448.578 113.162L435.714 117.766L413.931 125.524L399.22 130.696L395.262 132.015L394.207 132.358C394.094 132.409 393.974 132.44 393.851 132.451C393.851 132.451 393.956 132.451 394.18 132.293L395.21 131.883L399.168 130.393L413.799 125.01L435.543 117.093L448.38 112.449L455.175 109.995C457.508 109.251 459.705 108.133 461.679 106.684C462.622 105.931 463.41 105.004 464.001 103.952C464.56 102.902 464.897 101.748 464.991 100.562C465.112 98.1963 464.79 95.8291 464.041 93.5822C462.616 89.0964 461.112 84.7556 459.753 80.626C457.009 72.3799 454.476 64.9387 452.47 58.6849C450.465 52.4311 448.776 47.4043 447.615 43.8684C447.061 42.14 446.639 40.7942 446.296 39.8179L445.979 38.7624C445.939 38.6824 445.908 38.5984 445.887 38.5117Z" fill="#263238"/>
<path d="M408.734 20.3182C408.734 20.3182 408.035 19.9752 406.742 19.4474C404.899 18.7393 402.95 18.3468 400.976 18.2864C398.051 18.1861 395.14 18.7358 392.453 19.896C389.186 21.3407 386.392 23.6774 384.392 26.638C382.379 29.5901 381.299 33.0788 381.291 36.652C381.319 39.5807 381.763 42.4905 382.611 45.2939C383.297 47.6951 384.009 49.6082 384.484 50.9408C384.764 51.6176 384.994 52.3144 385.17 53.0254C384.796 52.3926 384.482 51.7255 384.234 51.0332C383.693 49.7138 382.914 47.8403 382.149 45.4258C381.21 42.593 380.698 39.6358 380.632 36.652C380.597 32.9438 381.702 29.3144 383.798 26.2554C385.868 23.1867 388.776 20.7777 392.176 19.3155C394.947 18.149 397.949 17.6344 400.95 17.8114C402.966 17.9142 404.947 18.3836 406.795 19.1968C407.289 19.4247 407.765 19.6893 408.22 19.9884C408.407 20.0708 408.581 20.1821 408.734 20.3182Z" fill="#263238"/>
<path d="M409.342 71.9437C409.553 71.8161 409.773 71.7058 410.002 71.6139C410.662 71.3159 411.346 71.0732 412.047 70.8882C413.159 70.56 414.306 70.3651 415.464 70.3077C417.039 70.2231 418.615 70.461 420.095 71.007C423.473 72.1944 426.573 75.638 428.104 80.2426C428.838 82.7136 428.838 85.3447 428.104 87.8158C427.29 90.4977 425.831 92.9394 423.855 94.9272L423.934 94.5709C425.689 99.3866 427.602 104.611 429.581 110.06L429.7 110.39L429.37 110.509L426.349 111.512L419.752 113.715L419.422 113.821L419.317 113.491C417.509 108.028 415.53 102.936 414.039 97.9353L414.329 98.1596C411.75 97.9454 409.291 96.9772 407.258 95.3757C405.418 93.9589 403.91 92.1579 402.838 90.0983C401.87 88.2717 401.389 86.2273 401.439 84.1611C401.5 82.0494 402.027 79.9773 402.983 78.0932C403.939 76.2092 405.299 74.5597 406.967 73.2631C407.654 72.7058 408.424 72.2605 409.25 71.9437C408.505 72.3859 407.782 72.8659 407.086 73.3818C405.254 74.9319 403.85 76.9262 403.009 79.1739C402.287 80.8688 401.95 82.7025 402.02 84.5434C402.091 86.3842 402.568 88.1866 403.418 89.8212C404.472 91.8026 405.944 93.5313 407.733 94.8876C409.672 96.4098 412.017 97.3275 414.475 97.5263H414.699L414.765 97.7242C416.216 102.632 418.208 107.765 420.042 113.253L419.607 113.042L426.204 110.839L429.212 109.823L429.001 110.271C427.035 104.822 425.135 99.5845 423.393 94.7688V94.5709L423.552 94.4126C425.47 92.5073 426.9 90.1674 427.721 87.5915C428.421 85.2277 428.421 82.7119 427.721 80.3481C426.283 75.915 423.314 72.5506 420.095 71.3632C418.67 70.8137 417.149 70.5579 415.622 70.6112C414.483 70.6373 413.35 70.7922 412.245 71.0729C410.279 71.5611 409.355 72.0097 409.342 71.9437Z" fill="#263238"/>
<path d="M368.557 452.9L236.765 452.293C229.154 452.251 221.871 449.19 216.515 443.782C211.159 438.375 208.169 431.062 208.2 423.452L209.599 93.0681C209.615 89.2975 210.373 85.5668 211.831 82.0894C213.289 78.6121 215.419 75.4562 218.097 72.8022C220.776 70.1481 223.951 68.048 227.442 66.6219C230.932 65.1957 234.67 64.4715 238.44 64.4906L370.219 65.0975C377.83 65.1359 385.114 68.1935 390.473 73.5987C395.831 79.0039 398.825 86.3148 398.797 93.9257L397.398 424.296C397.382 428.068 396.624 431.8 395.166 435.279C393.708 438.757 391.58 441.915 388.901 444.571C386.223 447.227 383.048 449.33 379.557 450.759C376.067 452.188 372.329 452.916 368.557 452.9Z" fill="#455A64"/>
<path d="M370.021 76.4568H344.478C343.645 76.4722 342.823 76.6517 342.059 76.985C341.294 77.3183 340.604 77.7988 340.025 78.3991C339.447 78.9995 338.993 79.7079 338.688 80.4839C338.384 81.2599 338.235 82.0882 338.251 82.9217V87.5527C338.267 88.3854 338.118 89.2132 337.813 89.9884C337.509 90.7636 337.054 91.4711 336.476 92.0704C335.897 92.6697 335.206 93.149 334.442 93.4809C333.678 93.8127 332.856 93.9906 332.023 94.0044L282.23 93.7801C280.546 93.7352 278.948 93.0236 277.788 91.8015C276.628 90.5795 276 88.9469 276.043 87.2624V82.6314C276.085 80.9491 275.459 79.3185 274.302 78.0968C273.144 76.8752 271.55 76.1621 269.868 76.1137H260.883L238.52 76.0082C233.2 75.9765 228.085 78.0538 224.295 81.7853C220.504 85.5168 218.346 90.5984 218.294 95.9175L216.974 418.398C216.962 421.037 217.47 423.652 218.468 426.095C219.467 428.537 220.937 430.759 222.794 432.634C224.652 434.508 226.86 435.998 229.293 437.019C231.727 438.04 234.337 438.572 236.976 438.584L368.491 439.191C371.131 439.203 373.748 438.695 376.193 437.696C378.637 436.697 380.86 435.226 382.736 433.367C384.612 431.509 386.103 429.299 387.124 426.864C388.146 424.429 388.678 421.817 388.69 419.176L390.01 96.6959C390.041 91.3619 387.954 86.2336 384.205 82.4384C380.457 78.6432 375.355 76.4916 370.021 76.4568Z" fill="white"/>
<path d="M352.328 396.167L254.537 395.745C253.521 395.745 252.703 394.636 252.716 393.291L252.822 367.708C252.822 366.389 253.653 365.254 254.669 365.254L352.46 365.702C353.023 365.8 353.527 366.111 353.866 366.57C354.205 367.03 354.354 367.603 354.281 368.17L354.189 393.726C354.189 395.085 353.344 396.18 352.328 396.167Z" fill="#F68B1E"/>
<path d="M283.578 380.904C283.155 380.904 282.748 380.836 282.358 380.701C281.973 380.56 281.675 380.381 281.464 380.164L281.7 379.701C281.9 379.896 282.168 380.061 282.505 380.197C282.846 380.327 283.204 380.392 283.578 380.392C283.936 380.392 284.226 380.349 284.448 380.262C284.676 380.17 284.841 380.048 284.944 379.896C285.052 379.744 285.107 379.576 285.107 379.392C285.107 379.17 285.041 378.991 284.911 378.855C284.787 378.72 284.621 378.614 284.415 378.538C284.209 378.457 283.982 378.386 283.732 378.327C283.483 378.267 283.234 378.205 282.984 378.14C282.735 378.069 282.505 377.977 282.293 377.863C282.087 377.749 281.919 377.6 281.789 377.416C281.664 377.226 281.602 376.98 281.602 376.676C281.602 376.394 281.675 376.137 281.821 375.904C281.973 375.665 282.204 375.475 282.513 375.334C282.822 375.188 283.217 375.115 283.7 375.115C284.02 375.115 284.337 375.161 284.651 375.253C284.966 375.34 285.237 375.462 285.464 375.619L285.261 376.099C285.017 375.936 284.757 375.817 284.48 375.741C284.209 375.665 283.946 375.627 283.692 375.627C283.35 375.627 283.068 375.673 282.846 375.765C282.624 375.857 282.458 375.982 282.35 376.139C282.247 376.291 282.196 376.465 282.196 376.66C282.196 376.882 282.258 377.061 282.383 377.196C282.513 377.332 282.681 377.438 282.887 377.514C283.098 377.589 283.328 377.657 283.578 377.717C283.827 377.776 284.074 377.841 284.318 377.912C284.567 377.982 284.795 378.075 285.001 378.188C285.212 378.297 285.38 378.443 285.505 378.627C285.635 378.812 285.7 379.053 285.7 379.351C285.7 379.628 285.624 379.885 285.472 380.124C285.321 380.357 285.088 380.546 284.773 380.693C284.464 380.834 284.066 380.904 283.578 380.904ZM287.011 380.855V375.164H287.613V380.855H287.011ZM289.465 380.855V375.164H289.961L293.888 380.107H293.628V375.164H294.222V380.855H293.726L289.806 375.912H290.067V380.855H289.465ZM298.576 380.904C298.142 380.904 297.741 380.834 297.372 380.693C297.009 380.546 296.692 380.343 296.421 380.083C296.155 379.823 295.947 379.517 295.795 379.164C295.648 378.812 295.575 378.427 295.575 378.01C295.575 377.592 295.648 377.207 295.795 376.855C295.947 376.503 296.158 376.196 296.429 375.936C296.7 375.676 297.017 375.475 297.38 375.334C297.749 375.188 298.15 375.115 298.584 375.115C299.018 375.115 299.413 375.183 299.771 375.318C300.134 375.454 300.443 375.66 300.698 375.936L300.324 376.318C300.085 376.08 299.823 375.909 299.535 375.806C299.248 375.703 298.939 375.651 298.608 375.651C298.256 375.651 297.931 375.711 297.633 375.83C297.34 375.944 297.082 376.11 296.86 376.326C296.643 376.538 296.472 376.787 296.348 377.074C296.229 377.356 296.169 377.668 296.169 378.01C296.169 378.346 296.229 378.657 296.348 378.945C296.472 379.232 296.643 379.484 296.86 379.701C297.082 379.912 297.34 380.078 297.633 380.197C297.931 380.311 298.253 380.368 298.6 380.368C298.925 380.368 299.232 380.319 299.519 380.221C299.812 380.124 300.08 379.958 300.324 379.725L300.665 380.181C300.394 380.419 300.077 380.601 299.714 380.725C299.351 380.845 298.971 380.904 298.576 380.904ZM300.088 380.107V378.01H300.665V380.181L300.088 380.107ZM306.79 380.904C306.063 380.904 305.491 380.696 305.074 380.278C304.657 379.861 304.448 379.243 304.448 378.424V375.164H305.05V378.4C305.05 379.072 305.201 379.568 305.505 379.888C305.808 380.208 306.237 380.368 306.79 380.368C307.348 380.368 307.779 380.208 308.082 379.888C308.386 379.568 308.538 379.072 308.538 378.4V375.164H309.123V378.424C309.123 379.243 308.915 379.861 308.497 380.278C308.085 380.696 307.516 380.904 306.79 380.904ZM310.937 380.855V375.164H313.067C313.549 375.164 313.964 375.242 314.311 375.399C314.658 375.551 314.924 375.773 315.108 376.066C315.298 376.353 315.392 376.703 315.392 377.115C315.392 377.516 315.298 377.863 315.108 378.156C314.924 378.443 314.658 378.665 314.311 378.823C313.964 378.98 313.549 379.058 313.067 379.058H311.27L311.538 378.774V380.855H310.937ZM311.538 378.823L311.27 378.53H313.051C313.62 378.53 314.051 378.408 314.344 378.164C314.642 377.915 314.791 377.565 314.791 377.115C314.791 376.66 314.642 376.307 314.344 376.058C314.051 375.809 313.62 375.684 313.051 375.684H311.27L311.538 375.399V378.823Z" fill="#E8E8E3"/>
<path d="M274.042 171.254L240.108 171.1L240.08 177.327L274.013 177.481L274.042 171.254Z" fill="#F68B1E"/>
<path opacity="0.1" d="M274.042 171.254L240.108 171.1L240.08 177.327L274.013 177.481L274.042 171.254Z" fill="black"/>
<path d="M373.517 209.49C373.783 209.463 374.045 209.401 374.295 209.305C374.66 209.162 374.978 208.919 375.211 208.604C375.445 208.289 375.585 207.915 375.615 207.524C375.615 205.426 375.615 202.365 375.615 198.433C375.615 196.467 375.615 194.264 375.615 191.836C375.615 191.243 375.615 190.623 375.615 190.003C375.701 189.401 375.57 188.788 375.245 188.274C375.064 188.028 374.827 187.827 374.555 187.687C374.282 187.547 373.981 187.473 373.675 187.469H371.617H352.552L242.2 187.06C241.918 187.056 241.638 187.119 241.385 187.245C241.133 187.372 240.914 187.557 240.749 187.786C240.43 188.302 240.308 188.916 240.406 189.514C240.406 190.834 240.406 192.153 240.406 193.473C240.406 196.111 240.406 198.75 240.406 201.389C240.406 202.708 240.406 204.027 240.406 205.347C240.351 205.961 240.351 206.579 240.406 207.194C240.475 207.457 240.604 207.701 240.782 207.907C240.961 208.113 241.184 208.275 241.435 208.381C241.695 208.485 241.973 208.534 242.253 208.527H248.968L278.272 208.685L327.88 208.988L361.326 209.252L370.416 209.358H372.778C373.319 209.358 373.583 209.358 373.583 209.358H372.778H370.416H361.326H327.88L278.272 209.199L248.968 209.081H242.253C241.883 209.096 241.515 209.033 241.171 208.896C240.823 208.748 240.515 208.522 240.268 208.236C240.021 207.95 239.842 207.612 239.746 207.247C239.67 206.9 239.643 206.545 239.667 206.191V205.215C239.667 203.896 239.667 202.576 239.667 201.257C239.667 198.618 239.667 195.979 239.667 193.341C239.667 192.021 239.667 190.702 239.667 189.382C239.642 189.031 239.642 188.678 239.667 188.327C239.716 187.939 239.866 187.57 240.102 187.258C240.33 186.94 240.631 186.681 240.98 186.504C241.329 186.327 241.716 186.237 242.108 186.242L352.46 186.849L371.525 186.981H373.583C373.945 186.982 374.303 187.069 374.624 187.237C374.946 187.404 375.222 187.647 375.43 187.944C375.802 188.518 375.952 189.208 375.852 189.884C375.852 190.504 375.852 191.124 375.852 191.718C375.852 194.119 375.852 196.322 375.852 198.315C375.852 202.273 375.76 205.307 375.733 207.418C375.701 207.824 375.554 208.212 375.308 208.537C375.063 208.862 374.73 209.11 374.348 209.252C374.098 209.407 373.811 209.489 373.517 209.49Z" fill="#E0E0E0"/>
<path d="M312.365 193.684H250.302V199.502H312.365V193.684Z" fill="#F68B1E"/>
<path opacity="0.2" d="M312.365 193.684H250.302V199.502H312.365V193.684Z" fill="white"/>
<path d="M273.813 228.064L239.879 227.91L239.851 234.138L273.784 234.292L273.813 228.064Z" fill="#F68B1E"/>
<path opacity="0.1" d="M273.813 228.064L239.879 227.91L239.851 234.138L273.784 234.292L273.813 228.064Z" fill="black"/>
<path d="M372.661 266.301C372.928 266.269 373.192 266.22 373.453 266.156C373.822 266.039 374.161 265.844 374.447 265.585C374.734 265.325 374.962 265.007 375.115 264.652C375.323 264.12 375.405 263.546 375.353 262.977C375.353 262.343 375.353 261.657 375.353 260.892C375.353 259.361 375.353 257.62 375.353 255.614V247.236C375.416 246.63 375.282 246.019 374.97 245.495C374.645 244.957 374.133 244.558 373.532 244.373C372.875 244.256 372.206 244.221 371.54 244.268H352.554L242.585 243.859C241.993 243.86 241.422 244.076 240.978 244.467C240.534 244.858 240.247 245.397 240.17 245.983C240.17 247.236 240.17 248.622 240.17 249.941C240.17 252.58 240.17 255.219 240.17 257.857C240.17 259.177 240.17 260.496 240.17 261.816C240.121 262.432 240.148 263.052 240.25 263.663C240.414 264.198 240.753 264.662 241.213 264.982C241.7 265.291 242.273 265.439 242.849 265.404H244.683H248.496L277.693 265.549L327.13 265.853L360.457 266.117L369.521 266.222H360.457H327.13L277.667 266.169L248.469 266.064H242.73C242.016 266.106 241.308 265.916 240.711 265.523C240.111 265.107 239.673 264.496 239.471 263.795C239.353 263.124 239.317 262.442 239.366 261.763C239.366 260.443 239.366 259.124 239.366 257.805C239.366 255.166 239.366 252.527 239.366 249.888C239.366 248.569 239.366 247.25 239.366 245.93C239.462 245.176 239.83 244.482 240.4 243.98C240.971 243.477 241.706 243.2 242.466 243.199L352.436 243.806L371.421 243.951C372.128 243.908 372.838 243.957 373.532 244.096C374.218 244.32 374.796 244.79 375.155 245.416C375.496 245.997 375.644 246.671 375.577 247.342C375.577 247.962 375.577 248.569 375.577 249.176C375.577 251.564 375.577 253.754 375.577 255.773C375.577 257.791 375.577 259.493 375.577 261.05C375.577 261.802 375.577 262.502 375.577 263.148C375.625 263.738 375.53 264.331 375.3 264.876C375.129 265.241 374.881 265.563 374.574 265.823C374.266 266.082 373.907 266.273 373.519 266.381C373.231 266.404 372.941 266.378 372.661 266.301Z" fill="#E0E0E0"/>
<path d="M273.556 287.341L239.622 287.188L239.594 293.415L273.528 293.569L273.556 287.341Z" fill="#F68B1E"/>
<path opacity="0.1" d="M273.556 287.341L239.622 287.188L239.594 293.415L273.528 293.569L273.556 287.341Z" fill="black"/>
<path d="M372.397 325.555C372.663 325.523 372.928 325.475 373.188 325.41C373.555 325.293 373.893 325.1 374.18 324.843C374.466 324.586 374.695 324.271 374.851 323.919C375.058 323.386 375.139 322.813 375.088 322.243C375.088 321.597 375.088 320.924 375.088 320.146C375.088 318.628 375.088 316.873 375.088 314.868V306.49C375.151 305.883 375.017 305.273 374.706 304.748C374.372 304.221 373.863 303.828 373.268 303.64C372.611 303.518 371.942 303.478 371.275 303.521H352.29L242.32 303.112C241.729 303.114 241.158 303.33 240.714 303.721C240.269 304.111 239.982 304.65 239.906 305.237C239.906 306.556 239.906 307.875 239.906 309.195C239.906 311.833 239.906 314.472 239.906 317.111C239.906 318.43 239.906 319.75 239.906 321.069C239.856 321.681 239.883 322.297 239.985 322.903C240.143 323.441 240.483 323.908 240.948 324.222C241.432 324.539 242.007 324.687 242.584 324.645H248.323L277.521 324.803L326.958 325.106L360.285 325.37L369.349 325.476H360.285H326.958L277.521 325.331L248.323 325.212H242.584C241.87 325.26 241.16 325.07 240.565 324.671C239.965 324.255 239.527 323.644 239.325 322.943C239.207 322.272 239.171 321.59 239.22 320.911C239.22 319.591 239.22 318.272 239.22 316.953C239.22 314.314 239.22 311.675 239.22 309.036C239.22 307.717 239.22 306.398 239.22 305.012C239.313 304.259 239.678 303.566 240.247 303.063C240.815 302.56 241.548 302.282 242.307 302.281L352.276 302.888L371.262 303.033C371.969 302.99 372.679 303.039 373.373 303.178C374.059 303.402 374.637 303.872 374.996 304.498C375.337 305.079 375.485 305.753 375.418 306.424C375.418 307.044 375.418 307.664 375.418 308.258C375.418 310.646 375.418 312.836 375.418 314.855C375.418 316.873 375.418 318.575 375.418 320.132C375.418 320.884 375.418 321.584 375.418 322.23C375.469 322.82 375.374 323.414 375.141 323.958C374.97 324.323 374.722 324.645 374.415 324.905C374.107 325.165 373.747 325.355 373.36 325.463C373.051 325.568 372.721 325.6 372.397 325.555Z" fill="#E0E0E0"/>
<path d="M311.041 252.141L248.978 251.859L248.952 257.678L311.014 257.959L311.041 252.141Z" fill="#F68B1E"/>
<path opacity="0.2" d="M311.041 252.141L248.978 251.859L248.952 257.678L311.014 257.959L311.041 252.141Z" fill="white"/>
<path d="M254.588 314.788C254.549 315.319 254.355 315.826 254.03 316.248C253.705 316.669 253.264 316.986 252.761 317.159C252.258 317.332 251.715 317.354 251.199 317.221C250.684 317.088 250.219 316.807 249.862 316.413C249.505 316.018 249.271 315.527 249.191 315.001C249.11 314.476 249.185 313.937 249.408 313.454C249.63 312.97 249.989 312.563 250.441 312.282C250.893 312 251.417 311.858 251.949 311.872C252.684 311.913 253.373 312.242 253.867 312.788C254.361 313.334 254.62 314.052 254.588 314.788Z" fill="#F68B1E"/>
<path d="M262.992 314.827C263.018 315.199 262.967 315.572 262.843 315.924C262.718 316.275 262.523 316.597 262.269 316.87C262.014 317.143 261.707 317.36 261.365 317.509C261.023 317.658 260.654 317.734 260.281 317.734C259.908 317.734 259.539 317.658 259.197 317.509C258.855 317.36 258.548 317.143 258.293 316.87C258.039 316.597 257.843 316.275 257.719 315.924C257.594 315.572 257.544 315.199 257.57 314.827C257.544 314.455 257.594 314.082 257.719 313.73C257.843 313.379 258.039 313.057 258.293 312.784C258.548 312.511 258.855 312.294 259.197 312.145C259.539 311.997 259.908 311.92 260.281 311.92C260.654 311.92 261.023 311.997 261.365 312.145C261.707 312.294 262.014 312.511 262.269 312.784C262.523 313.057 262.718 313.379 262.843 313.73C262.967 314.082 263.018 314.455 262.992 314.827Z" fill="#F68B1E"/>
<path d="M271.412 314.868C271.373 315.399 271.18 315.906 270.855 316.328C270.53 316.749 270.089 317.066 269.586 317.239C269.082 317.412 268.539 317.434 268.024 317.301C267.509 317.168 267.044 316.887 266.687 316.493C266.33 316.098 266.096 315.608 266.015 315.082C265.935 314.556 266.01 314.017 266.232 313.534C266.454 313.05 266.814 312.643 267.266 312.362C267.717 312.08 268.242 311.938 268.774 311.952C269.507 311.996 270.195 312.327 270.688 312.872C271.181 313.417 271.441 314.133 271.412 314.868Z" fill="#F68B1E"/>
<path d="M279.814 314.907C279.775 315.438 279.581 315.945 279.257 316.367C278.932 316.788 278.491 317.105 277.987 317.278C277.484 317.451 276.941 317.473 276.426 317.34C275.911 317.207 275.446 316.926 275.088 316.532C274.731 316.137 274.498 315.647 274.417 315.121C274.336 314.595 274.412 314.057 274.634 313.573C274.856 313.09 275.216 312.682 275.667 312.401C276.119 312.12 276.644 311.977 277.176 311.991C277.909 312.035 278.597 312.366 279.09 312.911C279.583 313.456 279.843 314.172 279.814 314.907Z" fill="#F68B1E"/>
<path d="M288.219 314.933C288.183 315.464 287.991 315.973 287.668 316.397C287.345 316.82 286.904 317.139 286.401 317.314C285.898 317.489 285.354 317.513 284.838 317.381C284.322 317.25 283.855 316.97 283.497 316.575C283.138 316.181 282.904 315.69 282.822 315.164C282.74 314.638 282.815 314.099 283.037 313.614C283.259 313.13 283.619 312.722 284.071 312.44C284.523 312.159 285.048 312.016 285.581 312.03C286.312 312.075 286.997 312.403 287.49 312.945C287.983 313.487 288.245 314.201 288.219 314.933Z" fill="#F68B1E"/>
<path d="M296.638 314.973C296.602 315.502 296.412 316.008 296.092 316.431C295.772 316.853 295.335 317.172 294.835 317.35C294.336 317.527 293.796 317.554 293.281 317.428C292.766 317.302 292.299 317.029 291.938 316.641C291.577 316.253 291.337 315.768 291.247 315.246C291.158 314.724 291.223 314.187 291.436 313.701C291.648 313.215 291.997 312.802 292.441 312.512C292.885 312.223 293.403 312.069 293.933 312.07C294.676 312.098 295.378 312.419 295.885 312.963C296.392 313.507 296.663 314.23 296.638 314.973Z" fill="#F68B1E"/>
<path d="M305.042 315.013C305.068 315.385 305.017 315.758 304.893 316.109C304.768 316.461 304.573 316.783 304.318 317.056C304.064 317.328 303.756 317.546 303.414 317.694C303.072 317.843 302.704 317.92 302.331 317.92C301.958 317.92 301.589 317.843 301.247 317.694C300.905 317.546 300.597 317.328 300.343 317.056C300.089 316.783 299.893 316.461 299.769 316.109C299.644 315.758 299.593 315.385 299.619 315.013C299.593 314.641 299.644 314.267 299.769 313.916C299.893 313.564 300.089 313.242 300.343 312.97C300.597 312.697 300.905 312.48 301.247 312.331C301.589 312.182 301.958 312.105 302.331 312.105C302.704 312.105 303.072 312.182 303.414 312.331C303.756 312.48 304.064 312.697 304.318 312.97C304.573 313.242 304.768 313.564 304.893 313.916C305.017 314.267 305.068 314.641 305.042 315.013Z" fill="#F68B1E"/>
<path d="M313.446 315.053C313.41 315.582 313.22 316.088 312.9 316.511C312.58 316.933 312.143 317.252 311.644 317.43C311.144 317.607 310.604 317.634 310.089 317.508C309.574 317.383 309.107 317.109 308.746 316.721C308.385 316.333 308.145 315.849 308.055 315.326C307.966 314.804 308.032 314.267 308.244 313.781C308.456 313.295 308.805 312.882 309.249 312.592C309.693 312.303 310.211 312.149 310.741 312.15C311.485 312.178 312.186 312.499 312.693 313.043C313.2 313.587 313.471 314.31 313.446 315.053Z" fill="#F68B1E"/>
<path d="M321.85 315.091C321.814 315.623 321.622 316.132 321.299 316.555C320.975 316.978 320.535 317.297 320.032 317.472C319.528 317.647 318.985 317.671 318.469 317.539C317.952 317.408 317.486 317.128 317.128 316.734C316.769 316.339 316.535 315.849 316.453 315.322C316.371 314.796 316.446 314.257 316.668 313.773C316.89 313.288 317.25 312.88 317.702 312.598C318.154 312.317 318.679 312.174 319.212 312.188C319.943 312.233 320.628 312.561 321.121 313.103C321.614 313.645 321.876 314.359 321.85 315.091Z" fill="#F68B1E"/>
<g opacity="0.2">
<path d="M254.59 314.788C254.551 315.319 254.357 315.826 254.032 316.248C253.707 316.669 253.266 316.986 252.763 317.159C252.26 317.332 251.717 317.354 251.201 317.221C250.686 317.088 250.221 316.807 249.864 316.413C249.507 316.018 249.273 315.527 249.193 315.001C249.112 314.476 249.187 313.937 249.41 313.454C249.632 312.97 249.991 312.563 250.443 312.282C250.895 312 251.419 311.858 251.951 311.872C252.686 311.913 253.375 312.242 253.869 312.788C254.363 313.334 254.622 314.052 254.59 314.788Z" fill="white"/>
<path d="M262.994 314.827C263.02 315.199 262.969 315.572 262.845 315.924C262.72 316.275 262.525 316.597 262.27 316.87C262.016 317.143 261.708 317.36 261.367 317.509C261.025 317.658 260.656 317.734 260.283 317.734C259.91 317.734 259.541 317.658 259.199 317.509C258.857 317.36 258.55 317.143 258.295 316.87C258.041 316.597 257.845 316.275 257.721 315.924C257.596 315.572 257.546 315.199 257.572 314.827C257.546 314.455 257.596 314.082 257.721 313.73C257.845 313.379 258.041 313.057 258.295 312.784C258.55 312.511 258.857 312.294 259.199 312.145C259.541 311.997 259.91 311.92 260.283 311.92C260.656 311.92 261.025 311.997 261.367 312.145C261.708 312.294 262.016 312.511 262.27 312.784C262.525 313.057 262.72 313.379 262.845 313.73C262.969 314.082 263.02 314.455 262.994 314.827Z" fill="white"/>
<path d="M271.41 314.868C271.372 315.399 271.178 315.906 270.853 316.328C270.528 316.749 270.087 317.066 269.584 317.239C269.08 317.412 268.537 317.434 268.022 317.301C267.507 317.168 267.042 316.887 266.685 316.493C266.328 316.098 266.094 315.608 266.013 315.082C265.933 314.556 266.008 314.017 266.23 313.534C266.453 313.05 266.812 312.643 267.264 312.362C267.715 312.08 268.24 311.938 268.772 311.952C269.506 311.996 270.193 312.327 270.686 312.872C271.179 313.417 271.439 314.133 271.41 314.868Z" fill="white"/>
<path d="M279.816 314.907C279.777 315.438 279.583 315.945 279.259 316.367C278.934 316.788 278.493 317.105 277.989 317.278C277.486 317.451 276.943 317.473 276.428 317.34C275.912 317.207 275.447 316.926 275.09 316.532C274.733 316.137 274.5 315.647 274.419 315.121C274.338 314.595 274.414 314.057 274.636 313.573C274.858 313.09 275.218 312.682 275.669 312.401C276.121 312.12 276.646 311.977 277.177 311.991C277.911 312.035 278.599 312.366 279.092 312.911C279.585 313.456 279.845 314.172 279.816 314.907Z" fill="white"/>
<path d="M288.221 314.933C288.185 315.464 287.993 315.973 287.67 316.397C287.347 316.82 286.906 317.139 286.403 317.314C285.9 317.489 285.356 317.513 284.84 317.381C284.323 317.25 283.857 316.97 283.499 316.575C283.14 316.181 282.906 315.69 282.824 315.164C282.742 314.638 282.817 314.099 283.039 313.614C283.261 313.13 283.621 312.722 284.073 312.44C284.525 312.159 285.05 312.016 285.583 312.03C286.314 312.075 286.999 312.403 287.492 312.945C287.985 313.487 288.247 314.201 288.221 314.933Z" fill="white"/>
<path d="M296.637 314.973C296.601 315.502 296.411 316.008 296.09 316.431C295.77 316.853 295.333 317.172 294.834 317.35C294.335 317.527 293.794 317.554 293.279 317.428C292.765 317.302 292.298 317.029 291.937 316.641C291.575 316.253 291.335 315.768 291.246 315.246C291.157 314.724 291.222 314.187 291.434 313.701C291.646 313.215 291.995 312.802 292.439 312.512C292.883 312.223 293.402 312.069 293.932 312.07C294.675 312.098 295.377 312.419 295.884 312.963C296.391 313.507 296.662 314.23 296.637 314.973Z" fill="white"/>
<path d="M305.042 315.013C305.068 315.385 305.017 315.758 304.893 316.109C304.768 316.461 304.573 316.783 304.318 317.056C304.064 317.328 303.756 317.546 303.414 317.694C303.072 317.843 302.704 317.92 302.331 317.92C301.958 317.92 301.589 317.843 301.247 317.694C300.905 317.546 300.597 317.328 300.343 317.056C300.089 316.783 299.893 316.461 299.769 316.109C299.644 315.758 299.593 315.385 299.619 315.013C299.593 314.641 299.644 314.267 299.769 313.916C299.893 313.564 300.089 313.242 300.343 312.97C300.597 312.697 300.905 312.48 301.247 312.331C301.589 312.182 301.958 312.105 302.331 312.105C302.704 312.105 303.072 312.182 303.414 312.331C303.756 312.48 304.064 312.697 304.318 312.97C304.573 313.242 304.768 313.564 304.893 313.916C305.017 314.267 305.068 314.641 305.042 315.013Z" fill="white"/>
<path d="M313.447 315.051C313.411 315.58 313.221 316.086 312.9 316.509C312.58 316.931 312.144 317.25 311.644 317.428C311.145 317.605 310.604 317.632 310.089 317.506C309.575 317.381 309.108 317.107 308.747 316.719C308.385 316.331 308.145 315.847 308.056 315.324C307.967 314.802 308.032 314.265 308.244 313.779C308.456 313.293 308.806 312.88 309.249 312.59C309.693 312.301 310.212 312.147 310.742 312.148C311.485 312.176 312.187 312.497 312.694 313.041C313.201 313.585 313.472 314.308 313.447 315.051Z" fill="white"/>
<path d="M321.852 315.091C321.816 315.623 321.624 316.132 321.301 316.555C320.977 316.978 320.537 317.297 320.034 317.472C319.53 317.647 318.987 317.671 318.471 317.539C317.954 317.408 317.488 317.128 317.13 316.734C316.771 316.339 316.537 315.849 316.455 315.322C316.373 314.796 316.448 314.257 316.67 313.773C316.892 313.288 317.252 312.88 317.704 312.598C318.156 312.317 318.681 312.174 319.214 312.188C319.945 312.233 320.63 312.561 321.123 313.103C321.616 313.645 321.878 314.359 321.852 315.091Z" fill="white"/>
</g>
<path d="M309.911 124.627C310.827 124.223 311.605 123.559 312.147 122.717C312.689 121.874 312.971 120.891 312.958 119.89C312.993 119.239 312.894 118.588 312.668 117.976C312.443 117.365 312.095 116.806 311.646 116.333C311.198 115.86 310.657 115.483 310.058 115.226C309.459 114.969 308.814 114.836 308.162 114.836C307.511 114.836 306.866 114.969 306.267 115.226C305.668 115.483 305.127 115.86 304.679 116.333C304.23 116.806 303.882 117.365 303.657 117.976C303.431 118.588 303.332 119.239 303.367 119.89C303.347 120.901 303.626 121.896 304.171 122.749C304.716 123.601 305.501 124.273 306.428 124.679C299.039 125.788 299.369 133.809 299.369 133.809L316.837 133.889C316.837 133.889 317.246 125.722 309.911 124.627Z" fill="#F68B1E"/>
<path opacity="0.1" d="M309.911 124.627C310.827 124.223 311.605 123.559 312.147 122.717C312.689 121.874 312.971 120.891 312.958 119.89C312.993 119.239 312.894 118.588 312.668 117.976C312.443 117.365 312.095 116.806 311.646 116.333C311.198 115.86 310.657 115.483 310.058 115.226C309.459 114.969 308.814 114.836 308.162 114.836C307.511 114.836 306.866 114.969 306.267 115.226C305.668 115.483 305.127 115.86 304.679 116.333C304.23 116.806 303.882 117.365 303.657 117.976C303.431 118.588 303.332 119.239 303.367 119.89C303.347 120.901 303.626 121.896 304.171 122.749C304.716 123.601 305.501 124.273 306.428 124.679C299.039 125.788 299.369 133.809 299.369 133.809L316.837 133.889C316.837 133.889 317.246 125.722 309.911 124.627Z" fill="black"/>
<path d="M338.297 139.064L276.037 138.781L276.003 146.222L338.263 146.505L338.297 139.064Z" fill="#F68B1E"/>
<path opacity="0.2" d="M338.297 139.064L276.037 138.781L276.003 146.222L338.263 146.505L338.297 139.064Z" fill="white"/>
<path d="M109.406 177.627H108.786L106.992 177.759C106.021 177.817 105.055 177.945 104.102 178.142C103.485 178.228 102.873 178.347 102.268 178.498L100.223 179.065C96.7427 180.133 93.4587 181.759 90.4997 183.881C86.5902 186.719 83.3258 190.352 80.9211 194.541C79.5077 196.957 78.3829 199.529 77.5699 202.207C76.7156 205.117 76.2237 208.122 76.1054 211.152C76.0267 212.744 76.0532 214.34 76.1845 215.928C76.1845 216.733 76.4088 217.538 76.5144 218.356C76.6032 219.181 76.7576 219.997 76.9762 220.797C78.1626 226.091 80.5698 231.035 84.0059 235.234C87.442 239.433 91.8118 242.77 96.7667 244.981C100.353 246.528 104.197 247.392 108.1 247.527C112.132 247.749 116.167 247.171 119.974 245.825L121.135 245.39H121.294L121.426 245.469L138.063 253.913L137.575 254.335C135.794 248.82 134.078 243.477 132.416 238.344V238.147L132.561 238.001C136.597 233.936 139.593 228.958 141.295 223.488C142.837 218.488 143.287 213.215 142.615 208.025C142.017 203.413 140.534 198.96 138.248 194.911C136.277 191.432 133.735 188.31 130.727 185.675C128.246 183.59 125.5 181.842 122.56 180.477C120.336 179.518 118.02 178.788 115.647 178.3L113.008 177.865L111.095 177.719L109.934 177.64H109.538C109.67 177.626 109.802 177.626 109.934 177.64H111.108L113.021 177.719L115.66 178.102C118.062 178.554 120.41 179.258 122.666 180.2C125.656 181.549 128.452 183.293 130.978 185.385C134.041 188.008 136.637 191.131 138.657 194.621C141.008 198.714 142.536 203.227 143.156 207.907C143.884 213.176 143.465 218.541 141.929 223.633C140.215 229.217 137.173 234.301 133.063 238.45L133.142 238.107C134.804 243.239 136.533 248.583 138.327 254.085L138.578 254.889L137.825 254.507L121.188 246.076H121.478L120.291 246.511C116.411 247.877 112.3 248.468 108.192 248.253C104.205 248.101 100.281 247.206 96.6216 245.614C89.6417 242.625 83.8345 237.429 80.0899 230.824C78.3667 227.773 77.1082 224.483 76.3561 221.061C76.1501 220.24 75.9959 219.407 75.8943 218.567C75.7887 217.736 75.6172 216.918 75.5776 216.1C75.2206 211.405 75.7167 206.685 77.0421 202.167C77.8754 199.453 79.0315 196.848 80.4857 194.409C82.9478 190.182 86.2802 186.525 90.2622 183.683C93.2699 181.556 96.6091 179.942 100.144 178.907L102.216 178.379C102.825 178.238 103.442 178.128 104.063 178.049C105.025 177.871 106 177.765 106.979 177.733L108.786 177.667C108.992 177.639 109.199 177.626 109.406 177.627Z" fill="#F68B1E"/>
<path d="M116.926 208.394H114.486L109.208 200.979V196.111C109.208 196.111 105.435 195.873 105.883 202.246C106.332 208.618 105.883 206.995 105.883 206.995C105.883 206.995 97.8748 206.995 97.2151 207.721C96.5554 208.447 96.5158 216.178 96.4235 220.492C96.3729 221.532 96.6713 222.56 97.2713 223.411C97.8714 224.262 98.7385 224.888 99.7351 225.189C100.014 225.267 100.303 225.307 100.593 225.308C102.598 225.308 112.797 223.685 112.797 223.685H117.006L116.926 208.394Z" fill="#F68B1E"/>
<path d="M123.907 207.088L122.403 223.765H118.234V207.431L123.907 207.088Z" fill="#F68B1E"/>
<path d="M173.633 546.602V535.321L153.407 535.176L153.235 552.235L154.489 552.328C160.07 552.684 182.882 553.212 186.629 552.051C190.798 550.758 173.633 546.602 173.633 546.602Z" fill="#F68B1E"/>
<path d="M187.104 550.995C187.104 551.18 179.531 551.338 170.203 551.338C160.875 551.338 153.302 551.18 153.302 550.995C153.302 550.811 160.875 550.652 170.203 550.652C179.531 550.652 187.104 550.811 187.104 550.995Z" fill="#263238"/>
<path d="M173.988 548.911C173.816 548.818 173.988 548.225 174.397 547.591C174.806 546.958 175.36 546.694 175.492 546.826C175.624 546.958 175.347 547.459 174.951 548C174.555 548.541 174.159 549.003 173.988 548.911Z" fill="#263238"/>
<path d="M175.281 549.65C175.097 549.65 175.189 548.911 175.585 548.212C175.981 547.512 176.508 547.09 176.653 547.196C176.799 547.301 176.561 547.895 176.192 548.515C175.822 549.135 175.453 549.716 175.281 549.65Z" fill="#263238"/>
<path d="M159.397 550.943C159.318 550.943 159.014 550.706 158.579 550.205C158.047 549.56 157.455 548.968 156.811 548.437C156.177 547.93 155.422 547.598 154.621 547.473C154.001 547.394 153.605 547.473 153.565 547.394C153.526 547.315 153.908 547.038 154.634 546.985C155.592 546.965 156.526 547.283 157.273 547.882C157.972 548.453 158.563 549.146 159.014 549.927C159.318 550.508 159.476 550.891 159.397 550.943Z" fill="#263238"/>
<path d="M174.055 546.786C174.147 546.945 173.804 547.341 173.224 547.552C172.643 547.763 172.129 547.684 172.102 547.552C172.076 547.42 172.485 547.143 172.986 546.958C173.488 546.773 173.949 546.628 174.055 546.786Z" fill="#263238"/>
<path d="M173.738 545.692C173.738 545.89 173.21 546.048 172.524 546.061C171.838 546.075 171.297 545.916 171.31 545.732C171.323 545.547 171.864 545.375 172.524 545.362C173.184 545.349 173.712 545.507 173.738 545.692Z" fill="#263238"/>
<path d="M223.439 546.602V535.321L203.214 535.176L203.042 552.064L204.295 552.156C209.876 552.512 232.701 553.212 236.435 552.051C240.604 550.758 223.439 546.602 223.439 546.602Z" fill="#F68B1E"/>
<path d="M236.909 551.023C236.909 551.207 229.349 551.366 220.008 551.366C210.666 551.366 203.12 551.207 203.12 551.023C203.12 550.838 210.68 550.68 220.008 550.68C229.336 550.68 236.909 550.838 236.909 551.023Z" fill="#263238"/>
<path d="M223.794 548.911C223.636 548.818 223.794 548.225 224.203 547.591C224.612 546.958 225.166 546.694 225.298 546.826C225.43 546.958 225.153 547.459 224.757 548C224.362 548.541 223.966 549.003 223.794 548.911Z" fill="#263238"/>
<path d="M225.088 549.65C224.916 549.65 224.995 548.911 225.404 548.212C225.813 547.512 226.328 547.09 226.473 547.196C226.618 547.301 226.367 547.895 225.998 548.515C225.628 549.135 225.272 549.716 225.088 549.65Z" fill="#263238"/>
<path d="M209.204 550.943C209.124 550.943 208.834 550.706 208.386 550.205C207.854 549.56 207.262 548.968 206.618 548.437C205.984 547.93 205.229 547.598 204.427 547.473C203.821 547.394 203.412 547.473 203.372 547.394C203.332 547.315 203.715 547.038 204.441 546.985C205.398 546.965 206.332 547.283 207.079 547.882C207.783 548.449 208.374 549.143 208.821 549.927C209.124 550.508 209.283 550.891 209.204 550.943Z" fill="#263238"/>
<path d="M223.862 546.786C223.954 546.945 223.611 547.341 223.03 547.552C222.45 547.763 221.935 547.684 221.909 547.552C221.883 547.42 222.292 547.143 222.793 546.958C223.294 546.773 223.756 546.628 223.862 546.786Z" fill="#263238"/>
<path d="M223.57 545.692C223.57 545.89 223.042 546.048 222.356 546.061C221.67 546.075 221.142 545.916 221.156 545.732C221.169 545.547 221.696 545.375 222.356 545.362C223.016 545.349 223.57 545.507 223.57 545.692Z" fill="#263238"/>
<path d="M297.957 211.615C297.429 211.074 296.123 211.338 296.123 211.338C296.254 210.578 296.254 209.802 296.123 209.042C295.885 208.304 294.223 208.449 294.223 208.449C294.146 207.827 294.146 207.197 294.223 206.575C294.236 206.437 294.207 206.299 294.138 206.178C294.07 206.058 293.966 205.961 293.84 205.902C293.054 205.582 292.209 205.429 291.36 205.454C290.344 204.728 294.461 198.962 295.991 197.115C297.522 195.268 297.244 193.83 295.885 193.83C294.949 193.83 290.146 199.371 288.669 201.232C287.191 203.092 283.272 208.264 283.14 204.134C283.008 200.005 281.346 196.891 280.304 196.363C279.261 195.836 278.153 197.076 278.72 198.224C279.219 199.528 279.53 200.896 279.644 202.287C279.787 203.396 279.738 204.52 279.499 205.612C279.061 207.643 278.466 209.637 277.718 211.576H277.612C277.612 211.576 248.824 239.19 246.739 241.156C244.879 242.924 207.461 239.058 199.954 238.266C197.403 237.893 194.827 237.717 192.249 237.739C188.99 237.884 188.41 238.346 185.164 238.385C176.967 238.476 168.79 239.195 160.703 240.536C157.041 241.158 153.621 242.775 150.815 245.208C148.009 247.642 145.925 250.799 144.791 254.336C137.231 277.953 120.106 333.855 117.084 365.256C114.801 369.396 112.74 373.655 110.91 378.014C108.786 383.793 109.3 383.991 110.013 384.123C111.939 384.479 114.129 374.109 114.947 376.616C115.765 379.122 110.791 388.978 112.81 389.268C115.448 389.638 117.546 378.713 117.797 377.843C118.048 376.972 119.354 377.249 119.116 378.067C118.734 379.228 115.026 391.538 117.612 391.933C119.037 392.145 119.195 389.545 119.195 389.545C119.195 389.545 121.834 377.763 123.035 378.001C124.235 378.238 122.956 385.191 122.349 387.514C121.742 389.836 122.586 391.01 123.826 390.443C124.671 390.047 126.69 382.988 127.244 380.692C127.798 378.397 129.183 372.037 131.043 375.718C132.904 379.399 135.727 381.537 136.888 381.59C137.15 381.559 137.396 381.452 137.596 381.28C137.796 381.109 137.94 380.881 138.01 380.627C138.079 380.373 138.071 380.104 137.986 379.855C137.902 379.605 137.744 379.387 137.535 379.228C136.536 378.253 135.679 377.142 134.988 375.93C134.373 374.985 133.926 373.94 133.669 372.842C133.137 370.654 132.828 368.417 132.745 366.166L132.534 364.847C135.49 350.215 144 307.269 156.283 279.84L161.323 290.21L163.513 297.889L150.082 331.045L207.369 330.293L198.819 297.387L209.203 263.084C220.431 263.334 249.259 263.757 254.061 261.58C260.104 258.941 291.36 219.465 291.36 219.465C293.397 217.882 295.349 216.191 297.205 214.399C297.205 214.399 299.105 212.803 297.957 211.615Z" fill="#FFBE9D"/>
<path d="M147.562 306.543C149.224 300.869 157.761 272.819 157.761 272.819C157.761 272.819 161.956 295.684 160.848 298.442C159.829 300.802 158.624 303.079 157.246 305.25C147.562 319.987 148.829 327.362 148.829 327.362L207.343 325.581C207.475 317.401 202.632 298.376 201.63 295.341C200.627 292.307 203.965 282.372 203.965 282.372C203.965 282.372 210.562 275.656 210.324 272.199C210.199 269.094 209.815 266.005 209.177 262.964L244.8 264.283L243.678 240.139L192.513 235.02C190.732 240.046 174.622 237.579 174.622 237.579C157.233 238.16 156.151 241.353 148.921 246.973C141.691 252.594 129.724 300.83 129.724 300.83L147.562 306.543Z" fill="#F68B1E"/>
<path d="M182.155 300.83C181.141 301.011 180.108 301.065 179.081 300.989C177.167 300.989 174.542 300.857 171.652 300.566C168.763 300.276 166.151 299.867 164.29 299.498C163.265 299.366 162.259 299.109 161.295 298.732C162.327 298.733 163.356 298.83 164.37 299.023C166.243 299.26 168.842 299.59 171.718 299.88C174.595 300.171 177.207 300.368 179.094 300.5C180.122 300.513 181.147 300.624 182.155 300.83Z" fill="#263238"/>
<path d="M186.166 295.855C185.152 296.352 184.079 296.72 182.973 296.951C177.71 298.334 172.279 298.978 166.838 298.864C165.712 298.9 164.585 298.794 163.486 298.547C164.598 298.407 165.718 298.349 166.838 298.375C168.909 298.31 171.759 298.164 174.899 297.795C178.039 297.426 180.836 296.898 182.815 296.476C183.914 296.182 185.035 295.975 186.166 295.855Z" fill="#263238"/>
<path d="M205.853 273.664C205.827 274.67 205.689 275.67 205.444 276.646C205.101 278.48 204.574 280.987 203.901 283.731C203.228 286.475 202.581 289.008 202.001 290.724C201.767 291.705 201.422 292.657 200.972 293.56C201.045 292.557 201.231 291.566 201.526 290.605C202.027 288.547 202.595 286.172 203.228 283.573C203.861 280.973 204.468 278.598 204.969 276.54C205.148 275.55 205.445 274.584 205.853 273.664Z" fill="#263238"/>
<path d="M148.182 303.179C145.129 302.708 142.117 302.006 139.17 301.081C136.159 300.377 133.205 299.451 130.331 298.311C133.381 298.79 136.393 299.491 139.342 300.408C142.354 301.11 145.308 302.036 148.182 303.179Z" fill="#263238"/>
<path d="M209.811 262.673C209.313 262.759 208.804 262.759 208.307 262.673C206.929 262.532 205.575 262.208 204.283 261.71C202.124 260.899 200.16 259.646 198.514 258.03C196.869 256.414 195.58 254.473 194.73 252.329C193.791 249.972 193.39 247.434 193.556 244.901C193.615 242.812 194.24 240.779 195.364 239.017C196.154 237.83 197.335 236.957 198.702 236.55C199.067 236.449 199.444 236.4 199.823 236.405C200.087 236.405 200.219 236.405 200.219 236.405C200.219 236.405 199.665 236.405 198.781 236.761C197.527 237.224 196.464 238.092 195.76 239.228C193.965 242.051 193.464 247.21 195.377 252.026C196.267 254.297 197.661 256.336 199.454 257.989C200.923 259.343 202.614 260.432 204.454 261.209C206.181 261.891 207.977 262.382 209.811 262.673Z" fill="#263238"/>
<path d="M240.566 263.808C240.236 259.762 240.13 255.701 240.249 251.644C240.146 247.589 240.269 243.533 240.619 239.492C240.949 243.534 241.055 247.59 240.936 251.644C241.046 255.702 240.923 259.764 240.566 263.808Z" fill="#263238"/>
<path d="M192.17 236.497C192.315 233.555 192.619 230.23 192.619 230.23C192.619 230.23 199.902 229.425 200.337 221.905C200.773 214.384 200.337 197.034 200.337 197.034L187.144 190.279L172.499 201.797L174.755 239.399L188.186 240.257C189.212 240.285 190.209 239.906 190.955 239.201C191.702 238.496 192.139 237.523 192.17 236.497Z" fill="#FFBE9D"/>
<path d="M193.475 215.954C193.475 215.954 193.475 216.099 193.357 216.271C193.258 216.395 193.131 216.494 192.987 216.558C192.842 216.623 192.683 216.651 192.525 216.64C191.681 216.64 190.863 215.664 190.573 214.529C190.435 213.979 190.435 213.404 190.573 212.854C190.6 212.614 190.686 212.384 190.825 212.186C190.963 211.988 191.148 211.827 191.364 211.719C191.542 211.646 191.741 211.646 191.918 211.719C192.05 211.784 192.157 211.891 192.222 212.022C192.314 212.247 192.222 212.392 192.222 212.379C192.222 212.366 192.222 212.247 192.09 212.115C192.021 212.02 191.92 211.955 191.805 211.93C191.691 211.906 191.571 211.925 191.47 211.983C191.308 212.081 191.174 212.218 191.079 212.382C190.984 212.546 190.933 212.731 190.929 212.92C190.818 213.41 190.818 213.92 190.929 214.411C191.193 215.44 191.905 216.271 192.539 216.35C192.662 216.367 192.788 216.358 192.909 216.324C193.029 216.29 193.141 216.231 193.238 216.152C193.396 216.047 193.449 215.941 193.475 215.954Z" fill="#EB996E"/>
<path d="M204.862 192.972C203.846 189.515 200.165 187.8 196.814 186.85C191.708 185.399 186.193 184.765 181.206 186.599C176.219 188.433 170.229 191.652 170.229 197.154C167.287 196.917 165.598 199.489 164.437 202.682C163.695 204.627 163.25 206.674 163.117 208.751C162.748 215.955 160.729 225.903 156.059 231.181C153.42 234.123 149.765 236.155 148.261 239.823C146.942 243.002 147.628 246.776 146.401 249.995C145.306 252.832 142.892 254.85 141.124 257.317C139.322 260.116 138.262 263.327 138.043 266.648C137.824 269.969 138.453 273.292 139.87 276.303C141.298 279.237 143.308 281.85 145.778 283.982C148.248 286.114 151.127 287.721 154.238 288.705C160.401 290.58 166.973 290.644 173.171 288.89C177.823 287.778 182.162 285.626 185.863 282.596C189.65 279.504 192.251 275.197 193.225 270.406C194.162 265.022 192.658 259.547 191.537 254.19C188.027 237.263 189.03 236.379 193.463 220.665C193.569 220.388 193.621 220.098 193.7 219.821C193.78 219.544 193.819 219.412 193.872 219.201C193.998 218.58 194.064 217.948 194.07 217.314C193.422 217.555 192.72 217.606 192.044 217.461C191.369 217.316 190.749 216.981 190.257 216.496C189.764 215.979 189.42 215.338 189.262 214.641C189.104 213.944 189.138 213.217 189.36 212.538C189.671 211.795 190.135 211.126 190.721 210.573C191.308 210.021 192.003 209.598 192.764 209.332C194.228 208.725 195.798 208.408 197.236 207.735C200.284 206.284 202.395 203.276 203.833 200.123C205.016 197.937 205.38 195.402 204.862 192.972Z" fill="#263238"/>
<path d="M194.004 216.311C194.283 216.722 194.513 217.165 194.69 217.63C195.086 218.461 195.613 219.635 196.194 220.994L196.3 221.245H196.022L194.703 221.364C193.793 221.364 193.027 221.535 192.13 221.522C192.052 221.504 191.98 221.467 191.92 221.414C191.86 221.361 191.814 221.294 191.787 221.219C191.748 221.099 191.748 220.969 191.787 220.849C191.818 220.671 191.857 220.495 191.906 220.321L192.143 219.385C192.263 218.76 192.449 218.149 192.698 217.564C192.673 218.201 192.58 218.833 192.421 219.451L192.236 220.387C192.17 220.704 192.051 221.192 192.236 221.153C192.896 221.153 193.832 221.008 194.703 220.955L196.022 220.836L195.851 221.126C195.284 219.807 194.809 218.567 194.532 217.709C194.289 217.271 194.111 216.8 194.004 216.311Z" fill="#F68B1E"/>
<path d="M148.828 327.363L207.342 325.582L232.805 424.983L228.122 539.003H197.182L200.969 427.411L178.342 358.21L181.825 543.423L150.556 543.885L147.271 369.794C147.126 364.952 145.542 354.041 146.136 349.238L148.828 327.363Z" fill="#263238"/>
<path d="M186.127 359.621C185.169 359.682 184.208 359.624 183.264 359.45C181.496 359.239 179.081 358.869 176.43 358.341C173.778 357.814 171.403 357.207 169.688 356.719C168.771 356.517 167.884 356.198 167.049 355.769C167.049 355.571 171.35 356.6 176.627 357.669C181.905 358.737 186.153 359.423 186.127 359.621Z" fill="#455A64"/>
<path d="M227.807 532.749C227.807 532.934 220.801 533.092 212.159 533.092C203.517 533.092 196.498 532.934 196.498 532.749C196.498 532.565 203.504 532.406 212.159 532.406C220.814 532.406 227.807 532.551 227.807 532.749Z" fill="#455A64"/>
<path d="M181.55 538.607C181.55 538.805 174.742 538.95 166.351 538.95C157.96 538.95 151.165 538.805 151.165 538.607C151.165 538.409 157.973 538.264 166.351 538.264C174.729 538.264 181.55 538.422 181.55 538.607Z" fill="#455A64"/>
<path d="M177.513 538.132C177.328 538.132 176.51 497.667 175.679 447.755C174.848 397.843 174.36 357.352 174.531 357.352C174.703 357.352 175.547 397.803 176.365 447.742C177.183 497.68 177.711 538.132 177.513 538.132Z" fill="#455A64"/>
<path d="M223.649 532.75C223.634 532.57 223.634 532.389 223.649 532.209V530.625C223.649 529.2 223.755 527.155 223.834 524.556C224.018 519.279 224.282 511.613 224.612 502.219C225.325 483.326 226.327 457.282 227.422 428.533C227.422 428.255 227.422 427.992 227.422 427.754V427.846C220.496 400.14 214.229 374.993 209.677 356.798L204.399 335.279C203.792 332.76 203.331 330.794 203.001 329.421C202.843 328.775 202.737 328.274 202.645 327.891C202.593 327.719 202.562 327.542 202.552 327.363C202.621 327.53 202.674 327.702 202.711 327.878C202.816 328.247 202.948 328.749 203.133 329.382C203.489 330.701 204.004 332.707 204.663 335.214C205.983 340.306 207.843 347.642 210.165 356.68C214.756 374.861 221.089 399.942 228.108 427.688V427.78C228.108 428.018 228.108 428.295 228.108 428.559C226.934 457.308 225.865 483.339 225.087 502.233C224.678 511.64 224.335 519.252 224.098 524.556C223.966 527.195 223.86 529.2 223.794 530.625C223.794 531.298 223.715 531.826 223.702 532.209C223.704 532.39 223.686 532.572 223.649 532.75Z" fill="#455A64"/>
<path d="M213.557 425.432C211.334 426.162 209.045 426.671 206.722 426.949C203.872 427.437 201.445 427.78 200.35 427.833V427.569C200.706 427.675 200.891 427.741 200.891 427.793C200.891 427.846 200.666 427.793 200.297 427.793H199.505L200.297 427.556C201.326 427.252 203.754 426.751 206.604 426.236C208.889 425.741 211.218 425.471 213.557 425.432Z" fill="#455A64"/>
<path d="M213.017 429.218C210.959 429.312 208.896 429.22 206.855 428.941C204.794 428.899 202.741 428.674 200.72 428.268C204.844 427.932 208.994 428.252 213.017 429.218Z" fill="#455A64"/>
<path opacity="0.2" d="M148.579 329.461C149.272 330.351 150.144 331.085 151.14 331.614C152.136 332.144 153.232 332.458 154.357 332.535C156.714 332.814 159.098 332.77 161.442 332.403C176.549 330.728 192.553 329.184 207.343 325.582C188.199 326.651 167.973 326.294 148.829 327.363L148.631 328.999" fill="black"/>
<g opacity="0.2">
<path d="M168.301 356.441L179.094 398.318L178.342 358.209L168.301 356.441Z" fill="black"/>
</g>
</svg>
