<svg width="18" height="17" viewBox="0 0 18 17" fill="none" xmlns="http://www.w3.org/2000/svg">
<path fill-rule="evenodd" clip-rule="evenodd" d="M13.2269 0.718383C13.058 0.448633 12.8093 0.238229 12.5153 0.116459C12.2213 -0.00531066 11.8967 -0.0323881 11.5865 0.038997L9.38558 0.544558C9.16002 0.596401 8.92564 0.596401 8.70008 0.544558L6.49911 0.038997C6.189 -0.0323881 5.86434 -0.00531066 5.57034 0.116459C5.27634 0.238229 5.02761 0.448633 4.85879 0.718383L3.65916 2.6329C3.53674 2.82876 3.37149 2.99402 3.17563 3.11766L1.26111 4.31729C0.991822 4.48597 0.781726 4.73429 0.659982 5.02779C0.538239 5.32129 0.510886 5.64541 0.58172 5.95516L1.08728 8.15858C1.13894 8.38375 1.13894 8.61769 1.08728 8.84286L0.58172 11.045C0.51061 11.355 0.537826 11.6794 0.659583 11.9731C0.78134 12.2669 0.991589 12.5154 1.26111 12.6841L3.17563 13.8838C3.37149 14.0062 3.53674 14.1714 3.66038 14.3673L4.86002 16.2818C5.20522 16.8339 5.86379 17.1069 6.49911 16.9612L8.70008 16.4557C8.92564 16.4038 9.16002 16.4038 9.38558 16.4557L11.5878 16.9612C11.8977 17.0323 12.2221 17.0051 12.5158 16.8834C12.8096 16.7616 13.0581 16.5513 13.2269 16.2818L14.4265 14.3673C14.5489 14.1714 14.7142 14.0062 14.91 13.8838L16.8258 12.6841C17.0953 12.5152 17.3055 12.2664 17.427 11.9724C17.5485 11.6784 17.5754 11.3538 17.5039 11.0438L16.9996 8.84286C16.9478 8.6173 16.9478 8.38291 16.9996 8.15735L17.5052 5.95516C17.5764 5.64536 17.5494 5.32106 17.4278 5.02732C17.3063 4.73358 17.0963 4.48499 16.827 4.31607L14.9113 3.11643C14.7157 2.9938 14.5504 2.82849 14.4277 2.6329L13.2269 0.718383ZM12.6111 5.77032C12.6868 5.6311 12.7056 5.46793 12.6635 5.31516C12.6213 5.16239 12.5216 5.03191 12.3852 4.95119C12.2488 4.87047 12.0864 4.8458 11.9322 4.88237C11.778 4.91893 11.644 5.01388 11.5584 5.14724L8.35732 10.5652L6.42444 8.71433C6.3671 8.65545 6.29848 8.60872 6.22269 8.57693C6.1469 8.54515 6.06548 8.52895 5.9833 8.52931C5.90111 8.52967 5.81984 8.54657 5.74433 8.57902C5.66882 8.61147 5.60061 8.65879 5.54379 8.71817C5.48696 8.77754 5.44267 8.84776 5.41357 8.92462C5.38446 9.00148 5.37114 9.08342 5.37438 9.16554C5.37763 9.24766 5.39738 9.32829 5.43246 9.40261C5.46755 9.47694 5.51724 9.54344 5.57857 9.59814L8.06843 11.9839C8.13507 12.0477 8.21524 12.0955 8.30297 12.1239C8.39069 12.1523 8.48369 12.1605 8.57503 12.1479C8.66636 12.1353 8.75367 12.1022 8.83044 12.0512C8.9072 12.0001 8.97144 11.9323 9.01835 11.853L12.6111 5.77032Z" fill="#FF8100"/>
</svg>
