<svg width="71" height="126" viewBox="0 0 71 126" fill="none" xmlns="http://www.w3.org/2000/svg">
<path d="M43.7946 79.6905C44.5175 76.0099 44.2138 72.2115 42.9143 68.6796C41.6147 65.1477 39.3654 62.0078 36.394 59.5776C36.394 59.5776 34.6787 58.9739 34.8239 60.8181C34.9139 61.9192 33.8072 63.4715 32.8942 62.8081C31.2965 61.6273 31.8014 59.2327 31.1167 57.4151C30.3075 55.2923 27.9489 54.158 25.791 53.2492C21.8071 51.5775 17.7609 49.9324 13.4796 49.2093C9.1983 48.4863 4.62649 48.6587 0.725586 50.5029C1.67545 52.3293 2.62071 54.158 3.56136 55.9888C3.64423 56.229 3.77568 56.4511 3.94817 56.6425C4.12066 56.8338 4.3308 56.9907 4.56658 57.104C4.80235 57.2174 5.05913 57.2851 5.3222 57.3032C5.58528 57.3212 5.8495 57.2894 6.09972 57.2094L11.2871 56.8446C12.041 56.7915 13.0093 56.8446 13.2306 57.5676C13.452 58.2907 12.4975 58.9341 11.6952 59.2061L6.25879 61.0768C8.06403 63.5878 10.5517 65.5768 13.452 66.8281C16.3495 68.0682 19.3592 69.0519 22.4434 69.7667C23.3924 70.1118 24.4248 70.1877 25.4175 69.9856C27.0014 69.4948 28.0942 67.5976 29.7472 67.8297C29.652 68.7019 29.3774 69.5473 28.9393 70.317C28.5012 71.0867 27.9084 71.7655 27.195 72.314C33.6066 74.7286 38.0747 77.6806 43.7946 79.6972" fill="#F68B1E"/>
<path d="M49.2947 106.985C49.2758 106.933 49.2596 106.88 49.2463 106.826C49.2463 106.7 49.1841 106.547 49.1357 106.355C49.0457 105.917 48.9143 105.314 48.7414 104.537C48.4094 102.939 47.9322 100.663 47.3581 97.8574C47.0676 96.4445 46.7495 94.8988 46.4036 93.2139C46.2376 92.3847 46.0578 91.5224 45.878 90.6401L45.6013 89.3134C45.5322 88.8711 45.463 88.4068 45.3938 87.9203C44.7921 84.179 44.0866 79.9999 42.1915 76.0197C40.2964 72.0396 37.184 68.9682 34.2444 66.4541C31.5969 64.2548 28.7732 62.2586 25.7994 60.4839C23.2749 58.9317 21.1722 57.7708 19.7267 56.9549L18.0598 56.0129L17.631 55.7608L17.4927 55.668C17.4927 55.668 17.548 55.668 17.6517 55.7343L18.0944 55.9598L19.789 56.8487C21.2483 57.6381 23.3717 58.7791 25.917 60.3048C28.9187 62.0739 31.7682 64.0703 34.4381 66.275C36.0076 67.5884 37.4755 69.0095 38.8301 70.5271C40.2856 72.163 41.5089 73.9764 42.4681 75.9202C44.3909 79.9534 45.0895 84.1591 45.6774 87.9071L45.878 89.3001L46.1477 90.6268C46.3206 91.5091 46.4935 92.3714 46.6595 93.2006C46.9846 94.859 47.2889 96.4046 47.5725 97.8441L48.8728 104.537C49.0181 105.314 49.1357 105.924 49.2117 106.362L49.2947 106.839C49.3007 106.888 49.3007 106.937 49.2947 106.985Z" fill="#263238"/>
<path d="M59.3496 38.0825C57.9663 40.0726 54.0446 39.0975 53.8164 36.7558C53.5881 34.4142 57.2193 32.716 58.9899 34.3943C59.6094 27.4338 58.8682 20.4236 56.8043 13.7241C56.3955 15.0983 55.7067 16.3812 54.7778 17.4986C53.7749 18.5467 52.1633 19.2034 50.7731 18.6993C48.8918 18.0359 48.3385 15.5483 49.1201 13.7705C49.9016 11.9927 51.5962 10.7655 53.2146 9.62456C51.9173 7.29058 50.1354 5.23606 47.9788 3.58753C45.8223 1.93901 43.3366 0.731386 40.675 0.0390625C38.6001 3.27624 36.4767 6.58639 35.5361 10.2813C34.5954 13.9762 35.0242 18.2017 37.611 21.1006C38.7038 22.3345 40.1494 23.2963 41.0001 24.696C41.8508 26.0957 41.7886 28.2317 40.3084 28.9879C38.5517 29.8702 36.5666 28.2052 35.5706 26.5534C34.5747 24.9016 33.5579 22.885 31.5937 22.5733C31.0897 29.1662 32.4608 35.7667 35.5608 41.671C38.6607 47.5753 43.3734 52.5619 49.1961 56.0993L48.9956 55.9202C53.6297 50.6807 57.1474 44.6205 59.3496 38.0825ZM50.3581 23.5418C51.4056 22.6257 52.6533 21.9457 54.01 21.5517C54.2812 21.4524 54.578 21.4374 54.8586 21.5088C55.1391 21.5802 55.3891 21.7345 55.5732 21.9497C55.7533 22.1677 55.8824 22.4204 55.9516 22.6905C56.0208 22.9607 56.0286 23.242 55.9743 23.5152C55.8644 24.0646 55.6281 24.5836 55.2827 25.0343C54.7711 25.7958 54.0541 26.4101 53.2077 26.8121C52.7746 27.006 52.3024 27.1064 51.8244 27.1064C51.3464 27.1064 50.8743 27.006 50.4411 26.8121C50.1393 26.677 49.8793 26.469 49.6865 26.2085C49.4938 25.948 49.3748 25.644 49.3414 25.3262C49.3677 24.9784 49.47 24.6399 49.6416 24.3324C49.8132 24.025 50.0502 23.7557 50.3374 23.5418H50.3581Z" fill="#F68B1E"/>
<path d="M51.8813 106.986C51.8727 106.917 51.8727 106.848 51.8813 106.78C51.8813 106.627 51.8813 106.422 51.8813 106.17C51.8813 105.619 51.8259 104.843 51.7913 103.835C51.7014 101.792 51.5838 98.8661 51.4317 95.2575C51.0997 88.0136 50.5671 78.0102 49.7164 66.972C48.8657 55.9338 47.8835 45.9635 47.0605 38.7594C46.6593 35.1508 46.2927 32.2387 46.0368 30.2287C45.9192 29.2337 45.8224 28.4575 45.7601 27.907C45.7601 27.6549 45.7117 27.4559 45.691 27.3033C45.6798 27.2352 45.6798 27.1658 45.691 27.0977L45.7325 27.2967C45.7325 27.4492 45.7878 27.6482 45.8224 27.9003C45.9054 28.4443 46.016 29.227 46.1613 30.2088C46.4518 32.1989 46.853 35.1309 47.2818 38.7329C48.1671 45.937 49.1977 55.9138 50.0484 66.9521C50.8991 77.9903 51.3902 88.0004 51.6737 95.2508C51.8121 98.8728 51.8882 101.805 51.9297 103.835C51.9297 104.836 51.9297 105.619 51.9297 106.17V106.773C51.9196 106.845 51.9034 106.916 51.8813 106.986Z" fill="#263238"/>
<path d="M29.7319 94.7852L35.2513 117.24H64.1899L70.3041 94.7852H29.7319Z" fill="#455A64"/>
<path d="M38.8364 112.523C38.8364 112.948 41.0705 125.824 41.0705 125.824H58.673L60.6096 112.523H38.8364Z" fill="#455A64"/>
<path d="M63.3891 117.141C63.3891 117.22 57.0743 117.287 49.2863 117.287C41.4984 117.287 35.1836 117.22 35.1836 117.141C35.1836 117.061 41.4984 116.988 49.2863 116.988C57.0743 116.988 63.3891 117.055 63.3891 117.141Z" fill="#263238"/>
<path d="M66.3974 108.087C66.3974 108.167 58.9553 108.233 49.7978 108.233C40.6404 108.233 33.1982 108.167 33.1982 108.087C33.1982 108.008 40.6473 107.941 49.7978 107.941C58.9484 107.941 66.3974 108.008 66.3974 108.087Z" fill="#263238"/>
<path d="M65.0976 111.212C65.0976 111.299 58.0843 111.365 49.4456 111.365C40.8069 111.365 33.7866 111.299 33.7866 111.212C33.7866 111.126 40.7999 111.066 49.4456 111.066C58.0912 111.066 65.0976 111.133 65.0976 111.212Z" fill="#263238"/>
<path d="M64.9717 114.341C64.9717 114.421 58.2143 114.487 49.8799 114.487C41.5455 114.487 34.7881 114.421 34.7881 114.341C34.7881 114.262 41.5455 114.195 49.8799 114.195C58.2143 114.195 64.9717 114.262 64.9717 114.341Z" fill="#263238"/>
<path d="M67.2422 105.048C67.2422 105.128 59.4612 105.194 49.8611 105.194C40.261 105.194 32.4868 105.128 32.4868 105.048C32.4868 104.969 40.261 104.902 49.8611 104.902C59.4612 104.902 67.2422 104.969 67.2422 105.048Z" fill="#263238"/>
<path d="M67.7957 102.547C67.7957 102.627 59.8694 102.693 50.0964 102.693C40.3233 102.693 32.3901 102.627 32.3901 102.547C32.3901 102.467 40.3164 102.395 50.0964 102.395C59.8763 102.395 67.7957 102.461 67.7957 102.547Z" fill="#263238"/>
</svg>
