<svg width="185" height="248" viewBox="0 0 185 248" fill="none" xmlns="http://www.w3.org/2000/svg">
<path d="M105.123 219.427L103.248 243.268L92.4376 243.056L90.9575 218.246L105.123 219.427Z" fill="#FFBE9D"/>
<path d="M103.586 240.127V240.79C103.586 240.79 115.732 245.599 115.843 247.815L91.6348 247.483L92.0843 239.762C93.8619 240.611 95.8092 241.083 97.794 241.146C99.7787 241.209 101.754 240.861 103.586 240.127Z" fill="#F68B1E"/>
<path d="M107.399 244.484C107.309 244.484 107.171 244 107.447 243.456C107.724 242.912 108.215 242.706 108.257 242.792C108.298 242.879 107.994 243.164 107.772 243.615C107.551 244.066 107.503 244.477 107.399 244.484Z" fill="#263238"/>
<path d="M94.4926 242.293C94.2615 242.362 94.0642 242.509 93.9371 242.706C93.81 242.904 93.7616 243.139 93.8009 243.368C93.8645 243.591 94.0138 243.784 94.2189 243.907C94.424 244.03 94.6699 244.074 94.9076 244.031C95.1543 243.96 95.3652 243.804 95.5004 243.594C95.6355 243.384 95.6855 243.133 95.6407 242.89C95.5557 242.659 95.3804 242.469 95.1519 242.36C94.9234 242.251 94.6596 242.232 94.4165 242.306" fill="white"/>
<path d="M103.663 240.89C103.663 241.003 103.069 241.049 102.481 241.407C101.893 241.766 101.575 242.23 101.471 242.183C101.367 242.137 101.547 241.487 102.266 241.069C102.986 240.651 103.691 240.79 103.663 240.89Z" fill="#263238"/>
<path d="M106.187 241.93C106.187 242.043 105.703 242.228 105.295 242.699C104.887 243.17 104.763 243.681 104.645 243.675C104.527 243.668 104.458 243.011 104.977 242.447C105.496 241.884 106.187 241.824 106.187 241.93Z" fill="#263238"/>
<path d="M91.6348 247.527L91.7385 245.77L115.089 246.758C115.465 247.037 115.727 247.434 115.829 247.879L91.6348 247.527Z" fill="#263238"/>
<path d="M161.79 12.2704C161.79 12.2704 166.32 7.97846 167.524 7.25541C168.727 6.53235 170.207 4.90713 171.141 4.53565C172.211 4.00413 173.244 3.40583 174.233 2.74459L176.073 0.562146C176.073 0.562146 177.456 0.422842 177.152 1.88886L180.575 1.2255C180.575 1.2255 181.495 1.98836 180.036 2.89053C179.326 3.41193 178.434 3.64967 177.546 3.55388L176.107 5.09287L176.356 5.90216L184.656 6.94363C184.615 7.30611 184.437 7.64158 184.155 7.88621C183.873 8.13084 183.508 8.26756 183.127 8.27034C181.744 8.27034 176.737 8.0647 176.737 8.0647L184.455 10.8574C184.455 10.8574 184.863 11.9918 182.45 11.6601C180.333 11.2879 178.241 10.7984 176.183 10.1941L175.492 10.7778L177.601 11.9586L179.572 14.3998C179.151 14.5806 178.681 14.6259 178.231 14.5291C177.781 14.4323 177.375 14.1984 177.075 13.8624L175.803 12.6684H173.956C173.956 12.6684 168.935 16.0316 167.254 15.2488L165.829 16.622L161.79 12.2704Z" fill="#FFBE9D"/>
<path d="M176.5 6.4375C176.542 6.4375 176.687 6.73601 176.784 7.26669C176.906 7.97462 176.85 8.70043 176.618 9.3828C176.383 10.0755 175.916 10.6747 175.29 11.0876C174.827 11.406 174.488 11.5055 174.467 11.4657C174.446 11.4259 174.73 11.2468 175.159 10.8953C175.686 10.4662 176.081 9.90627 176.3 9.27666C176.784 7.77084 176.369 6.45077 176.5 6.4375Z" fill="#EB996E"/>
<path d="M169.434 12.117C170.183 12.0307 170.896 11.7637 171.509 11.3409C172.173 10.8531 172.716 10.2301 173.099 9.51668C173.578 8.59403 173.958 7.62722 174.234 6.63108V6.59128L174.275 6.55148C175.265 5.73 176.046 4.70208 176.558 3.54648C176.808 2.96121 176.971 2.34478 177.042 1.71561C177.068 1.44793 176.984 1.18098 176.807 0.972658C176.618 0.808384 176.37 0.72045 176.115 0.727215L176.239 0.654245C175.163 2.23958 173.783 3.61489 172.173 4.70735C171.711 5.01886 171.226 5.29607 170.72 5.53655C170.542 5.63336 170.351 5.70698 170.153 5.75545C170.153 5.70902 170.907 5.37071 172.048 4.54151C173.589 3.41661 174.912 2.04013 175.956 0.475141L176.004 0.402172H176.087C176.268 0.388681 176.449 0.41184 176.619 0.470136C176.79 0.528432 176.946 0.620549 177.076 0.740479C177.199 0.874825 177.293 1.03163 177.351 1.20149C177.409 1.37134 177.431 1.55073 177.415 1.72888C177.35 2.39955 177.179 3.05697 176.91 3.67915C176.374 4.88862 175.549 5.96089 174.503 6.81019L174.566 6.73059C174.27 7.74157 173.864 8.71989 173.355 9.64935C172.943 10.3905 172.352 11.0271 171.633 11.5067C171.167 11.8248 170.629 12.0318 170.063 12.1104C169.856 12.1569 169.641 12.1592 169.434 12.117Z" fill="#EB996E"/>
<path d="M100.449 44.0799L133.475 30.6602L161.978 10.8789L167.746 16.7562C167.746 16.7562 147.771 36.71 142.57 40.783C137.369 44.856 109.267 62.0104 109.267 62.0104L100.449 44.0799Z" fill="#F68B1E"/>
<path d="M119.44 48.1314C118.596 47.9452 117.713 48.01 116.909 48.3172C116.646 48.4432 116.376 48.7218 116.521 48.9805C116.611 49.1331 116.826 49.1729 117.005 49.2061C120.284 49.6903 123.23 50.6323 126.502 51.1232L127.055 50.8976C124.696 49.5741 122.122 48.6391 119.44 48.1314Z" fill="#FAFAFA"/>
<path d="M125.369 46.2159C125.905 47.7768 126.6 49.2833 127.444 50.7134L127.769 50.5343C127.835 48.9436 127.738 47.3505 127.478 45.7781C127.283 44.2524 126.607 42.82 125.542 41.6719C124.981 43.1302 124.92 44.7222 125.369 46.2159Z" fill="#FAFAFA"/>
<path d="M130.755 44.4375C130.063 46.2883 129.406 48.0661 128.68 49.9169L130.063 48.557C131.351 47.0083 132.377 45.2759 133.106 43.4226C133.192 43.2115 133.232 42.9858 133.224 42.7593C133.215 42.6429 133.175 42.5308 133.107 42.4341C133.039 42.3375 132.946 42.2597 132.837 42.2087C132.706 42.1764 132.569 42.1753 132.437 42.2053C132.306 42.2354 132.184 42.2957 132.083 42.3811C131.44 42.9273 130.978 43.6423 130.755 44.4375Z" fill="#FAFAFA"/>
<path d="M154.023 22.3971C154.792 22.392 155.54 22.1604 156.167 21.7337C156.368 21.5745 156.541 21.2693 156.361 21.0703C156.295 21.0213 156.219 20.9869 156.138 20.9696C156.056 20.9524 155.972 20.9528 155.891 20.9708C152.951 21.2229 150.198 21.0106 147.259 21.2627L146.83 21.5679C149.162 22.2317 151.594 22.5121 154.023 22.3971Z" fill="#FAFAFA"/>
<path d="M149.285 25.2858C148.484 24.0443 147.558 22.8821 146.518 21.8164L146.276 22.042C146.575 23.4287 147.015 24.784 147.59 26.0884C148.097 27.3689 149.003 28.4689 150.184 29.2394C150.332 27.8632 150.017 26.4778 149.285 25.2858Z" fill="#FAFAFA"/>
<path d="M145.031 27.925C145.217 26.187 145.39 24.5153 145.577 22.7773L144.712 24.2235C143.948 25.8291 143.449 27.5388 143.232 29.2915C143.203 29.4981 143.22 29.7083 143.281 29.9084C143.313 30.009 143.373 30.0992 143.455 30.1693C143.536 30.2395 143.636 30.2869 143.744 30.3064C143.864 30.3071 143.982 30.2796 144.088 30.2264C144.194 30.1733 144.285 30.0959 144.353 30.0013C144.789 29.389 145.024 28.6663 145.031 27.925Z" fill="#FAFAFA"/>
<path d="M12.7948 190.2L12.1032 190.472C12.1032 190.472 12.1032 203.786 9.90375 204.781L0.476562 181.988L8.51354 179.281C8.36966 181.289 8.67749 183.303 9.41616 185.187C10.1548 187.071 11.3071 188.781 12.7948 190.2Z" fill="#F68B1E"/>
<path d="M6.91501 182.559C6.75479 182.363 6.52442 182.232 6.26873 182.19C6.01304 182.148 5.75032 182.199 5.53171 182.333C5.31976 182.481 5.17601 182.702 5.13084 182.95C5.08567 183.197 5.14261 183.452 5.28963 183.66C5.46111 183.863 5.70494 183.999 5.9743 184.041C6.24365 184.082 6.51955 184.027 6.74901 183.885C6.94745 183.71 7.06816 183.469 7.08618 183.211C7.1042 182.953 7.01816 182.698 6.84584 182.499" fill="white"/>
<path d="M0.476562 181.988L2.41318 181.324L10.713 203.407C10.713 203.407 10.713 204.601 9.883 204.767L0.476562 181.988Z" fill="#263238"/>
<path d="M12.054 190.58C11.9364 190.619 11.6529 190.082 11.0511 189.677C10.4494 189.273 9.84766 189.167 9.84766 189.047C9.84766 188.928 10.5877 188.835 11.307 189.339C12.0264 189.843 12.1716 190.56 12.054 190.58Z" fill="#263238"/>
<path d="M12.0128 193.367C11.9091 193.433 11.5148 193.029 10.8647 192.836C10.2145 192.644 9.65428 192.73 9.61278 192.618C9.57128 192.505 10.2007 192.186 10.9961 192.438C11.7915 192.691 12.1235 193.321 12.0128 193.367Z" fill="#263238"/>
<path d="M9.59163 195.862C9.52246 195.769 10.0412 195.391 10.7951 195.438C11.549 195.484 12.0193 195.902 11.9363 195.988C11.8533 196.074 11.3899 195.882 10.7674 195.849C10.1449 195.816 9.64696 195.968 9.59163 195.862Z" fill="#263238"/>
<path d="M101.879 128.682C101.879 128.682 83.5365 164.503 78.6119 167.256C73.6874 170.009 16.9859 189.366 16.9859 189.366L12.6216 176.444L63.9351 150.454C63.9351 150.454 70.6372 132.928 73.134 119.614C74.6626 111.455 78.1692 106.672 83.2114 100.317C84.7538 98.3735 87.3613 95.594 88.6962 94.7383L111.749 98.9241L101.879 128.682Z" fill="#263238"/>
<path d="M118.092 100.039L93.3383 96.0586L88.3169 123.973L93.3452 182.593C93.3452 182.593 89.8869 202.972 90.4748 216.378C91.0074 229.022 91.5192 233.791 91.5192 233.791C91.5192 233.791 102.164 233.838 104.585 233.838C105.601 233.838 114.696 170.388 114.696 170.388L118.092 100.039Z" fill="#263238"/>
<path d="M106.755 115.348C106.71 115.488 106.654 115.626 106.589 115.759C106.458 116.057 106.285 116.422 106.063 116.926L104.106 121.192C102.46 124.834 100.212 129.815 97.7359 135.308C95.2598 140.801 92.7422 145.716 90.8194 149.199C89.858 150.937 89.0626 152.336 88.4817 153.292L87.79 154.386C87.7204 154.518 87.637 154.642 87.541 154.758C87.5874 154.617 87.65 154.481 87.7278 154.353C87.8868 154.068 88.0874 153.69 88.3364 153.225L90.5635 149.086C92.4171 145.577 94.8587 140.668 97.3694 135.155C99.88 129.643 102.149 124.701 103.871 121.092C104.729 119.301 105.434 117.855 105.946 116.867L106.534 115.732C106.591 115.596 106.665 115.467 106.755 115.348Z" fill="#455A64"/>
<path d="M15.3339 179.098C15.3754 179.184 15.0572 179.41 14.6422 179.609C14.2272 179.808 13.833 179.901 13.7846 179.814C13.7362 179.728 14.0612 179.496 14.4762 179.297C14.8912 179.098 15.2855 179.025 15.3339 179.098Z" fill="#455A64"/>
<path d="M21.5239 176.238C21.5723 176.325 20.9083 176.716 20.0576 177.114C19.5616 177.406 19.0084 177.598 18.4322 177.678C18.3838 177.592 19.0477 177.2 19.8985 176.802C20.3944 176.51 20.9476 176.318 21.5239 176.238Z" fill="#455A64"/>
<path d="M34.4784 183.276L9.46142 191.15L5.31152 180.948L29.9619 169.531L34.4784 183.276Z" fill="#FFBE9D"/>
<path d="M27.7148 173.348C27.7632 173.434 27.0992 173.825 26.2485 174.23C25.752 174.523 25.1993 174.717 24.6231 174.8C24.5747 174.714 25.2387 174.316 26.0894 173.918C26.5859 173.626 27.1386 173.431 27.7148 173.348Z" fill="#455A64"/>
<path d="M33.8826 170.473C32.9692 171.156 31.9193 171.653 30.7979 171.932C31.7047 171.238 32.7569 170.741 33.8826 170.473Z" fill="#455A64"/>
<path d="M40.0388 167.5C40.0873 167.586 39.4302 167.984 38.5795 168.396C38.0869 168.692 37.536 168.889 36.961 168.973C36.9126 168.886 37.5697 168.488 38.4204 168.084C38.9136 167.787 39.464 167.588 40.0388 167.5Z" fill="#455A64"/>
<path d="M46.1881 164.535C46.2365 164.621 45.5795 165.019 44.7357 165.431C44.2443 165.732 43.6933 165.933 43.1172 166.021C43.5341 165.633 44.028 165.328 44.5697 165.126C45.0616 164.825 45.6123 164.624 46.1881 164.535Z" fill="#455A64"/>
<path d="M52.3501 161.516C51.451 162.222 50.4071 162.74 49.2861 163.035C49.6975 162.638 50.1896 162.326 50.7317 162.119C51.2242 161.817 51.7743 161.612 52.3501 161.516Z" fill="#455A64"/>
<path d="M58.3966 158.434C58.445 158.52 57.8018 158.931 56.9649 159.362C56.4833 159.674 55.9391 159.887 55.3672 159.986C55.7752 159.588 56.262 159.272 56.7989 159.057C57.2805 158.745 57.8247 158.533 58.3966 158.434Z" fill="#455A64"/>
<path d="M64.392 155.215C64.4404 155.294 63.8179 155.732 63.0087 156.19C62.5351 156.515 61.9955 156.741 61.4248 156.853C61.8149 156.445 62.2849 156.113 62.8081 155.878C63.2806 155.551 63.8207 155.325 64.392 155.215Z" fill="#455A64"/>
<path d="M68.1351 150.281C68.1985 150.832 68.1587 151.389 68.0175 151.926C67.9833 152.131 67.9602 152.337 67.9483 152.543C67.9454 152.587 67.9454 152.632 67.9483 152.676C67.9539 152.748 67.9345 152.821 67.893 152.882C67.8413 152.962 67.7785 153.036 67.7063 153.101C67.4573 153.313 67.2774 153.379 67.2429 153.346C67.2083 153.313 67.3397 153.167 67.5126 152.935C67.5585 152.881 67.5958 152.82 67.6233 152.756C67.627 152.738 67.627 152.72 67.6233 152.702C67.6146 152.652 67.6146 152.6 67.6233 152.55C67.6028 152.329 67.6028 152.107 67.6233 151.887C67.662 151.321 67.8372 150.771 68.1351 150.281Z" fill="#455A64"/>
<path d="M69.7328 143.859C69.7692 144.418 69.6869 144.978 69.4907 145.504C69.4063 146.058 69.2038 146.589 68.8959 147.063C68.86 146.505 68.9424 145.945 69.138 145.418C69.2259 144.866 69.4282 144.336 69.7328 143.859Z" fill="#455A64"/>
<path d="M71.4958 137.484C71.4284 138.593 71.1247 139.677 70.6036 140.668C70.5725 140.11 70.6644 139.552 70.8733 139.03C70.9689 138.48 71.1808 137.954 71.4958 137.484Z" fill="#455A64"/>
<path d="M73.3437 131.121C73.272 132.232 72.9536 133.315 72.41 134.299C72.3889 133.741 72.4878 133.186 72.7005 132.667C72.8032 132.115 73.0221 131.589 73.3437 131.121Z" fill="#455A64"/>
<path d="M75.2509 124.781C75.2666 125.34 75.1606 125.896 74.9397 126.413C74.8338 126.963 74.6126 127.487 74.2896 127.952C74.3698 126.841 74.6976 125.76 75.2509 124.781Z" fill="#455A64"/>
<path d="M77.2484 118.461C77.1442 119.569 76.8003 120.645 76.2386 121.619C76.2319 121.059 76.3448 120.503 76.5706 119.987C76.6841 119.439 76.9149 118.919 77.2484 118.461Z" fill="#455A64"/>
<path d="M79.5468 112.242C79.4532 112.789 79.2858 113.322 79.0488 113.828C78.9073 114.368 78.6506 114.874 78.2949 115.314C78.3224 114.753 78.4658 114.202 78.7168 113.695C78.8461 113.146 79.1337 112.642 79.5468 112.242Z" fill="#455A64"/>
<path d="M83.2525 106.687C83.089 107.225 82.8111 107.724 82.4364 108.153C81.9038 108.903 81.3989 109.48 81.3159 109.42C81.4817 108.882 81.762 108.383 82.139 107.954C82.6716 107.204 83.1764 106.634 83.2525 106.687Z" fill="#455A64"/>
<path d="M87.3066 101.352C87.3896 101.412 86.9953 102.015 86.4282 102.778C85.861 103.541 85.3423 104.059 85.2593 104.006C85.4477 103.476 85.7466 102.988 86.1377 102.573C86.7048 101.843 87.2305 101.292 87.3066 101.352Z" fill="#455A64"/>
<path d="M90.4548 97.4035C90.5309 97.4632 90.358 97.8015 90.0675 98.1663C89.777 98.5312 89.4796 98.77 89.3758 98.7169C89.2721 98.6638 89.4727 98.3189 89.7632 97.9541C90.0537 97.5892 90.3926 97.3438 90.4548 97.4035Z" fill="#455A64"/>
<path d="M93.3785 146.48C93.2816 146.48 93.171 146.128 93.1364 145.671C93.1018 145.213 93.1364 144.835 93.2471 144.828C93.3577 144.822 93.4546 145.186 93.4891 145.644C93.5237 146.102 93.4822 146.473 93.3785 146.48Z" fill="#455A64"/>
<path d="M93.9192 153.333C93.7027 152.791 93.597 152.215 93.6079 151.635C93.5006 151.063 93.5171 150.476 93.6564 149.91C93.8728 150.452 93.9785 151.028 93.9676 151.608C94.0709 152.181 94.0545 152.767 93.9192 153.333Z" fill="#455A64"/>
<path d="M94.3954 160.191C94.1782 159.648 94.0771 159.068 94.098 158.486C94.0033 157.913 94.0268 157.327 94.1672 156.762C94.3781 157.307 94.4768 157.886 94.4577 158.467C94.552 159.04 94.5308 159.625 94.3954 160.191Z" fill="#455A64"/>
<path d="M94.741 167.043C94.5369 166.497 94.4498 165.917 94.4851 165.338C94.3951 164.762 94.4304 164.175 94.5889 163.613C94.8787 164.735 94.9304 165.901 94.741 167.043Z" fill="#455A64"/>
<path d="M94.9095 173.909C94.7246 173.355 94.6541 172.771 94.702 172.191C94.6338 171.614 94.6855 171.03 94.8541 170.473C95.1128 171.603 95.1316 172.771 94.9095 173.909Z" fill="#455A64"/>
<path d="M94.8607 180.776C94.6957 180.216 94.6441 179.63 94.7085 179.051C94.6569 178.473 94.7275 177.891 94.916 177.34C95.082 177.898 95.1336 178.481 95.0682 179.058C95.1201 179.638 95.0496 180.223 94.8607 180.776Z" fill="#455A64"/>
<path d="M94.5767 187.639C94.4277 187.076 94.3971 186.49 94.4868 185.915C94.4563 185.333 94.5456 184.752 94.7496 184.203C94.8996 184.766 94.9325 185.352 94.8465 185.928C94.8728 186.51 94.7812 187.091 94.5767 187.639Z" fill="#455A64"/>
<path d="M94.0701 194.492C93.9237 193.343 94.0154 192.177 94.3399 191.062C94.4787 191.628 94.4952 192.215 94.3883 192.787C94.3984 193.37 94.2904 193.949 94.0701 194.492Z" fill="#455A64"/>
<path d="M93.4681 201.334C93.3472 200.765 93.3472 200.179 93.4681 199.61C93.4614 199.03 93.5742 198.455 93.8001 197.918C93.9168 198.487 93.9168 199.073 93.8001 199.643C93.8069 200.222 93.6941 200.797 93.4681 201.334Z" fill="#455A64"/>
<path d="M92.9024 208.187C92.7721 207.62 92.758 207.035 92.8609 206.463C92.8464 205.88 92.9522 205.301 93.1721 204.758C93.3025 205.327 93.3189 205.914 93.2205 206.489C93.2343 207.07 93.1261 207.647 92.9024 208.187Z" fill="#455A64"/>
<path d="M92.5143 215.043C92.3684 214.479 92.3355 213.894 92.4175 213.318C92.3895 212.739 92.4788 212.16 92.6803 211.613C92.8306 212.174 92.8635 212.758 92.7772 213.331C92.8118 213.913 92.7223 214.495 92.5143 215.043Z" fill="#455A64"/>
<path d="M92.4662 221.915C92.2824 221.361 92.2188 220.776 92.2794 220.197C92.2181 219.618 92.2744 219.032 92.4454 218.473C92.628 219.027 92.6938 219.611 92.6391 220.191C92.6948 220.771 92.6361 221.356 92.4662 221.915Z" fill="#455A64"/>
<path d="M92.8474 228.771C92.628 228.23 92.5222 227.653 92.5361 227.072C92.4282 226.5 92.4447 225.913 92.5845 225.348C92.9104 226.46 92.9998 227.624 92.8474 228.771Z" fill="#455A64"/>
<path d="M93.5224 233.838C93.4255 233.838 93.2872 233.5 93.218 233.042C93.1489 232.584 93.1627 232.213 93.2665 232.2C93.3702 232.186 93.5016 232.545 93.5708 232.996C93.6399 233.447 93.6192 233.825 93.5224 233.838Z" fill="#455A64"/>
<path d="M101.075 100.156C100.983 100.393 100.858 100.616 100.702 100.82C100.324 101.405 99.913 101.969 99.4705 102.511C98.0325 104.345 96.1874 105.85 94.0687 106.916C91.9094 107.961 89.4439 108.273 87.0761 107.798C86.3678 107.649 85.6854 107.403 85.0496 107.068C84.8112 106.96 84.5918 106.817 84.3994 106.644C85.2713 107.047 86.1877 107.354 87.1314 107.559C89.4391 107.95 91.8167 107.615 93.9096 106.604C95.9798 105.555 97.804 104.11 99.2699 102.359C100.425 101.045 101.027 100.156 101.075 100.156Z" fill="#455A64"/>
<path d="M113.431 100.582C113.408 101.224 113.306 101.861 113.126 102.479C112.764 103.991 112.268 105.472 111.646 106.904C111.021 108.336 110.269 109.714 109.398 111.023C109.063 111.581 108.662 112.1 108.202 112.569C108.488 111.991 108.813 111.433 109.177 110.897C110.787 108.236 112.03 105.387 112.877 102.42C113.021 101.796 113.206 101.183 113.431 100.582Z" fill="#455A64"/>
<path d="M110.448 101.14C110.448 101.193 110.116 101.22 109.888 101.611C109.83 101.711 109.794 101.822 109.782 101.936C109.77 102.05 109.782 102.165 109.819 102.274C109.885 102.395 109.985 102.496 110.107 102.567C110.229 102.638 110.368 102.675 110.511 102.675C110.653 102.675 110.793 102.638 110.915 102.567C111.037 102.496 111.136 102.395 111.202 102.274C111.237 102.165 111.248 102.049 111.235 101.935C111.222 101.821 111.185 101.711 111.126 101.611C110.898 101.226 110.552 101.2 110.566 101.147C110.58 101.094 110.649 101.1 110.801 101.147C111.018 101.2 111.209 101.324 111.341 101.498C111.443 101.63 111.512 101.782 111.543 101.943C111.575 102.104 111.567 102.269 111.52 102.427C111.436 102.618 111.295 102.781 111.115 102.896C110.935 103.011 110.723 103.072 110.507 103.072C110.291 103.072 110.079 103.011 109.899 102.896C109.719 102.781 109.578 102.618 109.494 102.427C109.446 102.27 109.437 102.103 109.469 101.942C109.5 101.781 109.57 101.629 109.674 101.498C109.802 101.322 109.99 101.195 110.206 101.14C110.386 101.094 110.448 101.12 110.448 101.14Z" fill="#455A64"/>
<path d="M76.1985 14.7172C73.9476 13.6544 71.3495 13.4897 68.9723 14.2592C66.5952 15.0287 64.6326 16.6697 63.5136 18.8234C62.4139 20.9527 62.1303 23.5266 60.4911 25.2911C59.004 26.8632 56.7285 27.4404 54.6328 28.1236C52.5371 28.8069 50.31 29.855 49.4869 31.8318C48.7953 33.5167 49.2587 35.5864 48.1866 37.0789C47.1146 38.5715 44.8875 38.8567 42.9647 38.9761C43.0704 39.3894 43.3115 39.7594 43.6526 40.0316C43.9937 40.3038 44.4168 40.464 44.8598 40.4886C43.4535 41.2671 41.8274 41.6013 40.2119 41.4438C40.7237 43.686 42.7849 45.3775 45.0535 46.0873C47.3221 46.7971 49.7705 46.7905 52.1567 46.6445C54.8611 46.4853 57.7522 46.1205 59.7649 44.3891C62.1926 42.3062 62.9603 38.5383 65.9413 37.2647C67.4629 36.6013 69.2681 36.7871 70.7828 36.1104C72.8578 35.1817 73.8953 32.86 74.1235 30.6643C74.3518 28.4686 73.9783 26.253 74.1235 24.0307C74.2688 21.8085 75.1817 19.4867 77.1806 18.3988L76.1985 14.7172Z" fill="#263238"/>
<path d="M76.7228 14.0692C76.9234 13.6446 76.4116 13.1604 75.9205 13.1803C75.4339 13.2609 74.9968 13.5143 74.6963 13.8901C73.461 15.1092 72.6596 16.6719 72.4069 18.3545C72.2891 19.1961 72.3743 20.0525 72.6561 20.8576C72.9379 21.6627 73.4088 22.395 74.0323 22.9979C74.2985 23.2866 74.6696 23.467 75.0698 23.5021C75.2787 23.4889 75.4809 23.4263 75.6583 23.3198C75.8357 23.2133 75.9829 23.0662 76.0865 22.8918C76.2901 22.5422 76.426 22.1602 76.4877 21.7641C77.0277 19.2049 77.2276 16.5903 77.0825 13.9829L76.7228 14.0692Z" fill="#F68B1E"/>
<path d="M74.6206 22.9511C74.6206 18.2081 75.416 13.1732 78.6045 9.55796C81.4472 6.34068 86.2542 4.25111 90.5977 3.58775C92.8955 3.35926 95.2175 3.62206 97.3966 4.35725C100.225 5.23288 101.892 7.8067 103.663 10.1019C107.204 14.6923 108.366 21.6244 107.121 23.8599L87.4161 39.4222C83.0795 38.2415 78.2449 36.4239 76.3497 32.5101C75.0218 29.8434 74.6344 25.8632 74.6206 22.9511Z" fill="#263238"/>
<path d="M81.2315 13.6687L94.3037 6.97545C98.6473 5.463 102.977 10.0335 104.367 14.2724C105.917 18.9689 107.611 24.7667 107.943 28.4748C108.635 35.9177 103.101 38.1863 103.101 38.1863L105.771 46.5977L108.835 55.951L88.9918 44.674L79.5231 16.7799C79.3501 16.1503 79.4296 15.4814 79.746 14.9054C80.0623 14.3293 80.5924 13.888 81.2315 13.6687Z" fill="#FFBE9D"/>
<path d="M104.162 19.1271C104.228 19.3672 104.192 19.6224 104.062 19.8373C103.933 20.0522 103.72 20.2094 103.47 20.2747C103.351 20.3136 103.225 20.3289 103.099 20.3197C102.973 20.3105 102.851 20.277 102.739 20.2212C102.627 20.1654 102.528 20.0885 102.449 19.9951C102.369 19.9017 102.309 19.7937 102.274 19.6777C102.21 19.4377 102.247 19.1833 102.376 18.9688C102.505 18.7544 102.717 18.5969 102.965 18.5301C103.085 18.4922 103.211 18.4776 103.336 18.4873C103.462 18.4969 103.584 18.5305 103.695 18.5862C103.807 18.6419 103.906 18.7184 103.986 18.8113C104.066 18.9042 104.126 19.0116 104.162 19.1271Z" fill="#263238"/>
<path d="M103.67 16.7996C103.601 16.9588 102.709 16.7134 101.713 17.0716C100.717 17.4298 100.171 18.1661 100.019 18.0865C99.8664 18.0069 100.019 17.8013 100.212 17.463C100.535 17.026 100.989 16.693 101.513 16.5077C102.031 16.32 102.598 16.2967 103.131 16.4414C103.532 16.5741 103.705 16.7333 103.67 16.7996Z" fill="#263238"/>
<path d="M94.7573 21.7623C94.821 22.0023 94.7844 22.2567 94.6551 22.4712C94.5259 22.6856 94.3143 22.8431 94.0656 22.9099C93.9458 22.9479 93.8192 22.9625 93.6934 22.9529C93.5676 22.9434 93.445 22.9098 93.3329 22.8542C93.2208 22.7986 93.1214 22.722 93.0406 22.6291C92.9597 22.5361 92.8991 22.4286 92.8622 22.3128C92.7984 22.0728 92.8351 21.8184 92.9643 21.604C93.0935 21.3895 93.3051 21.2321 93.5538 21.1652C93.6737 21.1282 93.8 21.1142 93.9255 21.1242C94.0511 21.1342 94.1733 21.1679 94.2851 21.2234C94.397 21.2789 94.4963 21.3551 94.5774 21.4476C94.6584 21.5401 94.7195 21.647 94.7573 21.7623Z" fill="#263238"/>
<path d="M93.803 19.7067C93.72 19.8526 92.8555 19.5143 91.8318 19.7598C90.8082 20.0052 90.1719 20.6818 90.0266 20.5823C89.8814 20.4828 90.0266 20.2971 90.2964 19.9919C90.6592 19.5916 91.1425 19.3089 91.6797 19.1826C92.2148 19.0512 92.7798 19.0884 93.2912 19.2888C93.6855 19.448 93.8514 19.6404 93.803 19.7067Z" fill="#263238"/>
<path d="M99.3824 26.6515C99.8847 26.3685 100.421 26.1457 100.98 25.9881C101.243 25.8953 101.478 25.7891 101.478 25.6034C101.433 25.3373 101.303 25.0913 101.105 24.9002C100.703 24.343 100.275 23.7659 99.832 23.1622C98.0476 20.6813 96.685 18.6116 96.7888 18.5188C96.8925 18.4259 98.428 20.4093 100.212 22.8903L101.457 24.6415C101.701 24.9087 101.84 25.2487 101.852 25.6034C101.835 25.7012 101.797 25.7942 101.738 25.8757C101.679 25.9572 101.602 26.0251 101.513 26.0744C101.378 26.1466 101.234 26.2023 101.084 26.2402C100.537 26.446 99.9655 26.5842 99.3824 26.6515Z" fill="#263238"/>
<path d="M103.117 38.183C99.6177 39.0682 95.9309 39.0062 92.4658 38.0039C92.4658 38.0039 96.3806 42.3754 103.684 39.9276L103.117 38.183Z" fill="#EB996E"/>
<path d="M96.4567 29.3028C96.5489 29.0472 96.7059 28.8176 96.9136 28.6347C97.1212 28.4517 97.373 28.3212 97.6464 28.2547C98.0235 28.1385 98.4262 28.1209 98.8128 28.2037C99.1994 28.2865 99.556 28.4667 99.8458 28.7257C100.07 28.9763 100.188 29.298 100.178 29.6278C100.143 29.8069 100.178 29.7141 100.081 29.8534C99.7618 30.3769 99.3128 30.8167 98.7737 31.1337C98.4787 31.2838 98.1434 31.3452 97.8114 31.3097C97.4795 31.2742 97.1664 31.1435 96.9132 30.9346C96.6878 30.7293 96.5259 30.4683 96.4453 30.1804C96.3648 29.8924 96.3687 29.5887 96.4567 29.3028Z" fill="#EB996E"/>
<path d="M96.5259 28.0566C96.6919 28.0035 96.9685 29.0782 98.1236 29.6155C99.2786 30.1528 100.441 29.7481 100.489 29.8941C100.537 30.04 100.275 30.1661 99.7974 30.2987C99.144 30.4628 98.4513 30.4018 97.84 30.1263C97.2553 29.8574 96.8017 29.3819 96.5743 28.7995C96.3945 28.3617 96.4498 28.0698 96.5259 28.0566Z" fill="#263238"/>
<path d="M93.4891 17.2374C93.4891 17.5359 92.3963 17.6487 91.2205 18.0799C90.0447 18.511 89.1456 19.055 88.9312 18.8494C88.8274 18.7499 88.9312 18.458 89.2632 18.1064C89.7 17.6559 90.2432 17.3124 90.847 17.1047C91.4494 16.8889 92.0961 16.8116 92.7352 16.8792C93.2194 16.9654 93.503 17.1246 93.4891 17.2374Z" fill="#263238"/>
<path d="M102.578 14.2925C102.454 14.5578 101.686 14.4915 100.829 14.6839C99.9709 14.8762 99.293 15.2079 99.0648 15.0155C98.9611 14.916 99.0164 14.664 99.2792 14.3522C99.6322 13.9912 100.094 13.7453 100.6 13.649C101.103 13.5347 101.631 13.5765 102.108 13.7684C102.475 13.9542 102.634 14.1598 102.578 14.2925Z" fill="#263238"/>
<path d="M83.7453 25.0532C83.6277 25.0532 79.2565 24.7282 80.287 28.7282C81.3176 32.7283 85.2946 30.8974 85.2738 30.7846C85.2531 30.6719 83.7453 25.0532 83.7453 25.0532Z" fill="#FFBE9D"/>
<path d="M83.6199 29.5696C83.6199 29.5696 83.5576 29.6359 83.447 29.7222C83.293 29.8344 83.0994 29.8844 82.9075 29.8615C82.4302 29.815 81.8838 29.2313 81.6763 28.5347C81.5764 28.1937 81.5575 27.8356 81.621 27.4866C81.6274 27.3525 81.668 27.222 81.7391 27.1063C81.8102 26.9907 81.9098 26.8935 82.0291 26.8233C82.107 26.7833 82.1967 26.7701 82.2835 26.7858C82.3703 26.8014 82.449 26.8451 82.5063 26.9095C82.5893 27.009 82.5824 27.0953 82.6101 27.0953C82.6377 27.0953 82.6792 27.009 82.6101 26.8498C82.5594 26.7592 82.4793 26.687 82.3818 26.6442C82.3141 26.6161 82.2412 26.6016 82.1674 26.6016C82.0937 26.6016 82.0207 26.6161 81.953 26.6442C81.7898 26.717 81.6491 26.8293 81.5448 26.97C81.4405 27.1107 81.3762 27.2751 81.3582 27.4468C81.2589 27.8324 81.2589 28.2354 81.3582 28.621C81.432 28.9809 81.6142 29.3122 81.8821 29.5739C82.1501 29.8356 82.4921 30.0163 82.866 30.0936C82.9858 30.0965 83.1048 30.0742 83.2147 30.0284C83.3246 29.9826 83.4228 29.9143 83.5023 29.8283C83.6337 29.6691 83.6337 29.5762 83.6199 29.5696Z" fill="#EB996E"/>
<path d="M82.5678 31.2236C82.5678 31.2236 82.4295 31.4359 82.5678 31.7875C82.5982 31.8959 82.653 31.9966 82.7283 32.0825C82.8035 32.1685 82.8975 32.2376 83.0036 32.285C83.1407 32.3272 83.2865 32.3372 83.4285 32.3141C83.5705 32.291 83.7047 32.2355 83.8197 32.1523C83.9403 32.0829 84.0412 31.986 84.1136 31.8704C84.186 31.7547 84.2276 31.6237 84.2347 31.489C84.2277 31.2661 84.1311 31.0545 83.965 30.8986C83.6814 30.6399 83.4116 30.673 83.4186 30.6929C83.4255 30.7128 83.6399 30.7526 83.8543 30.9981C83.9708 31.1373 84.0343 31.3105 84.0341 31.489C84.0239 31.5938 83.9879 31.6948 83.929 31.7836C83.87 31.8724 83.7899 31.9465 83.6952 31.9998C83.608 32.0643 83.5067 32.1091 83.399 32.1309C83.2912 32.1527 83.1797 32.151 83.0727 32.1258C82.9063 32.0525 82.7769 31.9189 82.7131 31.7543C82.6432 31.5835 82.5945 31.4054 82.5678 31.2236Z" fill="#FAFAFA"/>
<path d="M104.751 14.3391C103.836 13.3533 102.63 12.6589 101.292 12.349C99.9781 11.9842 98.6018 11.8117 97.2876 11.4336C94.2374 10.5487 91.6376 8.61068 89.9907 5.9941C90.9169 5.27281 92.0042 4.76643 93.1679 4.51444C94.3316 4.26245 95.5403 4.27166 96.6997 4.54135C99.0262 5.10549 101.08 6.41935 102.517 8.26277C103.943 10.1009 104.934 12.2153 105.421 14.4585" fill="#263238"/>
<path d="M80.0514 12.4756C82.4307 8.95314 87.874 6.05428 92.2314 6.44566C92.4804 9.95481 90.7789 14.3529 89.0913 17.4773C87.4037 20.6017 87.1201 25.5039 81.6215 25.1324C81.2411 25.1324 80.9298 25.5105 80.5494 25.4044C80.2483 25.2796 80.0031 25.0563 79.8578 24.7742C78.7095 22.9048 78.1201 20.7682 78.1542 18.5988C78.1884 16.4294 78.8448 14.3108 80.0514 12.4756Z" fill="#263238"/>
<path d="M92.1489 6.71094C92.1659 7.01931 92.1474 7.32853 92.0936 7.633C92.0245 8.22339 91.9276 9.07249 91.7755 10.1272C91.4168 12.8806 90.794 15.5964 89.9149 18.2401C89.4098 19.6945 88.7638 21.1003 87.9852 22.4391C87.4395 23.604 86.5404 24.5841 85.4054 25.2517C85.0034 25.4585 84.5543 25.5666 84.0981 25.5666C83.642 25.5666 83.1929 25.4585 82.7909 25.2517C82.5778 25.137 82.3918 24.9811 82.2445 24.794C82.1477 24.6614 82.1131 24.5817 82.1269 24.5751C82.5073 25.004 83.0352 25.2879 83.6151 25.3756C84.195 25.4632 84.7884 25.3487 85.2878 25.0527C86.3511 24.3779 87.1872 23.4216 87.6947 22.2998C88.4459 20.9681 89.0753 19.5765 89.576 18.1406C90.4414 15.5129 91.0935 12.8249 91.5265 10.1007C91.6925 9.10565 91.8377 8.27646 91.9553 7.62637C91.9917 7.31636 92.0565 7.01003 92.1489 6.71094Z" fill="#263238"/>
<path d="M46.5125 35.3502C46.4596 35.2183 46.427 35.0798 46.4157 34.9389C46.3716 34.5377 46.3949 34.1323 46.4849 33.7382C46.6314 33.1083 46.9167 32.5157 47.3218 32.0002C47.8552 31.3072 48.5886 30.7791 49.4313 30.4811C50.4741 30.1855 51.5839 30.1855 52.6267 30.4811C53.7521 30.8221 54.9596 30.8221 56.085 30.4811C57.2865 29.9676 58.2645 29.0695 58.8516 27.9405C59.4957 26.7266 59.9102 25.4127 60.0758 24.0599C60.2564 22.6836 60.5337 21.3206 60.9058 19.9802C61.2987 18.7263 61.9528 17.5618 62.8286 16.5573C64.0643 15.1275 65.707 14.0733 67.5565 13.5232C69.406 12.9732 71.3824 12.951 73.2448 13.4594C73.646 13.5709 74.0388 13.7083 74.4206 13.8707C74.5565 13.9242 74.6863 13.9909 74.8079 14.0697C74.8079 14.1029 74.2546 13.8375 73.2033 13.5921C71.731 13.2381 70.1945 13.2064 68.7076 13.4992C66.4968 13.9324 64.5102 15.0855 63.0845 16.7629C62.2443 17.7393 61.6164 18.867 61.2378 20.0797C60.8798 21.4083 60.6118 22.7578 60.4355 24.1196C60.2611 25.5082 59.8301 26.856 59.1628 28.0997C58.5331 29.2841 57.4941 30.222 56.2233 30.7531C55.6151 30.975 54.9628 31.0634 54.3143 31.0118C53.7223 30.9578 53.1352 30.8625 52.5576 30.7266C51.5678 30.4252 50.5079 30.4067 49.5074 30.6735C48.7022 30.9442 47.996 31.4326 47.4739 32.0798C47.0739 32.5663 46.7821 33.1262 46.6163 33.725C46.4841 34.2569 46.449 34.8068 46.5125 35.3502Z" fill="#263238"/>
<path d="M75.7075 13.1383C75.7842 12.922 75.8913 12.7166 76.0257 12.528C76.3698 11.9935 76.7861 11.5051 77.2637 11.0752C78.8624 9.66233 80.8413 8.70648 82.9768 8.31567C85.0916 7.94627 87.2505 7.86809 89.3884 8.08349C90.2045 8.15646 90.8616 8.22943 91.3181 8.29577C91.554 8.30811 91.7869 8.35279 92.0097 8.42844C91.1255 8.44069 90.2412 8.40748 89.3607 8.32894C87.2475 8.18715 85.1242 8.29633 83.039 8.65398C80.9649 9.03708 79.0312 9.9335 77.4297 11.2543C76.8012 11.8345 76.225 12.4647 75.7075 13.1383Z" fill="#455A64"/>
<path d="M81.4536 6.92017C81.9644 6.65169 82.5148 6.45933 83.0859 6.34969C84.4414 6.01172 85.8353 5.83571 87.2358 5.82564C88.0095 5.81439 88.7826 5.8699 89.5459 5.99148C90.1979 6.08769 90.7972 6.39143 91.2474 6.85384C91.551 7.16913 91.7254 7.57909 91.7384 8.00808C91.7384 8.30659 91.6416 8.45916 91.6278 8.45253C91.6139 8.4459 91.6278 8.28669 91.6278 8.01471C91.5627 7.63649 91.3738 7.28797 91.0883 7.01968C90.657 6.62397 90.1038 6.37266 89.5113 6.30325C88.767 6.20134 88.0151 6.15919 87.2635 6.17722C85.8902 6.1857 84.5211 6.32345 83.1758 6.5885C82.6082 6.72774 82.0333 6.83845 81.4536 6.92017Z" fill="#455A64"/>
<path d="M73.9935 29.1781C73.937 29.0952 73.8971 29.003 73.8759 28.9061C73.7763 28.6452 73.7112 28.3733 73.6822 28.0968C73.5777 27.0633 73.7841 26.0228 74.2771 25.0984C74.9885 23.7257 76.0614 22.5549 77.3895 21.702C79.0083 20.7049 80.6823 19.7926 82.4039 18.969C85.4456 17.3617 88.0167 15.0463 89.8807 12.2359C90.4488 11.3895 90.9483 10.5024 91.3746 9.58252C91.5134 9.23574 91.6775 8.8988 91.8657 8.57422C91.853 8.66985 91.8275 8.7635 91.7896 8.85283C91.7274 9.03193 91.6513 9.30391 91.5061 9.63559C91.1281 10.5853 90.6653 11.5019 90.1228 12.3752C88.2872 15.2687 85.6925 17.6498 82.5976 19.2808C80.8873 20.0836 79.2206 20.9692 77.6039 21.9342C76.3084 22.7484 75.2495 23.8645 74.526 25.178C74.0299 26.0606 73.791 27.0552 73.8344 28.057C73.8759 28.8132 74.035 29.1781 73.9935 29.1781Z" fill="#455A64"/>
<path d="M90.3922 55.9442C90.3369 55.9442 90.3438 55.2809 90.1501 54.193C89.9032 52.7935 89.4022 51.4464 88.67 50.2128C88.0127 48.9514 86.9575 47.9208 85.6544 47.2675C85.0903 47.0599 84.4873 46.9673 83.8838 46.9956C84.0345 46.9161 84.203 46.8729 84.3749 46.8695C84.8448 46.8245 85.3192 46.8882 85.7582 47.0553C87.1596 47.667 88.298 48.7237 88.9813 50.047C89.7353 51.3068 90.2197 52.6983 90.4061 54.1399C90.5139 54.7373 90.5092 55.3484 90.3922 55.9442Z" fill="#263238"/>
<path d="M92.798 44.369L109.169 56.3758L104.473 42.4453L108.443 44.3956C108.443 44.3956 115.526 56.9595 117.78 63.2813C118.657 65.7364 119.31 68.2601 119.731 70.8237C120.257 75.3677 117.614 80.449 117.614 80.449L119.876 96.8405C120.194 98.605 118.998 100.31 118.188 100.31L92.549 96.9931C89.2083 96.3629 87.8389 94.6846 88.0395 92.8272L88.4268 89.391L77.471 54.2332C76.8278 56.3161 76.1569 49.1784 81.0469 47.4603C83.1149 46.7107 89.651 43.772 92.798 44.369Z" fill="#F68B1E"/>
<path d="M111.141 51.2109C111.141 51.2109 111.224 51.2905 111.349 51.463L111.881 52.2126C112.338 52.876 112.988 53.8179 113.756 55.0186C115.835 58.1101 117.508 61.4367 118.735 64.9225C119.952 68.4431 120.216 72.2026 119.503 75.848C119.274 76.9451 118.914 78.0134 118.431 79.0321C118.272 79.3969 118.099 79.6556 118.002 79.8414C117.956 79.9364 117.898 80.0255 117.829 80.1067C117.829 80.1067 118.002 79.7021 118.307 78.979C118.735 77.9527 119.057 76.8884 119.268 75.8015C119.898 72.1882 119.604 68.4821 118.41 65.0021C117.19 61.5431 115.566 58.2274 113.569 55.1181L111.791 52.259L111.307 51.4763C111.241 51.3943 111.185 51.3053 111.141 51.2109Z" fill="#263238"/>
<path d="M113.736 94.4385C113.265 95.1467 113.024 95.9734 113.044 96.8133C113.079 97.0986 113.265 97.4767 113.563 97.4037C113.75 97.4037 113.867 97.1981 113.957 97.0389C115.596 94.213 117.146 91.805 118.799 88.9791L118.723 88.4219C116.707 90.1334 115.02 92.1696 113.736 94.4385Z" fill="#FAFAFA"/>
<path d="M113.307 87.7077C115.062 87.8058 116.823 87.7347 118.563 87.4955L118.522 87.2102C116.94 86.5412 115.296 86.0171 113.611 85.6447C112.027 85.2873 110.366 85.4031 108.853 85.9764C110.108 86.9926 111.668 87.599 113.307 87.7077Z" fill="#FAFAFA"/>
<path d="M113.437 82.1525L118.368 86.1326L117.282 84.2354C116.192 82.5155 114.83 80.969 113.243 79.6516C113.058 79.4908 112.839 79.3707 112.6 79.3001C112.48 79.264 112.353 79.2598 112.231 79.2878C112.109 79.3159 111.998 79.3751 111.908 79.4593C111.83 79.5688 111.781 79.6949 111.766 79.8267C111.75 79.9585 111.768 80.0919 111.818 80.2155C112.147 81.0002 112.71 81.6741 113.437 82.1525Z" fill="#FAFAFA"/>
<path d="M98.9889 77.2322C100.372 78.1012 101.755 78.3798 103.243 78.9503H103.533C102.561 77.7122 101.46 76.572 100.248 75.5473C99.0208 74.5195 97.4955 73.876 95.8765 73.7031C96.4904 75.1704 97.5821 76.4082 98.9889 77.2322Z" fill="#FAFAFA"/>
<path d="M102.621 73.2656C103.403 75.1163 104.164 76.8808 104.945 78.7382L105.008 76.8278C104.878 74.8212 104.428 72.8457 103.673 70.9703C103.582 70.749 103.448 70.5464 103.279 70.3733C103.189 70.2892 103.077 70.2299 102.956 70.2019C102.834 70.1739 102.706 70.1781 102.587 70.2141C102.466 70.2742 102.362 70.3619 102.285 70.4695C102.208 70.5771 102.16 70.7013 102.144 70.831C102.05 71.6699 102.216 72.5167 102.621 73.2656Z" fill="#FAFAFA"/>
<path d="M112.316 71.4535C112.297 71.636 112.251 71.8149 112.177 71.9842C112.119 72.1868 112.042 72.3843 111.949 72.5746C111.841 72.8348 111.718 73.0894 111.583 73.3375C111.224 73.9858 110.8 74.599 110.317 75.1683C109.125 76.561 107.612 77.6692 105.897 78.4055C105.198 78.6954 104.471 78.9176 103.725 79.0689C103.226 79.1809 102.716 79.2475 102.204 79.2679C102.018 79.2949 101.829 79.2949 101.644 79.2679C101.644 79.2015 102.439 79.1684 103.67 78.8566C104.383 78.6702 105.077 78.4238 105.745 78.1203C106.564 77.7496 107.344 77.3053 108.076 76.7935C108.795 76.2554 109.458 75.6511 110.054 74.9892C110.537 74.4446 110.97 73.8608 111.347 73.2446C112.004 72.1633 112.253 71.4336 112.316 71.4535Z" fill="#263238"/>
<g opacity="0.3">
<path d="M100.075 79.5142C101.2 80.2785 102.54 80.6989 103.918 80.7202C105.297 80.7416 106.65 80.3628 107.8 79.6336C110.263 78.1543 111.459 75.6004 111.777 73C110.562 74.948 108.851 76.5678 106.804 77.7073C104.757 78.8468 102.441 79.4685 100.075 79.5142Z" fill="black"/>
</g>
<g opacity="0.3">
<path d="M84.9015 63.832L81.7891 68.0775C82.4392 70.4324 83.2969 72.648 83.947 74.9963C85.3641 71.4373 85.6951 67.5649 84.9015 63.832Z" fill="black"/>
</g>
<path d="M39.8535 113.714L35.3786 120.534L25.4672 123.373C25.4322 123.055 25.4644 122.734 25.5619 122.429C25.6593 122.123 25.82 121.84 26.0344 121.595C26.726 120.985 23.9594 121.847 23.9594 121.847L21.8845 125.987C21.8845 125.987 20.5012 125.894 20.5772 124.733C20.6533 123.572 22.2234 119.923 22.2234 119.923L22.9634 119.804C22.8494 119.487 22.8156 119.148 22.8649 118.816C22.9143 118.484 23.0452 118.168 23.247 117.894C23.3226 116.752 23.7089 115.65 24.3675 114.696C24.9211 113.834 25.6066 113.055 26.4009 112.388L35.0604 108.965L39.8535 113.714Z" fill="#FFBE9D"/>
<path d="M32.9133 118.999C31.9182 119.649 30.8333 120.162 29.6902 120.525C28.5877 120.982 27.4235 121.288 26.2319 121.433C26.2319 121.347 27.7466 120.909 29.5864 120.239C31.4262 119.569 32.8718 118.919 32.9133 118.999Z" fill="#EB996E"/>
<path d="M27.4519 118.148C26.6513 118.6 25.7997 118.963 24.9136 119.23C24.0677 119.592 23.1812 119.859 22.2715 120.026C23.0684 119.572 23.918 119.209 24.8029 118.944C25.6513 118.583 26.5401 118.316 27.4519 118.148Z" fill="#EB996E"/>
<path d="M27.2843 116.078C26.6259 116.417 25.9468 116.719 25.2509 116.98C24.6028 117.339 23.933 117.66 23.2451 117.942C24.3518 116.926 25.7661 116.274 27.2843 116.078Z" fill="#EB996E"/>
<path d="M27.3261 113.996C26.8213 114.304 26.2803 114.553 25.7146 114.739C25.191 115.019 24.6366 115.241 24.0615 115.402C24.4846 114.98 25.006 114.659 25.5832 114.467C26.1165 114.179 26.7142 114.017 27.3261 113.996Z" fill="#EB996E"/>
<path d="M86.1241 48.0898C86.5987 48.4488 87.0098 48.8789 87.3414 49.3635C88.196 50.5043 88.8308 51.7827 89.2158 53.138C89.5984 54.4919 89.7226 55.901 89.5824 57.2972C89.5529 57.8772 89.4244 58.4487 89.202 58.9888C89.1397 58.9888 89.2781 58.3254 89.3265 57.2773C89.4579 54.53 88.6913 51.812 87.1339 49.5028C86.5322 48.6205 86.0757 48.1296 86.1241 48.0898Z" fill="#263238"/>
<path d="M83.1015 47.2227C85.3839 47.2227 87.4865 49.2459 87.6802 51.4283C87.9154 54.0154 87.943 57.8496 86.6081 60.8546C84.3741 65.8696 61.7087 91.6542 61.7087 91.6542L39.8595 113.717L34.2295 108.311C34.2295 108.311 45.8423 90.1086 47.4193 87.9129C50.6977 83.3291 58.9491 75.2561 62.2206 69.8962C65.4921 64.5363 72.8028 54.7053 75.0092 52.5627C77.2155 50.42 79.0692 47.2293 83.1015 47.2227Z" fill="#F68B1E"/>
<path d="M69.5868 72.341C68.6897 72.3887 67.8287 72.6963 67.1177 73.2233C66.8963 73.4223 66.7096 73.7805 66.9309 73.9861C67.0085 74.0406 67.0981 74.0773 67.1929 74.0934C67.2876 74.1095 67.3849 74.1046 67.4773 74.079C70.901 73.6545 74.0687 73.4156 77.4924 72.9845L77.7552 72.5997C75.0687 72.0597 72.3047 71.9722 69.5868 72.341Z" fill="#FAFAFA"/>
<path d="M75.1137 67.9104C76.0445 69.2918 77.1223 70.5768 78.3299 71.7446L78.5167 71.4394C78.1979 69.8806 77.7111 68.3578 77.0642 66.8954C76.4123 65.4253 75.3038 64.1838 73.8895 63.3398C73.7793 64.9495 74.2083 66.5509 75.1137 67.9104Z" fill="#FAFAFA"/>
<path d="M79.9611 64.3884C79.8228 66.4249 79.7052 68.3685 79.5669 70.4183L80.5006 68.6936C81.3175 66.7899 81.8192 64.7756 81.9877 62.7234C82.0123 62.4794 81.984 62.2333 81.9047 62.0003C81.8624 61.8849 81.7878 61.7829 81.6889 61.7056C81.59 61.6284 81.4708 61.5788 81.3444 61.5625C81.2052 61.5679 81.0695 61.6058 80.949 61.6728C80.8285 61.7399 80.7268 61.8341 80.6528 61.9472C80.176 62.6776 79.9354 63.527 79.9611 64.3884Z" fill="#FAFAFA"/>
<path d="M84.8572 63.4062C84.8188 63.5082 84.7652 63.6043 84.6981 63.6915C84.5598 63.8971 84.3938 64.1558 84.1863 64.461C83.7298 65.1243 83.0451 66.0729 82.1805 67.2205C80.4375 69.5224 77.9476 72.6402 75.1395 76.0365C72.3314 79.4329 69.7239 82.4578 67.808 84.6602C66.8535 85.7414 66.065 86.6104 65.5186 87.2075L64.8754 87.8708C64.7232 88.0234 64.6402 88.103 64.6333 88.0897C64.6264 88.0765 64.6887 87.9969 64.8201 87.8244L65.4149 87.108L67.6144 84.4943L74.8628 75.8707C77.6709 72.481 80.1885 69.3897 81.9799 67.1277C82.8376 66.0199 83.543 65.1376 84.0549 64.4344C84.2762 64.1426 84.4629 63.8971 84.622 63.6981C84.6859 63.5908 84.765 63.4926 84.8572 63.4062Z" fill="#263238"/>
<path d="M48.9404 85.9367C51.5689 86.6911 54.3142 87.0009 57.0535 86.8522C57.9502 86.8833 58.8355 86.6519 59.5918 86.1888C59.8339 86.0097 60.0483 85.6714 59.8477 85.4459C59.7742 85.386 59.6874 85.3429 59.5939 85.3199C59.5005 85.2969 59.4028 85.2946 59.3083 85.3132C55.85 85.4525 52.6823 85.4525 49.2378 85.5918" fill="#FAFAFA"/>
<path d="M51.1614 90.8179C50.3567 89.3667 49.3971 87.9995 48.298 86.7383L48.0767 87.0302C48.2619 88.6082 48.6142 90.164 49.128 91.6737C49.6468 93.1938 50.6419 94.5235 51.9776 95.4813C52.2298 93.8832 51.9439 92.2495 51.1614 90.8179Z" fill="#FAFAFA"/>
<path d="M46.0344 94.5405C46.3526 92.5173 46.6431 90.5604 46.9612 88.5703L45.8753 90.2088C44.8948 92.0436 44.2159 94.0127 43.8626 96.0463C43.8108 96.2848 43.8108 96.5309 43.8626 96.7694C43.8934 96.8873 43.9575 96.9949 44.0478 97.0803C44.138 97.1657 44.251 97.2257 44.3744 97.2536C44.5151 97.2614 44.6555 97.2358 44.7834 97.1791C44.9113 97.1224 45.0226 97.0364 45.1076 96.9286C45.6592 96.2397 45.9821 95.4077 46.0344 94.5405Z" fill="#FAFAFA"/>
</svg>
