<svg width="56" height="35" viewBox="0 0 56 35" fill="none" xmlns="http://www.w3.org/2000/svg">
<path d="M24.4438 7.17869L27.6462 11.1456L28.7528 17.673L31.1736 16.0411L33.5944 19.4972L55.0494 0.0078125L24.4438 7.17869Z" fill="#F68B1E"/>
<path opacity="0.3" d="M31.1399 16.0793L30.0471 16.7957L29.2725 13.1406L31.1399 16.0793Z" fill="black"/>
<path opacity="0.3" d="M27.646 11.1456L55.0492 0.0078125L29.4374 12.7708L28.7526 17.673L27.646 11.1456Z" fill="black"/>
<path d="M55.0503 0C54.9527 0.0779846 54.8459 0.144772 54.7322 0.199006L53.7915 0.709791L50.2848 2.52739L38.6236 8.41135L29.2933 13.0548L29.3555 12.8625C30.5313 14.9122 31.5965 16.5574 32.3573 17.6917C32.7239 18.2357 33.0144 18.6735 33.2495 19.0184C33.3657 19.1661 33.4632 19.3264 33.54 19.496C33.4027 19.3648 33.2798 19.2203 33.1734 19.0648C32.9452 18.7796 32.6201 18.3484 32.2189 17.7912C31.4097 16.6768 30.3031 15.0515 29.0927 13.0084L29.0166 12.8824L29.1549 12.8094L38.4576 8.11948L50.1327 2.32838L53.6947 0.610286L54.6699 0.152572C54.7872 0.0822199 54.9157 0.0306867 55.0503 0Z" fill="#263238"/>
<path d="M55.0504 0.00191264C55.0919 0.0881489 48.95 2.65534 41.335 5.79301C33.7199 8.93068 27.502 11.3519 27.502 11.2657C27.502 11.1795 33.6023 8.61227 41.2174 5.4746C48.8324 2.33693 55.0158 -0.0776901 55.0504 0.00191264Z" fill="#263238"/>
<path d="M28.7539 17.6715C28.6584 16.8742 28.6817 16.0678 28.8231 15.2768C28.8504 14.4764 28.9947 13.6837 29.2519 12.9219C29.3474 13.717 29.3241 14.5211 29.1828 15.31C29.1599 16.1129 29.0155 16.9084 28.7539 17.6715Z" fill="#263238"/>
<path d="M2.44977 33.8334C2.44977 33.9262 2.09701 34.0523 1.61286 34.1186C1.1287 34.1849 0.741386 34.1186 0.73447 34.0589C0.727553 33.9992 1.10105 33.8334 1.56446 33.7737C2.02786 33.714 2.42902 33.7272 2.44977 33.8334Z" fill="#263238"/>
<path d="M8.61315 31.1797C8.66848 31.2527 8.10134 31.7634 7.28519 32.2278C6.81319 32.5577 6.26058 32.7656 5.68056 32.8314C5.63906 32.7386 6.30305 32.3804 7.09845 31.9293C7.55856 31.6037 8.06988 31.3507 8.61315 31.1797Z" fill="#263238"/>
<path d="M13.0732 26.3111C12.9561 26.8586 12.6941 27.3681 12.3124 27.7904C11.7659 28.54 11.185 29.0309 11.1089 28.9712C11.3395 28.47 11.6473 28.0049 12.0219 27.5914C12.5544 26.8683 12.9833 26.2647 13.0732 26.3111Z" fill="#263238"/>
<path d="M14.6992 20.0625C14.9196 20.5841 14.9726 21.157 14.8514 21.7076C14.8453 22.2707 14.6726 22.8205 14.3534 23.293C14.3238 22.75 14.3703 22.2056 14.4917 21.6745C14.4952 21.1312 14.5649 20.5902 14.6992 20.0625Z" fill="#263238"/>
<path d="M10.5827 15.5765C11.171 15.4612 11.783 15.5682 12.2911 15.875C13.1902 16.3062 13.5914 17.016 13.5222 17.0491C13.453 17.0823 12.9343 16.5649 12.1389 16.1801C11.3435 15.7954 10.5689 15.6826 10.5827 15.5765Z" fill="#263238"/>
<path d="M5.18896 18.7399C5.21702 18.1673 5.46312 17.6245 5.88061 17.2142C6.21063 16.734 6.72093 16.3943 7.30541 16.2656C7.36074 16.3519 6.73135 16.7565 6.16419 17.4331C5.59704 18.1098 5.2858 18.7731 5.18896 18.7399Z" fill="#263238"/>
<path d="M6.30164 24.8816C5.8027 24.5652 5.42792 24.0984 5.23651 23.5549C4.94019 23.0638 4.82334 22.4918 4.90451 21.9297C5.17742 22.4058 5.40876 22.9028 5.59616 23.4156C5.94199 24.2315 6.39155 24.8087 6.30164 24.8816Z" fill="#263238"/>
<path d="M12.222 27.7518C11.6498 27.8724 11.0532 27.8285 10.5067 27.6258C9.92682 27.5313 9.38963 27.2726 8.96436 26.8828C9.5252 26.9601 10.0751 27.0981 10.6036 27.2941C11.1604 27.3831 11.7039 27.5368 12.222 27.7518Z" fill="#263238"/>
<path d="M18.8014 26.4219C18.3797 26.801 17.8625 27.0685 17.3005 27.198C16.7736 27.4405 16.1879 27.5414 15.606 27.4899C16.0966 27.2147 16.6251 27.007 17.176 26.873C17.6918 26.6471 18.2395 26.4951 18.8014 26.4219Z" fill="#263238"/>
<path d="M24.3202 22.6484C24.3893 22.7148 23.8498 23.2388 23.1167 23.8093C22.7121 24.2015 22.2269 24.5087 21.6919 24.7115C21.6297 24.6319 22.1692 24.1078 22.8954 23.544C23.3016 23.1554 23.7865 22.8506 24.3202 22.6484Z" fill="#263238"/>
<path d="M27.6951 18.9608C27.785 19.0006 27.6951 19.3787 27.3838 19.7635C27.0726 20.1482 26.789 20.3804 26.6922 20.3207C26.5953 20.261 26.8028 19.9293 27.0726 19.5645C27.3423 19.1996 27.6051 18.921 27.6951 18.9608Z" fill="#263238"/>
</svg>
